<svg width="150" height="70" viewBox="0 0 150 70" fill="none" xmlns="http://www.w3.org/2000/svg">
<mask id="path-1-inside-1_1_6112" fill="white">
<path d="M53.173 44.1781C54.1671 44.6301 54.5021 43.9304 54.2439 43.9085C54.4691 44.2133 55.3809 43.7316 55.6555 44.1073C55.9246 44.483 55.282 44.3632 55.5676 44.7614C55.8532 45.1596 54.7987 44.9026 55.0678 45.276C55.3369 45.6495 53.0247 45.0311 53.2444 45.3315L52.382 45.1651L53.173 44.1781ZM50.8058 44.9437C50.3719 44.6949 50.6795 44.5736 50.3005 44.3561C49.9216 44.138 49.1636 44.7768 48.867 44.6115C48.576 44.4467 48.867 45.4227 48.7022 45.3315C48.5814 45.2678 48.5979 45.3095 48.5374 45.276C48.7626 45.4858 48.9934 45.8544 48.2574 46.051L39.4038 48.6527L43.166 65.9803C42.6443 66.0023 42.3037 65.9529 41.782 65.9249C41.1284 65.8864 40.343 65.4256 39.953 64.9835C38.9973 63.8872 38.212 62.6141 36.8554 61.994C35.3725 61.3179 34.4388 61.1674 32.868 61.33C31.2643 61.4959 30.0284 62.5361 29.1057 63.8762C29.1991 63.1425 28.4851 62.5597 28.7707 61.8281C29.0728 61.0658 29.644 60.0887 28.8311 59.4478C28.9519 59.5527 29.0728 59.645 29.2156 59.7246C29.8253 58.9282 27.4636 58.7459 27.0022 58.5619C26.5189 58.3702 26.1674 58.8338 25.728 58.396C25.3875 58.0555 25.025 57.687 24.8438 57.2333C24.5801 56.5781 23.4322 57.9462 23.2949 56.4029C23.24 55.8756 23.1082 55.5708 22.6853 55.2407C22.0976 54.7881 21.801 54.0242 21.4111 53.4134C20.8509 52.5325 20.3346 52.1084 19.3075 51.919C18.7528 51.8179 17.561 51.2863 18.3079 50.5349C18.8187 50.0258 19.9281 50.3048 20.5268 50.4794C20.8893 50.586 21.1639 50.8886 21.5209 50.9781C22.0317 51.105 22.6359 50.8298 23.1796 50.9227C22.7622 50.1982 21.5594 50.151 20.9662 49.5941C20.4115 49.0729 21.4276 47.4109 22.0207 47.1582C22.191 47.0847 22.9269 46.6645 23.0148 46.6601C23.218 46.7095 23.3883 46.7782 23.5695 46.8814C23.9046 47.0127 24.3879 46.8002 24.7339 46.7705C25.9257 46.6689 27.6668 47.6679 28.7158 47.0473C28.1281 46.7518 27.0077 46.6337 26.7276 45.9401C26.3321 44.9762 27.8206 43.7887 27.502 42.6189C27.1999 41.532 26.5903 40.64 25.9477 39.8508C25.6401 39.4696 24.4373 39.3284 24.0693 39.6849C22.3832 41.3046 19.2471 37.0881 17.9784 39.6294C17.9235 39.7327 17.1161 39.8046 17.0392 39.7953C16.4845 39.7283 16.4186 40.3445 16.0396 40.6257C15.6991 40.8784 15.3091 41.0459 14.9357 41.2348C14.6885 41.354 14.4304 41.4386 14.1612 41.4562C13.7218 41.4781 13.1177 40.8729 13.6065 41.6775C13.3429 41.5045 13.0683 41.3523 12.7772 41.2348C12.9309 41.3935 13.1122 41.5753 13.2715 41.733C13.0847 41.6748 12.9584 41.678 12.887 41.8439C12.7827 42.3948 12.2444 41.7862 12.7168 42.3421C12.217 41.9949 9.80588 41.1612 9.72898 40.7921C9.54774 39.9073 12.7222 41.4139 10.7835 39.4635C9.37194 38.0487 8.52069 36.2615 6.85103 35.7541C6.25237 35.5717 5.47795 35.3817 4.85733 35.5882C4.52779 35.7936 4.4564 36.0452 4.24769 35.9205C3.77535 35.6343 3.62152 35.0148 3.30846 34.5919L3.69846 34.3151C2.55057 32.9107 3.1327 33.645 2.47912 33.2078C2.01777 33.2078 1.4466 32.8975 1.20494 32.7097C0.957787 32.5202 0.875403 31.8348 0.930326 31.7683V31.547C1.11157 30.9423 1.24887 30.3639 1.81458 29.997C2.10018 29.8109 2.29241 29.5445 2.08919 29.2221C1.63333 28.4834 0.952295 28.4938 0.930326 27.4503C0.875403 26.2782 1.23242 26.1524 1.97937 25.4577C2.47917 24.9941 1.80361 24.0659 2.31439 23.5755C3.5172 22.4193 5.49439 25.9289 6.46103 26.0668C7.05969 26.1508 8.63051 25.5747 7.79019 24.8486C7.15308 24.2928 7.21899 22.7417 6.35121 22.4682C7.43319 22.6 7.73525 22.3518 8.73485 21.6933C9.56968 21.1429 8.1527 20.5992 9.11935 20.3092C10.822 20.3312 9.94316 19.7468 11.8325 19.4788C12.6564 19.2706 12.0467 17.5158 13.2715 18.0947C13.1671 17.8316 13.1012 17.5828 12.9969 17.3197C13.3703 17.3994 15.1773 17.6822 15.2652 17.9843C15.6442 19.314 16.2318 17.8701 16.7042 18.6483C16.9898 18.299 16.7866 17.9525 17.204 17.7075C17.7917 17.6191 18.1926 17.378 18.6979 17.2093C19.4503 19.6287 21.7626 17.8399 23.2949 18.8697C23.8881 19.3777 23.4762 19.6364 25.5632 20.1433C26.2992 20.8776 26.8484 21.0847 27.5569 21.5274C27.3592 21.8624 27.7437 23.3102 28.1117 22.9664C28.93 22.1892 27.491 21.2599 27.502 20.7519C28.0128 20.3971 29.0124 21.0496 29.3803 21.4164C30.0284 22.059 31.0226 21.9552 31.5992 22.4682C32.2364 23.0361 32.6483 22.795 33.2579 22.2469C33.4611 22.0623 33.3678 21.6834 33.5875 21.5274C33.928 21.2879 34.3454 21.0913 34.307 20.586C34.62 20.6025 34.9496 20.7266 35.1967 20.9183C35.1967 20.3345 36.8774 20.1653 37.13 20.586C37.2948 20.8491 37.7067 21.144 37.9648 21.3055C38.4207 21.5949 38.7228 21.0419 39.1786 21.2506C39.1786 19.9813 39.0358 20.3103 40.1233 20.4751C40.7 20.5635 40.8153 19.8231 41.4524 20.1988C41.9083 20.4679 42.1994 21.0545 42.5564 21.5274C43.4571 22.7165 46.714 22.0211 46.0989 23.0218C46.5822 22.9889 47.0161 23.0548 47.2633 22.5792C47.4006 22.3106 47.1754 21.5675 47.5379 21.4164C48.0212 21.2176 48.3068 21.9552 48.6473 22.1359C49.0922 22.3699 49.8666 22.3682 50.3609 22.3573C50.9376 22.3463 52.5029 22.1431 52.6347 21.4164C52.7116 20.9545 52.1569 19.6781 52.9094 19.5897C52.3546 19.4068 51.9317 18.89 51.3056 18.8147C50.7728 18.751 50.6355 18.8741 50.1961 18.4825C49.7732 18.1068 49.4712 17.9876 48.867 17.9843C48.1201 17.9843 48.1475 17.613 47.5379 17.2643C47.1315 17.0314 46.8019 17.0682 46.3241 16.8771C45.8847 16.7041 45.7749 16.2163 46.3241 16.268C48.7078 14.7554 47.3127 16.246 49.1472 14.718C48.9055 14.5626 47.5159 13.3219 47.483 13.1126C47.4061 12.6348 48.5924 12.3624 48.0926 11.7841C49.8721 11.5682 48.845 11.5029 50.7509 11.895C51.0365 11.9532 51.4484 11.8137 51.9152 11.6182C52.3985 11.4117 51.3825 11.0448 51.0255 10.9536C50.1577 10.729 49.213 10.6488 48.3727 10.3445C47.2523 9.94085 49.3338 9.44819 49.3668 9.4037C49.1141 9.02638 48.8615 9.09064 48.4825 9.18236C47.9168 9.31912 47.4061 8.99782 46.9282 8.73913C48.2739 8.62819 47.1534 7.72801 46.7635 7.41055C47.0326 7.36112 47.2797 7.33256 47.5379 7.41055C47.3237 6.6279 49.3503 7.18427 49.6414 7.30016C50.2785 7.55006 50.3774 7.12935 50.9706 7.02335C51.6351 6.90526 51.7779 7.53632 52.3546 7.57697C52.1899 6.52849 53.2224 6.74654 54.0188 6.74654C54.0737 6.61472 54.1286 6.49114 54.1835 6.35878C55.1227 6.00068 55.9575 6.19675 56.8418 6.13744C56.9901 6.05286 56.7375 5.65466 57.4515 5.69476C57.8854 5.71673 58.5389 5.47562 59.1101 5.58382C59.5275 5.66236 59.8735 5.24714 60.2745 5.52835C60.8127 5.90896 60.7743 5.56679 60.7688 5.14114C60.7688 3.851 64.2893 4.21184 65.0308 4.03389C66.9366 3.31769 68.4305 3.65273 70.7373 2.37303C70.3803 2.30877 70.0618 2.3137 70.4023 2.04074C71.2591 1.35365 71.682 1.8551 71.5667 1.04444C71.8907 1.13671 72.2258 1.13945 72.5608 1.09991C72.4454 0.965898 72.352 0.842325 72.2312 0.712158C72.6486 0.73962 73.3791 1.17351 73.7252 0.933497C74.1535 0.98842 74.4337 1.0027 74.8895 1.09991C75.2026 1.16801 77.2512 2.53614 77.7675 1.65353C78.3112 0.717095 79.5305 1.70296 79.8161 2.04074C80.1182 2.40268 80.1786 2.61688 80.3653 3.03759C80.6125 3.58572 81.2606 3.83068 81.7494 4.08937C81.2276 4.6342 82.6062 5.82932 81.4748 5.9161C82.2162 6.83111 82.6281 6.09515 83.4685 6.58011C83.7486 6.74159 84.0671 6.58011 84.4076 6.19291C84.6932 5.86392 85.4622 6.28793 85.7368 6.24839C85.4347 6.0968 85.2699 5.75682 85.3523 5.41795C85.929 5.67499 86.3958 6.48455 87.0659 6.5252C86.5112 6.93712 86.989 7.04971 87.2307 7.57697C87.4559 7.33476 87.7854 7.23919 88.1149 7.24469C87.9392 6.97117 87.6041 6.82123 87.2856 6.96788C87.8678 5.33007 90.559 8.732 91.273 6.80201C91.5641 7.03268 91.8277 7.41165 91.8277 7.79831C91.0808 7.69395 90.5535 8.21518 90.5535 8.62874C90.5535 9.15436 91.6245 9.3367 91.6025 9.68051C92.1353 9.18895 92.4703 8.74353 93.2667 8.79461C93.7885 9.23235 93.8818 8.83855 94.3157 9.01595C94.6178 9.1961 94.7551 9.51245 95.0352 9.5141C94.9638 8.35468 95.5844 8.26186 96.4193 7.96417C96.8257 7.82083 97.9901 7.34739 97.4738 6.74654C97.9461 6.70809 98.4184 6.63779 98.8578 6.46973C99.3576 6.34725 99.6817 5.90292 100.077 5.63929C100.335 5.54537 100.566 5.63929 100.852 5.52835C101.362 5.33282 101.505 5.27405 102.01 5.08567C101.901 5.22407 101.774 5.37676 101.681 5.52835C102.049 5.62391 102.109 5.93697 101.955 6.3033C101.747 6.82342 101.285 6.417 100.906 6.63559C102.576 7.90212 104.575 8.60512 106.388 9.62504C108.2 10.6477 109.694 12.0856 111.259 13.4449C113.044 14.9971 114.742 16.6338 116.461 18.2611C117.493 19.2387 118.943 21.5428 120.393 21.8591C119.685 21.1742 121.563 21.439 121.113 20.4201C120.717 19.5287 121.244 19.7666 121.497 19.5342C122.579 19.3508 122.255 19.7622 122.936 19.8665C123.43 19.9407 123.293 19.872 123.491 20.0324C123.831 20.5091 123.112 21.216 124.21 20.9738C124.963 20.8079 125.171 21.9003 125.819 22.0255C126.155 22.0914 126.506 21.9311 126.814 21.8042C127.313 21.5949 127.967 22.232 128.198 22.0255C128.769 21.5175 128.785 22.2699 129.856 21.3055C130.005 21.1759 130.296 21.1737 130.466 21.1396C130.774 21.0787 130.741 20.7936 131.021 20.7519C133.19 20.4295 135.277 22.5627 136.167 23.7413C136.705 24.4504 137.963 24.3773 138.77 24.6272C139.715 24.9178 139.649 25.5911 140.319 26.2326C140.61 26.5094 140.857 26.6808 141.094 27.0076C141.978 27.4113 143.73 27.1048 144.252 27.5057C145.075 27.9918 145.235 27.1295 145.361 26.9521C145.509 26.7302 146.399 25.908 146.52 26.6753C146.58 27.0647 146.267 27.509 146.965 27.5057C147.344 27.5057 147.635 27.9089 147.959 28.2807C148.277 28.6448 148.634 28.8233 149.013 28.8898C149.398 28.9574 149.705 29.3704 149.843 29.5544C149.255 29.5434 147.52 29.2633 148.124 30.4952C148.574 31.3992 148.316 32.0045 147.465 32.4883C146.734 32.9003 145.531 32.2939 145.361 33.3737C145.042 35.3713 146.355 36.0182 147.075 37.6363C147.717 39.0824 146.108 39.1609 145.636 39.5185C145.125 39.9024 144.74 40.1594 144.197 39.574C143.691 39.0291 142.73 39.2889 142.093 39.3526C140.363 39.5256 139.583 38.8034 138.386 38.4118C137.123 37.9845 138.095 40.573 137.496 41.5116C137.43 42.4893 137.908 43.8376 137.441 45.5528C137.282 46.8825 139.512 45.7253 139.27 47.6564C139.188 48.3034 138.644 47.9217 138.325 47.7673C137.798 47.5092 137.392 47.9222 136.831 47.8223C136.387 47.7415 135.486 47.0166 135.063 47.2137C134.475 47.4878 133.673 47.5004 133.069 47.7119C132.306 47.9777 129.84 48.2358 129.692 48.9295C129.483 49.906 132.108 49.1135 132.015 50.1477C131.872 51.7449 133.322 53.576 133.789 54.1335C134.239 54.669 134.783 55.3495 134.953 56.0157C135.145 56.8016 136.046 57.0185 135.557 57.5101C135.068 57.1603 134.64 57.7029 134.398 58.0637C134.695 58.1868 134.997 58.3416 135.228 58.5619C133.382 58.8804 134.245 59.9201 134.234 60.0014C134.453 60.5254 135.145 61.4904 135.118 62.2159C134.58 61.3696 133.075 60.4348 132.46 60.555C131.323 60.7775 131.158 59.8141 130.246 59.3923C129.483 59.0386 127.863 58.4328 127.033 58.5064C125.171 58.6728 123.436 58.1977 122.991 58.396C122.552 58.5921 122.271 58.2488 121.832 58.1747C121.31 58.0874 120.503 58.1417 120.058 58.396C119.394 58.775 116.916 58.0247 116.96 58.396C117.175 60.3233 111.507 57.0685 110.425 56.7352C110.622 57.0817 108.975 57.5057 108.766 57.6211C107.898 58.0978 108.414 60.0695 108.986 60.6105C108.535 60.7621 107.997 60.3244 107.602 60.1673C105.844 59.9476 106.459 60.1124 105.553 59.5587C104.438 59.1935 103.087 58.7409 101.901 58.7832C100.648 59.3462 100.61 59.0491 99.9618 59.2819C99.8299 59.2819 99.5828 59.785 99.4675 60.2782C99.2533 61.1477 98.8084 61.1081 100.022 61.4409C99.1819 61.3597 98.6931 62.1412 98.4679 62.2708C97.9791 62.5575 97.5836 61.8875 97.1992 62.6586C96.3973 64.2579 95.7327 63.8592 94.5958 64.6517C94.2498 64.8929 93.8599 65.151 93.5413 65.4267C93.1733 65.7452 93.6347 66.3313 93.3216 66.4785C92.7834 66.7306 92.4099 67.349 92.1572 67.7516C91.8057 68.308 92.4758 68.6468 92.5472 69.246C91.8167 69.0478 89.8779 69.089 90.1086 67.9174C90.2459 67.2282 89.6143 66.5092 88.8399 66.4785C87.5657 66.429 84.9843 67.5319 84.1879 66.1462C83.6991 65.3048 83.3696 64.4436 83.0236 63.5445C82.5732 62.3697 81.9416 63.0656 81.2001 62.5476C80.0632 61.7589 80.261 59.3226 80.0907 58.1192C78.7616 58.4773 78.6792 58.0412 77.8224 57.1229C76.7294 55.9514 76.0209 56.0393 75.4937 55.1852C74.0657 53.8846 74.0162 55.1111 72.8408 55.3511C70.9405 55.6504 69.3203 55.1116 67.5792 55.0743C66.651 55.0523 65.9261 55.3423 65.0308 55.5724C63.5149 55.9657 62.6636 54.8705 61.8782 54.1335C60.9446 53.2569 60.0493 52.299 59.1101 51.4763C58.0446 50.5437 58.5389 50.8397 57.2812 50.2026L53.0741 48.1128L53.3158 46.8935C52.8654 46.4816 52.3766 45.6512 51.5912 45.9082C51.9207 46.2322 52.1185 46.2679 52.6951 46.955L52.1733 47.8036L49.3778 46.2608C49.4382 46.0609 48.7627 45.0591 49.5865 45.437C49.2295 45.1975 49.6524 45.4946 49.8172 45.0778L50.8058 44.9437ZM52.1349 43.781C52.1898 43.0286 51.1134 42.4552 51.3056 42.5634C53.1016 42.6073 52.6237 43.5471 52.5194 43.6706L52.1349 43.781ZM108.101 40.0721C108.288 40.3961 109.524 40.6318 109.985 40.5702C110.507 40.501 111.226 39.8854 111.754 40.1276C112.094 40.2808 112.462 40.1995 112.808 40.2934C113.176 40.3939 113.248 40.7724 113.583 40.9025C113.934 41.0404 114.132 40.8037 114.467 40.8471C114.769 40.8855 116.175 41.6929 115.357 40.8471C115.681 41.0893 116.115 40.8471 116.406 41.1793C116.735 41.5501 117.125 41.0541 117.57 40.958C118.152 40.8306 118.701 40.858 119.284 41.0135C119.943 41.1898 120.486 41.51 121.113 41.6775C121.113 41.4007 121.058 41.1239 121.058 40.8471C121.42 40.9393 121.459 40.7246 121.722 40.5702C122.079 40.3571 122.65 40.8339 122.991 40.9025C122.705 40.7921 122.442 40.5829 122.332 40.2934C122.722 40.2715 124.441 39.982 124.21 40.958C124.21 41.0904 123.974 41.1266 123.881 41.1793C123.65 41.309 123.881 41.6358 123.826 41.8439C123.623 42.5189 121.349 41.8769 121.722 42.6189C121.376 42.1487 120.893 42.5079 120.448 42.5079C119.937 42.5079 119.58 42.0652 119.064 42.0652C118.443 42.0652 117.9 41.5457 117.29 41.6226C116.466 41.7258 115.917 41.7319 115.077 41.6226C114.577 41.5578 109.958 41.9104 110.485 40.8471C109.568 40.8745 110.688 41.3787 110.04 41.6226C109.628 41.7774 109.409 42.1707 109.041 41.7884C108.964 42.096 108.81 42.2097 108.546 42.3421C108.305 42.4618 108.414 43.1302 108.381 43.3384C108.233 44.2611 106.553 43.4586 106.882 44.3347C106.986 44.6016 107.003 44.7576 107.052 45.0547C107.107 45.3211 107.118 45.5589 107.107 45.8297C106.975 45.9357 106.849 46.0576 106.717 46.1619C106.624 47.027 107.992 47.7377 107.602 48.6527C107.162 48.8664 107.135 48.3968 107.052 48.0991C106.888 47.5004 106.102 47.289 105.668 46.9369C105.344 46.676 104.295 46.1257 104.114 45.8297C103.9 45.4749 104.471 45.0476 104.004 44.7224C104.641 44.9482 104.685 43.9941 104.394 43.6706C103.74 42.9495 105.026 42.9753 105.443 42.9512C104.515 42.514 106.031 41.4309 106.498 41.2903C107.041 41.1266 106.498 40.6477 106.882 40.3489C107.245 40.0496 107.739 40.4725 108.101 40.0721ZM54.568 40.3489C55.3919 40.2544 55.4413 40.5043 55.5676 40.9025C55.6225 41.0195 55.6225 41.0882 55.6774 41.2348C55.8257 41.5429 56.1828 41.7341 56.5617 41.812C56.6496 41.8285 57.9628 41.6852 57.2977 41.1524C57.5888 40.9141 57.781 40.9174 57.8743 40.908C57.9732 40.897 57.3141 41.8148 57.391 41.7884C57.9567 41.6033 57.9787 42.509 57.5613 42.7293C57.1933 42.9226 56.688 43.4982 56.1772 43.2829C56.3091 43.0758 56.2761 42.916 56.1223 42.7293C55.7543 42.2218 55.952 42.1685 55.4028 42.3975C54.936 42.5898 54.7108 42.1048 54.2934 42.0652C53.9364 42.0323 53.6618 42.2295 53.2993 42.0652C52.8434 41.8609 52.5908 41.2996 53.0741 40.958C53.8815 40.389 54.0078 41.1684 54.3483 41.6775C54.4033 41.482 54.4197 41.2689 54.4032 41.0689C54.8371 41.2798 55.0832 41.399 55.3797 40.9564C55.0612 40.8042 54.7822 40.6718 54.568 40.3489Z"/>
</mask>
<path d="M53.173 44.1781C54.1671 44.6301 54.5021 43.9304 54.2439 43.9085C54.4691 44.2133 55.3809 43.7316 55.6555 44.1073C55.9246 44.483 55.282 44.3632 55.5676 44.7614C55.8532 45.1596 54.7987 44.9026 55.0678 45.276C55.3369 45.6495 53.0247 45.0311 53.2444 45.3315L52.382 45.1651L53.173 44.1781ZM50.8058 44.9437C50.3719 44.6949 50.6795 44.5736 50.3005 44.3561C49.9216 44.138 49.1636 44.7768 48.867 44.6115C48.576 44.4467 48.867 45.4227 48.7022 45.3315C48.5814 45.2678 48.5979 45.3095 48.5374 45.276C48.7626 45.4858 48.9934 45.8544 48.2574 46.051L39.4038 48.6527L43.166 65.9803C42.6443 66.0023 42.3037 65.9529 41.782 65.9249C41.1284 65.8864 40.343 65.4256 39.953 64.9835C38.9973 63.8872 38.212 62.6141 36.8554 61.994C35.3725 61.3179 34.4388 61.1674 32.868 61.33C31.2643 61.4959 30.0284 62.5361 29.1057 63.8762C29.1991 63.1425 28.4851 62.5597 28.7707 61.8281C29.0728 61.0658 29.644 60.0887 28.8311 59.4478C28.9519 59.5527 29.0728 59.645 29.2156 59.7246C29.8253 58.9282 27.4636 58.7459 27.0022 58.5619C26.5189 58.3702 26.1674 58.8338 25.728 58.396C25.3875 58.0555 25.025 57.687 24.8438 57.2333C24.5801 56.5781 23.4322 57.9462 23.2949 56.4029C23.24 55.8756 23.1082 55.5708 22.6853 55.2407C22.0976 54.7881 21.801 54.0242 21.4111 53.4134C20.8509 52.5325 20.3346 52.1084 19.3075 51.919C18.7528 51.8179 17.561 51.2863 18.3079 50.5349C18.8187 50.0258 19.9281 50.3048 20.5268 50.4794C20.8893 50.586 21.1639 50.8886 21.5209 50.9781C22.0317 51.105 22.6359 50.8298 23.1796 50.9227C22.7622 50.1982 21.5594 50.151 20.9662 49.5941C20.4115 49.0729 21.4276 47.4109 22.0207 47.1582C22.191 47.0847 22.9269 46.6645 23.0148 46.6601C23.218 46.7095 23.3883 46.7782 23.5695 46.8814C23.9046 47.0127 24.3879 46.8002 24.7339 46.7705C25.9257 46.6689 27.6668 47.6679 28.7158 47.0473C28.1281 46.7518 27.0077 46.6337 26.7276 45.9401C26.3321 44.9762 27.8206 43.7887 27.502 42.6189C27.1999 41.532 26.5903 40.64 25.9477 39.8508C25.6401 39.4696 24.4373 39.3284 24.0693 39.6849C22.3832 41.3046 19.2471 37.0881 17.9784 39.6294C17.9235 39.7327 17.1161 39.8046 17.0392 39.7953C16.4845 39.7283 16.4186 40.3445 16.0396 40.6257C15.6991 40.8784 15.3091 41.0459 14.9357 41.2348C14.6885 41.354 14.4304 41.4386 14.1612 41.4562C13.7218 41.4781 13.1177 40.8729 13.6065 41.6775C13.3429 41.5045 13.0683 41.3523 12.7772 41.2348C12.9309 41.3935 13.1122 41.5753 13.2715 41.733C13.0847 41.6748 12.9584 41.678 12.887 41.8439C12.7827 42.3948 12.2444 41.7862 12.7168 42.3421C12.217 41.9949 9.80588 41.1612 9.72898 40.7921C9.54774 39.9073 12.7222 41.4139 10.7835 39.4635C9.37194 38.0487 8.52069 36.2615 6.85103 35.7541C6.25237 35.5717 5.47795 35.3817 4.85733 35.5882C4.52779 35.7936 4.4564 36.0452 4.24769 35.9205C3.77535 35.6343 3.62152 35.0148 3.30846 34.5919L3.69846 34.3151C2.55057 32.9107 3.1327 33.645 2.47912 33.2078C2.01777 33.2078 1.4466 32.8975 1.20494 32.7097C0.957787 32.5202 0.875403 31.8348 0.930326 31.7683V31.547C1.11157 30.9423 1.24887 30.3639 1.81458 29.997C2.10018 29.8109 2.29241 29.5445 2.08919 29.2221C1.63333 28.4834 0.952295 28.4938 0.930326 27.4503C0.875403 26.2782 1.23242 26.1524 1.97937 25.4577C2.47917 24.9941 1.80361 24.0659 2.31439 23.5755C3.5172 22.4193 5.49439 25.9289 6.46103 26.0668C7.05969 26.1508 8.63051 25.5747 7.79019 24.8486C7.15308 24.2928 7.21899 22.7417 6.35121 22.4682C7.43319 22.6 7.73525 22.3518 8.73485 21.6933C9.56968 21.1429 8.1527 20.5992 9.11935 20.3092C10.822 20.3312 9.94316 19.7468 11.8325 19.4788C12.6564 19.2706 12.0467 17.5158 13.2715 18.0947C13.1671 17.8316 13.1012 17.5828 12.9969 17.3197C13.3703 17.3994 15.1773 17.6822 15.2652 17.9843C15.6442 19.314 16.2318 17.8701 16.7042 18.6483C16.9898 18.299 16.7866 17.9525 17.204 17.7075C17.7917 17.6191 18.1926 17.378 18.6979 17.2093C19.4503 19.6287 21.7626 17.8399 23.2949 18.8697C23.8881 19.3777 23.4762 19.6364 25.5632 20.1433C26.2992 20.8776 26.8484 21.0847 27.5569 21.5274C27.3592 21.8624 27.7437 23.3102 28.1117 22.9664C28.93 22.1892 27.491 21.2599 27.502 20.7519C28.0128 20.3971 29.0124 21.0496 29.3803 21.4164C30.0284 22.059 31.0226 21.9552 31.5992 22.4682C32.2364 23.0361 32.6483 22.795 33.2579 22.2469C33.4611 22.0623 33.3678 21.6834 33.5875 21.5274C33.928 21.2879 34.3454 21.0913 34.307 20.586C34.62 20.6025 34.9496 20.7266 35.1967 20.9183C35.1967 20.3345 36.8774 20.1653 37.13 20.586C37.2948 20.8491 37.7067 21.144 37.9648 21.3055C38.4207 21.5949 38.7228 21.0419 39.1786 21.2506C39.1786 19.9813 39.0358 20.3103 40.1233 20.4751C40.7 20.5635 40.8153 19.8231 41.4524 20.1988C41.9083 20.4679 42.1994 21.0545 42.5564 21.5274C43.4571 22.7165 46.714 22.0211 46.0989 23.0218C46.5822 22.9889 47.0161 23.0548 47.2633 22.5792C47.4006 22.3106 47.1754 21.5675 47.5379 21.4164C48.0212 21.2176 48.3068 21.9552 48.6473 22.1359C49.0922 22.3699 49.8666 22.3682 50.3609 22.3573C50.9376 22.3463 52.5029 22.1431 52.6347 21.4164C52.7116 20.9545 52.1569 19.6781 52.9094 19.5897C52.3546 19.4068 51.9317 18.89 51.3056 18.8147C50.7728 18.751 50.6355 18.8741 50.1961 18.4825C49.7732 18.1068 49.4712 17.9876 48.867 17.9843C48.1201 17.9843 48.1475 17.613 47.5379 17.2643C47.1315 17.0314 46.8019 17.0682 46.3241 16.8771C45.8847 16.7041 45.7749 16.2163 46.3241 16.268C48.7078 14.7554 47.3127 16.246 49.1472 14.718C48.9055 14.5626 47.5159 13.3219 47.483 13.1126C47.4061 12.6348 48.5924 12.3624 48.0926 11.7841C49.8721 11.5682 48.845 11.5029 50.7509 11.895C51.0365 11.9532 51.4484 11.8137 51.9152 11.6182C52.3985 11.4117 51.3825 11.0448 51.0255 10.9536C50.1577 10.729 49.213 10.6488 48.3727 10.3445C47.2523 9.94085 49.3338 9.44819 49.3668 9.4037C49.1141 9.02638 48.8615 9.09064 48.4825 9.18236C47.9168 9.31912 47.4061 8.99782 46.9282 8.73913C48.2739 8.62819 47.1534 7.72801 46.7635 7.41055C47.0326 7.36112 47.2797 7.33256 47.5379 7.41055C47.3237 6.6279 49.3503 7.18427 49.6414 7.30016C50.2785 7.55006 50.3774 7.12935 50.9706 7.02335C51.6351 6.90526 51.7779 7.53632 52.3546 7.57697C52.1899 6.52849 53.2224 6.74654 54.0188 6.74654C54.0737 6.61472 54.1286 6.49114 54.1835 6.35878C55.1227 6.00068 55.9575 6.19675 56.8418 6.13744C56.9901 6.05286 56.7375 5.65466 57.4515 5.69476C57.8854 5.71673 58.5389 5.47562 59.1101 5.58382C59.5275 5.66236 59.8735 5.24714 60.2745 5.52835C60.8127 5.90896 60.7743 5.56679 60.7688 5.14114C60.7688 3.851 64.2893 4.21184 65.0308 4.03389C66.9366 3.31769 68.4305 3.65273 70.7373 2.37303C70.3803 2.30877 70.0618 2.3137 70.4023 2.04074C71.2591 1.35365 71.682 1.8551 71.5667 1.04444C71.8907 1.13671 72.2258 1.13945 72.5608 1.09991C72.4454 0.965898 72.352 0.842325 72.2312 0.712158C72.6486 0.73962 73.3791 1.17351 73.7252 0.933497C74.1535 0.98842 74.4337 1.0027 74.8895 1.09991C75.2026 1.16801 77.2512 2.53614 77.7675 1.65353C78.3112 0.717095 79.5305 1.70296 79.8161 2.04074C80.1182 2.40268 80.1786 2.61688 80.3653 3.03759C80.6125 3.58572 81.2606 3.83068 81.7494 4.08937C81.2276 4.6342 82.6062 5.82932 81.4748 5.9161C82.2162 6.83111 82.6281 6.09515 83.4685 6.58011C83.7486 6.74159 84.0671 6.58011 84.4076 6.19291C84.6932 5.86392 85.4622 6.28793 85.7368 6.24839C85.4347 6.0968 85.2699 5.75682 85.3523 5.41795C85.929 5.67499 86.3958 6.48455 87.0659 6.5252C86.5112 6.93712 86.989 7.04971 87.2307 7.57697C87.4559 7.33476 87.7854 7.23919 88.1149 7.24469C87.9392 6.97117 87.6041 6.82123 87.2856 6.96788C87.8678 5.33007 90.559 8.732 91.273 6.80201C91.5641 7.03268 91.8277 7.41165 91.8277 7.79831C91.0808 7.69395 90.5535 8.21518 90.5535 8.62874C90.5535 9.15436 91.6245 9.3367 91.6025 9.68051C92.1353 9.18895 92.4703 8.74353 93.2667 8.79461C93.7885 9.23235 93.8818 8.83855 94.3157 9.01595C94.6178 9.1961 94.7551 9.51245 95.0352 9.5141C94.9638 8.35468 95.5844 8.26186 96.4193 7.96417C96.8257 7.82083 97.9901 7.34739 97.4738 6.74654C97.9461 6.70809 98.4184 6.63779 98.8578 6.46973C99.3576 6.34725 99.6817 5.90292 100.077 5.63929C100.335 5.54537 100.566 5.63929 100.852 5.52835C101.362 5.33282 101.505 5.27405 102.01 5.08567C101.901 5.22407 101.774 5.37676 101.681 5.52835C102.049 5.62391 102.109 5.93697 101.955 6.3033C101.747 6.82342 101.285 6.417 100.906 6.63559C102.576 7.90212 104.575 8.60512 106.388 9.62504C108.2 10.6477 109.694 12.0856 111.259 13.4449C113.044 14.9971 114.742 16.6338 116.461 18.2611C117.493 19.2387 118.943 21.5428 120.393 21.8591C119.685 21.1742 121.563 21.439 121.113 20.4201C120.717 19.5287 121.244 19.7666 121.497 19.5342C122.579 19.3508 122.255 19.7622 122.936 19.8665C123.43 19.9407 123.293 19.872 123.491 20.0324C123.831 20.5091 123.112 21.216 124.21 20.9738C124.963 20.8079 125.171 21.9003 125.819 22.0255C126.155 22.0914 126.506 21.9311 126.814 21.8042C127.313 21.5949 127.967 22.232 128.198 22.0255C128.769 21.5175 128.785 22.2699 129.856 21.3055C130.005 21.1759 130.296 21.1737 130.466 21.1396C130.774 21.0787 130.741 20.7936 131.021 20.7519C133.19 20.4295 135.277 22.5627 136.167 23.7413C136.705 24.4504 137.963 24.3773 138.77 24.6272C139.715 24.9178 139.649 25.5911 140.319 26.2326C140.61 26.5094 140.857 26.6808 141.094 27.0076C141.978 27.4113 143.73 27.1048 144.252 27.5057C145.075 27.9918 145.235 27.1295 145.361 26.9521C145.509 26.7302 146.399 25.908 146.52 26.6753C146.58 27.0647 146.267 27.509 146.965 27.5057C147.344 27.5057 147.635 27.9089 147.959 28.2807C148.277 28.6448 148.634 28.8233 149.013 28.8898C149.398 28.9574 149.705 29.3704 149.843 29.5544C149.255 29.5434 147.52 29.2633 148.124 30.4952C148.574 31.3992 148.316 32.0045 147.465 32.4883C146.734 32.9003 145.531 32.2939 145.361 33.3737C145.042 35.3713 146.355 36.0182 147.075 37.6363C147.717 39.0824 146.108 39.1609 145.636 39.5185C145.125 39.9024 144.74 40.1594 144.197 39.574C143.691 39.0291 142.73 39.2889 142.093 39.3526C140.363 39.5256 139.583 38.8034 138.386 38.4118C137.123 37.9845 138.095 40.573 137.496 41.5116C137.43 42.4893 137.908 43.8376 137.441 45.5528C137.282 46.8825 139.512 45.7253 139.27 47.6564C139.188 48.3034 138.644 47.9217 138.325 47.7673C137.798 47.5092 137.392 47.9222 136.831 47.8223C136.387 47.7415 135.486 47.0166 135.063 47.2137C134.475 47.4878 133.673 47.5004 133.069 47.7119C132.306 47.9777 129.84 48.2358 129.692 48.9295C129.483 49.906 132.108 49.1135 132.015 50.1477C131.872 51.7449 133.322 53.576 133.789 54.1335C134.239 54.669 134.783 55.3495 134.953 56.0157C135.145 56.8016 136.046 57.0185 135.557 57.5101C135.068 57.1603 134.64 57.7029 134.398 58.0637C134.695 58.1868 134.997 58.3416 135.228 58.5619C133.382 58.8804 134.245 59.9201 134.234 60.0014C134.453 60.5254 135.145 61.4904 135.118 62.2159C134.58 61.3696 133.075 60.4348 132.46 60.555C131.323 60.7775 131.158 59.8141 130.246 59.3923C129.483 59.0386 127.863 58.4328 127.033 58.5064C125.171 58.6728 123.436 58.1977 122.991 58.396C122.552 58.5921 122.271 58.2488 121.832 58.1747C121.31 58.0874 120.503 58.1417 120.058 58.396C119.394 58.775 116.916 58.0247 116.96 58.396C117.175 60.3233 111.507 57.0685 110.425 56.7352C110.622 57.0817 108.975 57.5057 108.766 57.6211C107.898 58.0978 108.414 60.0695 108.986 60.6105C108.535 60.7621 107.997 60.3244 107.602 60.1673C105.844 59.9476 106.459 60.1124 105.553 59.5587C104.438 59.1935 103.087 58.7409 101.901 58.7832C100.648 59.3462 100.61 59.0491 99.9618 59.2819C99.8299 59.2819 99.5828 59.785 99.4675 60.2782C99.2533 61.1477 98.8084 61.1081 100.022 61.4409C99.1819 61.3597 98.6931 62.1412 98.4679 62.2708C97.9791 62.5575 97.5836 61.8875 97.1992 62.6586C96.3973 64.2579 95.7327 63.8592 94.5958 64.6517C94.2498 64.8929 93.8599 65.151 93.5413 65.4267C93.1733 65.7452 93.6347 66.3313 93.3216 66.4785C92.7834 66.7306 92.4099 67.349 92.1572 67.7516C91.8057 68.308 92.4758 68.6468 92.5472 69.246C91.8167 69.0478 89.8779 69.089 90.1086 67.9174C90.2459 67.2282 89.6143 66.5092 88.8399 66.4785C87.5657 66.429 84.9843 67.5319 84.1879 66.1462C83.6991 65.3048 83.3696 64.4436 83.0236 63.5445C82.5732 62.3697 81.9416 63.0656 81.2001 62.5476C80.0632 61.7589 80.261 59.3226 80.0907 58.1192C78.7616 58.4773 78.6792 58.0412 77.8224 57.1229C76.7294 55.9514 76.0209 56.0393 75.4937 55.1852C74.0657 53.8846 74.0162 55.1111 72.8408 55.3511C70.9405 55.6504 69.3203 55.1116 67.5792 55.0743C66.651 55.0523 65.9261 55.3423 65.0308 55.5724C63.5149 55.9657 62.6636 54.8705 61.8782 54.1335C60.9446 53.2569 60.0493 52.299 59.1101 51.4763C58.0446 50.5437 58.5389 50.8397 57.2812 50.2026L53.0741 48.1128L53.3158 46.8935C52.8654 46.4816 52.3766 45.6512 51.5912 45.9082C51.9207 46.2322 52.1185 46.2679 52.6951 46.955L52.1733 47.8036L49.3778 46.2608C49.4382 46.0609 48.7627 45.0591 49.5865 45.437C49.2295 45.1975 49.6524 45.4946 49.8172 45.0778L50.8058 44.9437ZM52.1349 43.781C52.1898 43.0286 51.1134 42.4552 51.3056 42.5634C53.1016 42.6073 52.6237 43.5471 52.5194 43.6706L52.1349 43.781ZM108.101 40.0721C108.288 40.3961 109.524 40.6318 109.985 40.5702C110.507 40.501 111.226 39.8854 111.754 40.1276C112.094 40.2808 112.462 40.1995 112.808 40.2934C113.176 40.3939 113.248 40.7724 113.583 40.9025C113.934 41.0404 114.132 40.8037 114.467 40.8471C114.769 40.8855 116.175 41.6929 115.357 40.8471C115.681 41.0893 116.115 40.8471 116.406 41.1793C116.735 41.5501 117.125 41.0541 117.57 40.958C118.152 40.8306 118.701 40.858 119.284 41.0135C119.943 41.1898 120.486 41.51 121.113 41.6775C121.113 41.4007 121.058 41.1239 121.058 40.8471C121.42 40.9393 121.459 40.7246 121.722 40.5702C122.079 40.3571 122.65 40.8339 122.991 40.9025C122.705 40.7921 122.442 40.5829 122.332 40.2934C122.722 40.2715 124.441 39.982 124.21 40.958C124.21 41.0904 123.974 41.1266 123.881 41.1793C123.65 41.309 123.881 41.6358 123.826 41.8439C123.623 42.5189 121.349 41.8769 121.722 42.6189C121.376 42.1487 120.893 42.5079 120.448 42.5079C119.937 42.5079 119.58 42.0652 119.064 42.0652C118.443 42.0652 117.9 41.5457 117.29 41.6226C116.466 41.7258 115.917 41.7319 115.077 41.6226C114.577 41.5578 109.958 41.9104 110.485 40.8471C109.568 40.8745 110.688 41.3787 110.04 41.6226C109.628 41.7774 109.409 42.1707 109.041 41.7884C108.964 42.096 108.81 42.2097 108.546 42.3421C108.305 42.4618 108.414 43.1302 108.381 43.3384C108.233 44.2611 106.553 43.4586 106.882 44.3347C106.986 44.6016 107.003 44.7576 107.052 45.0547C107.107 45.3211 107.118 45.5589 107.107 45.8297C106.975 45.9357 106.849 46.0576 106.717 46.1619C106.624 47.027 107.992 47.7377 107.602 48.6527C107.162 48.8664 107.135 48.3968 107.052 48.0991C106.888 47.5004 106.102 47.289 105.668 46.9369C105.344 46.676 104.295 46.1257 104.114 45.8297C103.9 45.4749 104.471 45.0476 104.004 44.7224C104.641 44.9482 104.685 43.9941 104.394 43.6706C103.74 42.9495 105.026 42.9753 105.443 42.9512C104.515 42.514 106.031 41.4309 106.498 41.2903C107.041 41.1266 106.498 40.6477 106.882 40.3489C107.245 40.0496 107.739 40.4725 108.101 40.0721ZM54.568 40.3489C55.3919 40.2544 55.4413 40.5043 55.5676 40.9025C55.6225 41.0195 55.6225 41.0882 55.6774 41.2348C55.8257 41.5429 56.1828 41.7341 56.5617 41.812C56.6496 41.8285 57.9628 41.6852 57.2977 41.1524C57.5888 40.9141 57.781 40.9174 57.8743 40.908C57.9732 40.897 57.3141 41.8148 57.391 41.7884C57.9567 41.6033 57.9787 42.509 57.5613 42.7293C57.1933 42.9226 56.688 43.4982 56.1772 43.2829C56.3091 43.0758 56.2761 42.916 56.1223 42.7293C55.7543 42.2218 55.952 42.1685 55.4028 42.3975C54.936 42.5898 54.7108 42.1048 54.2934 42.0652C53.9364 42.0323 53.6618 42.2295 53.2993 42.0652C52.8434 41.8609 52.5908 41.2996 53.0741 40.958C53.8815 40.389 54.0078 41.1684 54.3483 41.6775C54.4033 41.482 54.4197 41.2689 54.4032 41.0689C54.8371 41.2798 55.0832 41.399 55.3797 40.9564C55.0612 40.8042 54.7822 40.6718 54.568 40.3489Z" fill="#D2D2D2" stroke="white" stroke-width="0.6" mask="url(#path-1-inside-1_1_6112)"/>
<path d="M53.9024 44.9048L53.8573 44.8758L53.8039 44.8821C53.5454 44.9124 53.3498 44.9266 53.2088 44.9275C53.1804 44.9276 53.1546 44.9272 53.1313 44.9264C53.1511 44.913 53.1735 44.8984 53.199 44.8826L54.5886 44.2792C54.7773 44.3231 54.9062 44.3652 54.988 44.4036C55.0087 44.4133 55.0248 44.4221 55.0373 44.4298C55.0346 44.4318 55.0316 44.4339 55.0284 44.4361C54.9736 44.4741 54.883 44.5176 54.7572 44.565L54.293 44.7398L54.7526 44.846C54.7277 44.8562 54.6998 44.8664 54.6693 44.8762C54.5388 44.9182 54.3761 44.9491 54.2262 44.9552C54.0688 44.9617 53.9565 44.9395 53.9024 44.9048ZM53.0165 45.023C53.0164 45.023 53.0167 45.0224 53.0176 45.0212C53.0169 45.0224 53.0165 45.023 53.0165 45.023Z" fill="#D2D2D2" stroke="white" stroke-width="0.3"/>
</svg>
