<svg width="125" height="50" viewBox="0 0 125 50" fill="none" xmlns="http://www.w3.org/2000/svg">
<mask id="path-1-inside-1_1_6119" fill="white">
<path d="M0.46875 14.2225C1.40244 14.3021 1.04545 13.6909 1.23219 13.1339C1.62763 11.9405 3.72022 13.3547 3.5939 12.5616C4.24199 12.6001 4.43421 12.9005 4.81867 12.6001C4.74178 12.4666 4.66485 12.3354 4.58247 12.2046C5.27999 12.0948 5.61501 11.9405 6.28507 11.69C5.972 11.4989 5.76884 11.1605 5.64801 10.82C5.82376 10.697 6.98261 10.5839 6.86178 10.2697C6.70251 9.86438 7.24622 9.87646 7.52633 9.69522C7.9053 9.44477 8.56986 9.50517 8.828 9.30525C9.13007 9.07018 9.47612 8.57259 10.0913 8.32654C10.4757 8.17385 10.8712 8.31555 11.2007 7.90417C11.4479 7.5977 11.5357 7.32969 11.9422 7.27092C12.409 7.20337 13.8864 7.30936 13.48 6.44542C14.2709 6.43443 14.6004 7.35824 15.0837 7.15557C15.2155 7.09845 15.7263 6.58108 15.8966 6.77057C16.27 7.18249 16.2755 7.60869 16.9236 7.62242C17.7804 7.6389 18.6812 7.62243 19.5325 7.59496C20.4771 7.56201 21.2406 7.69712 21.8338 8.50888C22.9487 10.0462 24.1625 10.1659 25.8981 10.5592C26.8427 10.7728 27.2547 10.3268 28.106 10.3219C28.1884 10.3219 29.0452 10.3993 29.1385 10.4169C30.0612 10.5883 31.2146 10.7629 32.2911 10.9112C33.0216 11.0117 34.1475 11.8811 34.4825 11.288C34.8285 10.675 35.0922 10.652 35.7183 10.5075C36.3224 10.3697 36.2785 9.47716 36.2455 8.99988C36.1906 8.34465 35.7787 8.00414 35.224 7.76578C34.3672 7.39944 34.1091 6.62722 33.3896 6.12248C32.8733 5.76109 32.2032 3.31482 33.3896 3.70313C33.1259 3.14237 33.027 2.5415 33.752 2.32346C34.4715 2.10706 34.3232 1.16514 34.1804 0.618652C35.0647 0.835049 35.8282 1.20633 36.7618 1.53147C37.6571 1.84343 38.5303 2.26524 39.4805 2.39816C40.4526 2.53327 41.1941 2.70847 42.1827 2.83918C43.0725 2.95837 44.4126 3.73992 45.2584 3.51638C46.9171 3.0781 48.5647 4.42976 48.8174 5.50185C48.9822 6.19608 49.806 6.65632 50.207 7.21983C50.7067 7.91845 51.8601 8.33313 52.3599 8.60829C52.9421 8.93069 53.8209 8.66706 54.5898 9.33492C54.8589 9.56889 55.9519 9.72707 56.5121 9.53155C57.2975 9.25858 57.3634 9.64194 58.4454 9.22562C59.2747 8.90542 60.0931 8.61983 60.9224 8.41442C62.5646 8.00744 64.8494 8.56709 66.53 8.72746C67.3703 8.80765 68.0074 9.44422 68.6994 9.87042C69.8034 10.5493 70.6767 10.306 71.874 10.5531C72.4891 10.6805 72.8187 11.2479 73.1977 11.6724C73.681 12.2107 74.2686 12.4276 74.8893 12.7901C75.79 13.3185 76.6358 13.4602 77.3828 13.4118C78.646 13.33 79.4643 13.6519 80.5793 13.8809C81.469 14.0632 82.2544 14.0176 83.1497 14.0566C83.8033 14.0841 84.671 14.3955 85.061 14.0017C85.6926 13.3641 86.1375 13.2064 87.3677 13.1131C87.884 13.0746 89.3834 12.5139 90.2952 12.6094C91.108 12.6951 91.5913 12.527 91.7945 11.7334C92.0197 10.8761 92.6019 10.4482 93.3159 9.95884C93.997 9.49474 94.2825 9.35524 95.1613 9.23221C95.9412 9.12236 96.7431 9.06414 97.7207 9.7364C98.3963 10.1999 99.3299 10.7481 100.148 10.8821C100.873 10.9996 101.307 10.7552 101.928 10.474C102.845 10.0599 104.289 10.7497 104.668 11.166L105.146 17.9534C105.91 18.585 104.581 18.8794 105.015 19.4605C105.437 20.0273 106.344 20.6172 106.805 20.8555C107.464 21.1955 107.717 20.2223 108.458 20.2832C109.408 20.3607 110.293 20.0575 111.21 20.4892C111.957 20.8385 112.435 21.1884 113.039 20.4041C113.555 19.723 113.89 19.3655 114.802 19.4276C116.361 19.5341 118.289 20.6963 119.591 21.5267C121.096 22.4851 122.711 23.3359 123.957 24.6546C125.418 26.2034 123.002 26.1084 122.03 25.9452C121.382 25.8365 120.733 25.2087 120.245 25.6712C120.085 25.8206 119.234 25.5569 119.003 25.5718C118.3 25.6157 117.828 25.9722 117.229 26.2792C116.806 26.4939 115.911 25.9134 115.785 26.4203C115.648 26.9729 115.681 27.2436 114.994 27.2008C114.192 27.1514 113.401 27.0464 113.033 27.9181C112.896 28.2421 112.825 28.5997 112.814 28.9501C112.814 29.3285 113.275 29.697 113.192 29.9986C113.11 30.3215 112.034 31.1047 111.743 31.3475C111.204 31.7989 110.249 31.8105 109.584 31.7951C109.09 31.7841 108.255 31.3458 107.958 31.9329C107.678 32.4822 107.607 33.1423 107.14 33.5971C106.832 33.8975 106.464 33.8228 106.223 34.2155C106.042 34.5127 105.899 34.79 105.509 34.7565C104.668 34.6846 103.779 34.5253 102.96 34.3517C101.576 34.059 99.9836 32.391 98.5336 33.4999C97.9734 33.9255 98.0063 34.6478 98.248 35.2415C98.3963 35.6133 98.1381 35.9577 98.248 36.3257C98.3633 36.7129 98.6984 36.7469 98.9565 36.9979C99.4563 37.49 102.73 39.3118 101.357 39.9088C101.011 40.061 100.505 40.6311 100.225 40.9068C99.8463 41.2847 99.1267 41.3478 98.918 41.9075C98.6214 42.7225 98.3358 43.6562 97.6548 44.2461C97.1001 44.7245 96.1279 44.9387 95.4689 45.3369C94.7219 45.7889 93.3654 45.6593 92.5141 45.6994C91.4156 45.7543 90.4765 45.5093 89.3835 45.6829C87.1042 46.0459 85.1653 46.2859 83.0618 47.3575C82.205 47.7919 81.3317 48.2137 80.5848 48.8212C79.9092 49.3715 80.0301 49.4605 79.2337 49.3874C78.7449 49.3435 78.2176 49.3874 77.8167 49.0623C77.0368 48.4279 76.9709 48.406 75.8724 48.5229C73.8677 48.7349 71.885 47.6991 69.9407 47.3476C69.029 47.1834 68.0404 47.0126 67.2001 46.61C66.2829 46.1711 65.7171 45.2759 64.6626 45.0842C63.7344 44.9156 62.7898 45.0623 61.8561 44.8689C61.0432 44.7031 60.2194 44.5712 59.401 44.4438C58.4454 44.2944 57.7643 44.8288 56.8306 44.9282C55.6168 45.0562 54.3097 44.7162 53.0904 44.6767C51.0363 44.6102 49.0151 43.7826 46.961 44.005C46.3788 44.0676 45.3628 44.3719 44.7916 44.122C44.5279 44.0039 44.3686 43.6897 44.2478 43.4464C44.05 43.0471 43.4954 42.8027 43.1329 42.5957C41.5401 41.6916 40.8096 39.9654 39.4915 38.784C38.9862 38.3304 38.1843 38.2458 38.0964 37.4488C38.014 36.6651 36.3444 37.016 35.6194 36.6788C34.7846 36.2894 33.9004 35.8781 33.1204 35.3826C32.4174 34.935 31.61 34.9757 30.929 34.4347C29.3692 33.2011 27.2546 33.7256 25.4367 33.5438C23.9318 33.3928 22.3885 33.1303 20.9001 32.9248C19.5929 32.7441 17.8683 31.8456 17.6926 30.3545C17.6102 29.6465 18.5219 28.966 18.0167 28.3608C17.3741 27.5935 17.709 26.6126 17.1433 25.9079C16.4129 25.0072 15.8197 24.319 14.8476 23.6725C13.9578 23.0788 13.6997 22.2671 13.0241 21.508C12.5737 21.0049 11.7334 20.7078 11.1787 20.2668C10.6679 19.8548 11.0085 20.4096 10.5636 20.4189C10.2066 20.4244 9.86604 20.1355 9.58594 19.9526C8.84448 19.4687 8.76212 19.6231 7.96574 19.6758C6.95516 19.7423 5.93362 19.0293 5.17568 18.4477C4.588 17.9995 3.98934 17.4811 3.24788 17.3026C2.54487 17.1323 2.20429 17.1713 2.23175 16.4969C2.23175 16.0053 1.03447 15.9246 0.825762 15.4566C0.74887 15.2962 0.990544 15.2908 1.04547 15.1925C1.20474 14.9145 0.600586 14.4307 0.490741 14.2198"/>
</mask>
<path d="M0.46875 14.2225C1.40244 14.3021 1.04545 13.6909 1.23219 13.1339C1.62763 11.9405 3.72022 13.3547 3.5939 12.5616C4.24199 12.6001 4.43421 12.9005 4.81867 12.6001C4.74178 12.4666 4.66485 12.3354 4.58247 12.2046C5.27999 12.0948 5.61501 11.9405 6.28507 11.69C5.972 11.4989 5.76884 11.1605 5.64801 10.82C5.82376 10.697 6.98261 10.5839 6.86178 10.2697C6.70251 9.86438 7.24622 9.87646 7.52633 9.69522C7.9053 9.44477 8.56986 9.50517 8.828 9.30525C9.13007 9.07018 9.47612 8.57259 10.0913 8.32654C10.4757 8.17385 10.8712 8.31555 11.2007 7.90417C11.4479 7.5977 11.5357 7.32969 11.9422 7.27092C12.409 7.20337 13.8864 7.30936 13.48 6.44542C14.2709 6.43443 14.6004 7.35824 15.0837 7.15557C15.2155 7.09845 15.7263 6.58108 15.8966 6.77057C16.27 7.18249 16.2755 7.60869 16.9236 7.62242C17.7804 7.6389 18.6812 7.62243 19.5325 7.59496C20.4771 7.56201 21.2406 7.69712 21.8338 8.50888C22.9487 10.0462 24.1625 10.1659 25.8981 10.5592C26.8427 10.7728 27.2547 10.3268 28.106 10.3219C28.1884 10.3219 29.0452 10.3993 29.1385 10.4169C30.0612 10.5883 31.2146 10.7629 32.2911 10.9112C33.0216 11.0117 34.1475 11.8811 34.4825 11.288C34.8285 10.675 35.0922 10.652 35.7183 10.5075C36.3224 10.3697 36.2785 9.47716 36.2455 8.99988C36.1906 8.34465 35.7787 8.00414 35.224 7.76578C34.3672 7.39944 34.1091 6.62722 33.3896 6.12248C32.8733 5.76109 32.2032 3.31482 33.3896 3.70313C33.1259 3.14237 33.027 2.5415 33.752 2.32346C34.4715 2.10706 34.3232 1.16514 34.1804 0.618652C35.0647 0.835049 35.8282 1.20633 36.7618 1.53147C37.6571 1.84343 38.5303 2.26524 39.4805 2.39816C40.4526 2.53327 41.1941 2.70847 42.1827 2.83918C43.0725 2.95837 44.4126 3.73992 45.2584 3.51638C46.9171 3.0781 48.5647 4.42976 48.8174 5.50185C48.9822 6.19608 49.806 6.65632 50.207 7.21983C50.7067 7.91845 51.8601 8.33313 52.3599 8.60829C52.9421 8.93069 53.8209 8.66706 54.5898 9.33492C54.8589 9.56889 55.9519 9.72707 56.5121 9.53155C57.2975 9.25858 57.3634 9.64194 58.4454 9.22562C59.2747 8.90542 60.0931 8.61983 60.9224 8.41442C62.5646 8.00744 64.8494 8.56709 66.53 8.72746C67.3703 8.80765 68.0074 9.44422 68.6994 9.87042C69.8034 10.5493 70.6767 10.306 71.874 10.5531C72.4891 10.6805 72.8187 11.2479 73.1977 11.6724C73.681 12.2107 74.2686 12.4276 74.8893 12.7901C75.79 13.3185 76.6358 13.4602 77.3828 13.4118C78.646 13.33 79.4643 13.6519 80.5793 13.8809C81.469 14.0632 82.2544 14.0176 83.1497 14.0566C83.8033 14.0841 84.671 14.3955 85.061 14.0017C85.6926 13.3641 86.1375 13.2064 87.3677 13.1131C87.884 13.0746 89.3834 12.5139 90.2952 12.6094C91.108 12.6951 91.5913 12.527 91.7945 11.7334C92.0197 10.8761 92.6019 10.4482 93.3159 9.95884C93.997 9.49474 94.2825 9.35524 95.1613 9.23221C95.9412 9.12236 96.7431 9.06414 97.7207 9.7364C98.3963 10.1999 99.3299 10.7481 100.148 10.8821C100.873 10.9996 101.307 10.7552 101.928 10.474C102.845 10.0599 104.289 10.7497 104.668 11.166L105.146 17.9534C105.91 18.585 104.581 18.8794 105.015 19.4605C105.437 20.0273 106.344 20.6172 106.805 20.8555C107.464 21.1955 107.717 20.2223 108.458 20.2832C109.408 20.3607 110.293 20.0575 111.21 20.4892C111.957 20.8385 112.435 21.1884 113.039 20.4041C113.555 19.723 113.89 19.3655 114.802 19.4276C116.361 19.5341 118.289 20.6963 119.591 21.5267C121.096 22.4851 122.711 23.3359 123.957 24.6546C125.418 26.2034 123.002 26.1084 122.03 25.9452C121.382 25.8365 120.733 25.2087 120.245 25.6712C120.085 25.8206 119.234 25.5569 119.003 25.5718C118.3 25.6157 117.828 25.9722 117.229 26.2792C116.806 26.4939 115.911 25.9134 115.785 26.4203C115.648 26.9729 115.681 27.2436 114.994 27.2008C114.192 27.1514 113.401 27.0464 113.033 27.9181C112.896 28.2421 112.825 28.5997 112.814 28.9501C112.814 29.3285 113.275 29.697 113.192 29.9986C113.11 30.3215 112.034 31.1047 111.743 31.3475C111.204 31.7989 110.249 31.8105 109.584 31.7951C109.09 31.7841 108.255 31.3458 107.958 31.9329C107.678 32.4822 107.607 33.1423 107.14 33.5971C106.832 33.8975 106.464 33.8228 106.223 34.2155C106.042 34.5127 105.899 34.79 105.509 34.7565C104.668 34.6846 103.779 34.5253 102.96 34.3517C101.576 34.059 99.9836 32.391 98.5336 33.4999C97.9734 33.9255 98.0063 34.6478 98.248 35.2415C98.3963 35.6133 98.1381 35.9577 98.248 36.3257C98.3633 36.7129 98.6984 36.7469 98.9565 36.9979C99.4563 37.49 102.73 39.3118 101.357 39.9088C101.011 40.061 100.505 40.6311 100.225 40.9068C99.8463 41.2847 99.1267 41.3478 98.918 41.9075C98.6214 42.7225 98.3358 43.6562 97.6548 44.2461C97.1001 44.7245 96.1279 44.9387 95.4689 45.3369C94.7219 45.7889 93.3654 45.6593 92.5141 45.6994C91.4156 45.7543 90.4765 45.5093 89.3835 45.6829C87.1042 46.0459 85.1653 46.2859 83.0618 47.3575C82.205 47.7919 81.3317 48.2137 80.5848 48.8212C79.9092 49.3715 80.0301 49.4605 79.2337 49.3874C78.7449 49.3435 78.2176 49.3874 77.8167 49.0623C77.0368 48.4279 76.9709 48.406 75.8724 48.5229C73.8677 48.7349 71.885 47.6991 69.9407 47.3476C69.029 47.1834 68.0404 47.0126 67.2001 46.61C66.2829 46.1711 65.7171 45.2759 64.6626 45.0842C63.7344 44.9156 62.7898 45.0623 61.8561 44.8689C61.0432 44.7031 60.2194 44.5712 59.401 44.4438C58.4454 44.2944 57.7643 44.8288 56.8306 44.9282C55.6168 45.0562 54.3097 44.7162 53.0904 44.6767C51.0363 44.6102 49.0151 43.7826 46.961 44.005C46.3788 44.0676 45.3628 44.3719 44.7916 44.122C44.5279 44.0039 44.3686 43.6897 44.2478 43.4464C44.05 43.0471 43.4954 42.8027 43.1329 42.5957C41.5401 41.6916 40.8096 39.9654 39.4915 38.784C38.9862 38.3304 38.1843 38.2458 38.0964 37.4488C38.014 36.6651 36.3444 37.016 35.6194 36.6788C34.7846 36.2894 33.9004 35.8781 33.1204 35.3826C32.4174 34.935 31.61 34.9757 30.929 34.4347C29.3692 33.2011 27.2546 33.7256 25.4367 33.5438C23.9318 33.3928 22.3885 33.1303 20.9001 32.9248C19.5929 32.7441 17.8683 31.8456 17.6926 30.3545C17.6102 29.6465 18.5219 28.966 18.0167 28.3608C17.3741 27.5935 17.709 26.6126 17.1433 25.9079C16.4129 25.0072 15.8197 24.319 14.8476 23.6725C13.9578 23.0788 13.6997 22.2671 13.0241 21.508C12.5737 21.0049 11.7334 20.7078 11.1787 20.2668C10.6679 19.8548 11.0085 20.4096 10.5636 20.4189C10.2066 20.4244 9.86604 20.1355 9.58594 19.9526C8.84448 19.4687 8.76212 19.6231 7.96574 19.6758C6.95516 19.7423 5.93362 19.0293 5.17568 18.4477C4.588 17.9995 3.98934 17.4811 3.24788 17.3026C2.54487 17.1323 2.20429 17.1713 2.23175 16.4969C2.23175 16.0053 1.03447 15.9246 0.825762 15.4566C0.74887 15.2962 0.990544 15.2908 1.04547 15.1925C1.20474 14.9145 0.600586 14.4307 0.490741 14.2198" fill="#D2D2D2"/>
<path d="M1.23219 13.1339L1.51662 13.2293L1.51696 13.2283L1.23219 13.1339ZM3.5939 12.5616L3.61166 12.2622L3.23889 12.2401L3.29763 12.6088L3.5939 12.5616ZM4.81867 12.6001L5.00339 12.8365L5.20867 12.6761L5.07861 12.4503L4.81867 12.6001ZM4.58247 12.2046L4.5358 11.9083L4.08575 11.9792L4.32867 12.3646L4.58247 12.2046ZM6.28507 11.69L6.3901 11.971L6.96755 11.7552L6.44139 11.434L6.28507 11.69ZM5.64801 10.82L5.47597 10.5743L5.28893 10.7052L5.36528 10.9203L5.64801 10.82ZM6.86178 10.2697L7.14179 10.162L7.141 10.16L6.86178 10.2697ZM7.52633 9.69522L7.68931 9.9471L7.69173 9.9455L7.52633 9.69522ZM8.828 9.30525L9.01169 9.54244L9.01224 9.54201L8.828 9.30525ZM10.0913 8.32654L9.98052 8.04772L9.97983 8.04799L10.0913 8.32654ZM11.2007 7.90417L10.9672 7.71585L10.9666 7.71661L11.2007 7.90417ZM11.9422 7.27092L11.9851 7.56783L11.9851 7.56783L11.9422 7.27092ZM13.48 6.44542L13.4759 6.14545L13.0104 6.15191L13.2086 6.57312L13.48 6.44542ZM15.0837 7.15557L15.1997 7.43225L15.203 7.43084L15.0837 7.15557ZM15.8966 6.77057L15.6734 6.97108L15.6743 6.97207L15.8966 6.77057ZM16.9236 7.62242L16.9173 7.92235L16.9179 7.92236L16.9236 7.62242ZM19.5325 7.59496L19.5421 7.89481L19.5429 7.89478L19.5325 7.59496ZM21.8338 8.50888L22.0766 8.33275L22.076 8.33188L21.8338 8.50888ZM25.8981 10.5592L25.8318 10.8517L25.8319 10.8518L25.8981 10.5592ZM28.106 10.3219V10.0219L28.1042 10.0219L28.106 10.3219ZM29.1385 10.4169L29.083 10.7117L29.0838 10.7119L29.1385 10.4169ZM32.2911 10.9112L32.2502 11.2084L32.2502 11.2084L32.2911 10.9112ZM34.4825 11.288L34.7437 11.4355L34.7438 11.4355L34.4825 11.288ZM35.7183 10.5075L35.6516 10.215L35.6509 10.2152L35.7183 10.5075ZM36.2455 8.99988L36.5448 8.97922L36.5445 8.97482L36.2455 8.99988ZM35.224 7.76578L35.3424 7.49015L35.3419 7.48993L35.224 7.76578ZM33.3896 6.12248L33.5619 5.87689L33.5616 5.87671L33.3896 6.12248ZM33.3896 3.70313L33.2962 3.98824L33.9567 4.20444L33.6611 3.57549L33.3896 3.70313ZM33.752 2.32346L33.8384 2.61075V2.61075L33.752 2.32346ZM34.1804 0.618652L34.2517 0.327251L33.7629 0.207635L33.8902 0.694498L34.1804 0.618652ZM36.7618 1.53147L36.8606 1.24818L36.8605 1.24816L36.7618 1.53147ZM39.4805 2.39816L39.4389 2.69526L39.4392 2.6953L39.4805 2.39816ZM42.1827 2.83918L42.2226 2.54184L42.222 2.54177L42.1827 2.83918ZM45.2584 3.51638L45.1818 3.22634L45.1817 3.22634L45.2584 3.51638ZM48.8174 5.50185L48.5254 5.57066L48.5255 5.57113L48.8174 5.50185ZM50.207 7.21983L49.9625 7.39375L49.963 7.39439L50.207 7.21983ZM52.3599 8.60829L52.5052 8.34585L52.5046 8.34549L52.3599 8.60829ZM54.5898 9.33492L54.7866 9.10852L54.7865 9.10843L54.5898 9.33492ZM56.5121 9.53155L56.4136 9.24817L56.4132 9.2483L56.5121 9.53155ZM58.4454 9.22562L58.5531 9.50561L58.5534 9.50549L58.4454 9.22562ZM60.9224 8.41442L60.9945 8.70562L60.9946 8.70561L60.9224 8.41442ZM68.6994 9.87042L68.5421 10.1259L68.5423 10.126L68.6994 9.87042ZM71.874 10.5531L71.9349 10.2593L71.9347 10.2593L71.874 10.5531ZM73.1977 11.6724L72.9739 11.8722L72.9744 11.8729L73.1977 11.6724ZM74.8893 12.7901L75.0411 12.5313L75.0406 12.5311L74.8893 12.7901ZM77.3828 13.4118L77.4022 13.7112L77.4022 13.7112L77.3828 13.4118ZM80.5793 13.8809L80.5189 14.1748L80.519 14.1748L80.5793 13.8809ZM83.1497 14.0566L83.1366 14.3563L83.1371 14.3564L83.1497 14.0566ZM85.061 14.0017L84.8479 13.7906L84.8478 13.7906L85.061 14.0017ZM87.3677 13.1131L87.3455 12.8139L87.345 12.8139L87.3677 13.1131ZM90.2952 12.6094L90.3266 12.3111L90.3264 12.3111L90.2952 12.6094ZM91.7945 11.7334L91.5044 11.6572L91.5039 11.659L91.7945 11.7334ZM93.3159 9.95884L93.147 9.71093L93.1463 9.71138L93.3159 9.95884ZM95.1613 9.23221L95.2029 9.52931L95.2031 9.52928L95.1613 9.23221ZM97.7207 9.7364L97.5508 9.9836L97.551 9.98377L97.7207 9.7364ZM100.148 10.8821L100.1 11.1781L100.1 11.1782L100.148 10.8821ZM101.928 10.474L101.804 10.2006L101.804 10.2008L101.928 10.474ZM104.668 11.166L104.968 11.145L104.96 11.0411L104.89 10.9641L104.668 11.166ZM105.146 17.9534L104.847 17.9745L104.856 18.1027L104.955 18.1846L105.146 17.9534ZM105.015 19.4605L105.255 19.2811L105.255 19.281L105.015 19.4605ZM106.805 20.8555L106.667 21.1221L106.667 21.1222L106.805 20.8555ZM108.458 20.2832L108.434 20.5822L108.434 20.5823L108.458 20.2832ZM111.21 20.4892L111.082 20.7606L111.083 20.761L111.21 20.4892ZM113.039 20.4041L113.276 20.5872L113.278 20.5853L113.039 20.4041ZM114.802 19.4276L114.822 19.1283L114.822 19.1282L114.802 19.4276ZM119.591 21.5267L119.43 21.7796L119.43 21.7797L119.591 21.5267ZM123.957 24.6546L124.176 24.4487L124.175 24.4485L123.957 24.6546ZM122.03 25.9452L121.98 26.2411L122.03 25.9452ZM120.245 25.6712L120.45 25.89L120.451 25.8891L120.245 25.6712ZM119.003 25.5718L119.022 25.8712L119.023 25.8712L119.003 25.5718ZM117.229 26.2792L117.365 26.5467L117.366 26.5461L117.229 26.2792ZM115.785 26.4203L115.494 26.3478L115.494 26.348L115.785 26.4203ZM114.994 27.2008L115.013 26.9014L115.012 26.9014L114.994 27.2008ZM113.033 27.9181L113.309 28.0351L113.31 28.0348L113.033 27.9181ZM112.814 28.9501L112.514 28.9407V28.9501H112.814ZM113.192 29.9986L112.903 29.9195L112.902 29.9244L113.192 29.9986ZM111.743 31.3475L111.55 31.1171L111.55 31.1176L111.743 31.3475ZM109.584 31.7951L109.591 31.4952L109.591 31.4952L109.584 31.7951ZM107.958 31.9329L108.226 32.0692L108.226 32.0682L107.958 31.9329ZM107.14 33.5971L106.931 33.3822L106.93 33.3825L107.14 33.5971ZM106.223 34.2155L105.967 34.0583L105.967 34.0593L106.223 34.2155ZM105.509 34.7565L105.534 34.4576L105.534 34.4576L105.509 34.7565ZM102.96 34.3517L103.023 34.0583L103.022 34.0582L102.96 34.3517ZM98.5336 33.4999L98.7151 33.7388L98.7158 33.7382L98.5336 33.4999ZM98.248 35.2415L98.5266 35.1304L98.5259 35.1284L98.248 35.2415ZM98.248 36.3257L98.5355 36.24L98.5355 36.2399L98.248 36.3257ZM98.9565 36.9979L99.167 36.7842L99.1656 36.7828L98.9565 36.9979ZM101.357 39.9088L101.237 39.6337L101.236 39.6342L101.357 39.9088ZM100.225 40.9068L100.015 40.693L100.013 40.6944L100.225 40.9068ZM98.918 41.9075L98.6369 41.8027L98.6361 41.8049L98.918 41.9075ZM97.6548 44.2461L97.8507 44.4733L97.8512 44.4729L97.6548 44.2461ZM95.4689 45.3369L95.3137 45.0801L95.3135 45.0802L95.4689 45.3369ZM92.5141 45.6994L92.5 45.3997L92.4991 45.3997L92.5141 45.6994ZM89.3835 45.6829L89.3364 45.3866L89.3363 45.3866L89.3835 45.6829ZM83.0618 47.3575L83.1975 47.6251L83.198 47.6248L83.0618 47.3575ZM80.5848 48.8212L80.3955 48.5884L80.3953 48.5886L80.5848 48.8212ZM79.2337 49.3874L79.2611 49.0887L79.2605 49.0886L79.2337 49.3874ZM77.8167 49.0623L77.6274 49.295L77.6277 49.2953L77.8167 49.0623ZM75.8724 48.5229L75.904 48.8213L75.9042 48.8213L75.8724 48.5229ZM69.9407 47.3476L69.9941 47.0524L69.9939 47.0524L69.9407 47.3476ZM67.2001 46.61L67.3297 46.3394L67.3295 46.3394L67.2001 46.61ZM64.6626 45.0842L64.7163 44.7891L64.7162 44.7891L64.6626 45.0842ZM61.8561 44.8689L61.9169 44.5752L61.9161 44.575L61.8561 44.8689ZM59.401 44.4438L59.3547 44.7402L59.3549 44.7402L59.401 44.4438ZM56.8306 44.9282L56.8621 45.2266L56.8624 45.2266L56.8306 44.9282ZM53.0904 44.6767L53.1001 44.3769H53.1001L53.0904 44.6767ZM46.961 44.005L46.9931 44.3033L46.9933 44.3033L46.961 44.005ZM44.7916 44.122L44.6689 44.3958L44.6713 44.3968L44.7916 44.122ZM44.2478 43.4464L43.9789 43.5796L43.9791 43.5799L44.2478 43.4464ZM43.1329 42.5957L43.2817 42.3352L43.281 42.3348L43.1329 42.5957ZM39.4915 38.784L39.2911 39.0072L39.2913 39.0074L39.4915 38.784ZM38.0964 37.4488L37.7981 37.4802L37.7982 37.4817L38.0964 37.4488ZM35.6194 36.6788L35.4926 36.9507L35.4929 36.9508L35.6194 36.6788ZM33.1204 35.3826L32.9593 35.6357L32.9596 35.6359L33.1204 35.3826ZM30.929 34.4347L31.1156 34.1998L31.1151 34.1994L30.929 34.4347ZM25.4367 33.5438L25.4067 33.8423L25.4068 33.8423L25.4367 33.5438ZM20.9001 32.9248L20.859 33.222L20.8591 33.222L20.9001 32.9248ZM17.6926 30.3545L17.3946 30.3891L17.3946 30.3896L17.6926 30.3545ZM18.0167 28.3608L18.2469 28.1685L18.2466 28.1681L18.0167 28.3608ZM17.1433 25.9079L17.3773 25.7201L17.3763 25.7189L17.1433 25.9079ZM14.8476 23.6725L14.6811 23.9221L14.6815 23.9223L14.8476 23.6725ZM13.0241 21.508L13.2482 21.3086L13.2476 21.3079L13.0241 21.508ZM11.1787 20.2668L10.9904 20.5003L10.992 20.5016L11.1787 20.2668ZM10.5636 20.4189L10.5682 20.7189L10.5699 20.7188L10.5636 20.4189ZM9.58594 19.9526L9.74995 19.7014L9.74989 19.7014L9.58594 19.9526ZM7.96574 19.6758L7.98542 19.9752L7.98556 19.9751L7.96574 19.6758ZM5.17568 18.4477L5.35832 18.2097L5.3576 18.2092L5.17568 18.4477ZM3.24788 17.3026L3.17727 17.5941L3.17766 17.5942L3.24788 17.3026ZM2.23175 16.4969L2.53175 16.5091V16.4969H2.23175ZM0.825762 15.4566L1.09985 15.3344L1.09628 15.3269L0.825762 15.4566ZM1.04547 15.1925L0.785169 15.0433L0.783566 15.0461L1.04547 15.1925ZM0.443254 14.5214C0.697561 14.5431 0.921293 14.5246 1.09904 14.4279C1.29707 14.3201 1.38407 14.1468 1.42235 13.9867C1.45593 13.8462 1.45874 13.68 1.46497 13.5666C1.47212 13.4364 1.48355 13.3279 1.51662 13.2293L0.94775 13.0386C0.887453 13.2184 0.873478 13.3952 0.865871 13.5337C0.857336 13.6891 0.856021 13.7751 0.8388 13.8472C0.826277 13.8995 0.815781 13.8989 0.812311 13.9008C0.788561 13.9137 0.706783 13.9417 0.494246 13.9236L0.443254 14.5214ZM1.51696 13.2283C1.55041 13.1273 1.59591 13.0692 1.64165 13.032C1.68913 12.9934 1.7534 12.9641 1.84199 12.9472C2.03034 12.9113 2.27461 12.9398 2.55298 12.9924C2.62023 13.0051 2.68683 13.0187 2.7537 13.0323C2.8198 13.0457 2.88674 13.0593 2.95107 13.0714C3.07627 13.0949 3.20975 13.1162 3.32986 13.1178C3.43804 13.1192 3.60751 13.1071 3.74076 12.9922C3.89773 12.8569 3.91424 12.6656 3.89016 12.5145L3.29763 12.6088C3.30513 12.6559 3.28389 12.5939 3.34905 12.5377C3.39049 12.502 3.41412 12.5188 3.3377 12.5178C3.27322 12.517 3.18335 12.5045 3.06177 12.4817C3.0027 12.4706 2.94038 12.4579 2.87327 12.4443C2.80694 12.4308 2.73637 12.4165 2.66443 12.4029C2.38601 12.3502 2.04089 12.2985 1.7296 12.3579C1.56838 12.3886 1.40527 12.4509 1.26312 12.5664C1.11922 12.6835 1.01283 12.8421 0.947411 13.0396L1.51696 13.2283ZM3.57613 12.8611C3.86532 12.8783 4.01524 12.9471 4.23536 12.9997C4.33999 13.0247 4.46537 13.0451 4.60479 13.0223C4.7476 12.9989 4.87735 12.935 5.00339 12.8365L4.63395 12.3637C4.56775 12.4154 4.5293 12.4266 4.50769 12.4302C4.48269 12.4343 4.44742 12.4335 4.37492 12.4162C4.2408 12.3841 3.97056 12.2835 3.61166 12.2622L3.57613 12.8611ZM5.07861 12.4503C5.00116 12.3159 4.92188 12.1805 4.83627 12.0447L4.32867 12.3646C4.40783 12.4902 4.48239 12.6174 4.55872 12.7499L5.07861 12.4503ZM4.62914 12.501C5.36337 12.3854 5.7306 12.2175 6.3901 11.971L6.18003 11.409C5.49941 11.6634 5.19661 11.8042 4.5358 11.9083L4.62914 12.501ZM6.44139 11.434C6.21113 11.2934 6.04017 11.0281 5.93074 10.7197L5.36528 10.9203C5.4975 11.293 5.73288 11.7044 6.12874 11.9461L6.44139 11.434ZM5.82005 11.0658C5.80137 11.0789 5.79975 11.0748 5.8472 11.0596C5.88563 11.0473 5.93694 11.0335 6.00145 11.0174C6.12316 10.987 6.29357 10.9483 6.4469 10.9055C6.59709 10.8635 6.7704 10.8073 6.90231 10.7281C6.96759 10.6889 7.05051 10.628 7.10732 10.5353C7.17353 10.4272 7.19242 10.2937 7.14179 10.162L6.58178 10.3774C6.56135 10.3243 6.57046 10.263 6.59573 10.2218C6.61161 10.1959 6.62245 10.1963 6.59333 10.2138C6.53644 10.2479 6.43172 10.2867 6.28533 10.3276C6.14208 10.3677 5.99738 10.4 5.85615 10.4352C5.78919 10.452 5.72207 10.4696 5.66396 10.4883C5.61486 10.504 5.53858 10.5304 5.47597 10.5743L5.82005 11.0658ZM7.141 10.16C7.12304 10.1143 7.14473 10.1384 7.12063 10.1813C7.10651 10.2064 7.09704 10.1978 7.15588 10.1704C7.2135 10.1436 7.27931 10.1231 7.38083 10.0877C7.46899 10.0569 7.58614 10.0138 7.6893 9.94709L7.36335 9.44335C7.32646 9.46722 7.2706 9.49063 7.18302 9.52122C7.10879 9.54714 6.99611 9.58297 6.90269 9.62645C6.8105 9.66936 6.67746 9.74502 6.59743 9.88758C6.50744 10.0479 6.52089 10.2225 6.58257 10.3794L7.141 10.16ZM7.69173 9.9455C7.81877 9.86155 8.01289 9.8206 8.27207 9.77716C8.38938 9.7575 8.52314 9.73627 8.64237 9.7062C8.75868 9.67686 8.89738 9.63097 9.01169 9.54244L8.64431 9.06807C8.62955 9.0795 8.58838 9.10102 8.49563 9.12442C8.40582 9.14707 8.30135 9.16388 8.17288 9.18541C7.9405 9.22437 7.61286 9.27844 7.36092 9.44494L7.69173 9.9455ZM9.01224 9.54201C9.10346 9.47102 9.19319 9.38417 9.27721 9.30113C9.36496 9.21439 9.44982 9.12843 9.54503 9.04108C9.73287 8.86876 9.94233 8.70921 10.2027 8.60508L9.97983 8.04799C9.62503 8.18992 9.3539 8.40219 9.13943 8.59895C9.03347 8.69614 8.93674 8.79403 8.85543 8.87439C8.77038 8.95845 8.70357 9.02195 8.64376 9.06849L9.01224 9.54201ZM10.202 8.60535C10.2673 8.57941 10.3384 8.5638 10.4255 8.55058C10.4974 8.53966 10.6245 8.52538 10.7216 8.50728C10.9549 8.46376 11.2113 8.37085 11.4348 8.09173L10.9666 7.71661C10.8606 7.84887 10.7545 7.89079 10.6116 7.91745C10.5205 7.93443 10.4561 7.93907 10.3354 7.95738C10.2299 7.97339 10.1074 7.99732 9.98052 8.04772L10.202 8.60535ZM11.4342 8.0925C11.5029 8.00734 11.5608 7.92444 11.6079 7.85847C11.6575 7.78887 11.6947 7.73883 11.7325 7.69779C11.7949 7.62997 11.8578 7.58624 11.9851 7.56783L11.8992 6.97401C11.6201 7.01437 11.4359 7.13403 11.2909 7.29152C11.225 7.36315 11.1685 7.44125 11.1195 7.50993C11.0679 7.58225 11.0221 7.64777 10.9672 7.71585L11.4342 8.0925ZM11.9851 7.56783C12.0865 7.55316 12.24 7.54856 12.4563 7.53428C12.6565 7.52106 12.8936 7.49983 13.1082 7.44862C13.3107 7.40029 13.5581 7.31112 13.7126 7.11495C13.8941 6.8844 13.8836 6.59864 13.7515 6.31771L13.2086 6.57312C13.2457 6.65216 13.2505 6.69753 13.2499 6.7171C13.2495 6.73155 13.2465 6.73694 13.2411 6.74381C13.2182 6.77286 13.1433 6.8234 12.9689 6.86501C12.8066 6.90373 12.6123 6.92267 12.4168 6.93558C12.2375 6.94742 12.0312 6.95491 11.8992 6.97401L11.9851 7.56783ZM13.4842 6.74539C13.7546 6.74163 13.9555 6.89186 14.2036 7.1015C14.3138 7.19467 14.4541 7.31765 14.6019 7.39463C14.7668 7.48053 14.9735 7.5271 15.1997 7.43223L14.9677 6.87891C14.9523 6.88537 14.9366 6.89247 14.8791 6.8625C14.8044 6.82361 14.7223 6.75432 14.5909 6.64325C14.3556 6.4444 13.9963 6.13822 13.4759 6.14545L13.4842 6.74539ZM15.203 7.43084C15.2516 7.40976 15.2968 7.37831 15.324 7.3589C15.3563 7.33578 15.3921 7.3082 15.4262 7.28173C15.4982 7.22596 15.5713 7.16849 15.6447 7.11847C15.722 7.06579 15.7754 7.03844 15.8046 7.02947C15.839 7.01886 15.7493 7.05555 15.6734 6.97108L16.1197 6.57006C15.9587 6.39084 15.7413 6.42114 15.628 6.45604C15.5094 6.49256 15.3949 6.5626 15.3067 6.62272C15.2147 6.68549 15.1248 6.75623 15.0585 6.80761C15.0236 6.83472 14.9965 6.85545 14.975 6.87082C14.9484 6.88989 14.9488 6.8871 14.9644 6.8803L15.203 7.43084ZM15.6743 6.97207C15.7508 7.05645 15.8106 7.1437 15.8712 7.23792C15.9276 7.32546 15.996 7.43814 16.0738 7.53435C16.157 7.6374 16.2623 7.7375 16.409 7.81024C16.5547 7.88246 16.7221 7.91822 16.9173 7.92235L16.93 7.32249C16.8011 7.31976 16.7248 7.29709 16.6755 7.27266C16.6273 7.24876 16.5863 7.21398 16.5405 7.15728C16.4891 7.09374 16.4457 7.02177 16.3757 6.91311C16.3101 6.81114 16.2291 6.69065 16.1188 6.56906L15.6743 6.97207ZM16.9179 7.92236C17.7819 7.93898 18.6884 7.92235 19.5421 7.89481L19.5228 7.29512C18.674 7.3225 17.7789 7.33881 16.9294 7.32247L16.9179 7.92236ZM19.5429 7.89478C20.0022 7.87876 20.3861 7.90547 20.7178 8.01899C21.0408 8.12955 21.33 8.32795 21.5915 8.68588L22.076 8.33188C21.7444 7.87805 21.3553 7.60302 20.9121 7.45132C20.4775 7.30258 20.0074 7.27821 19.522 7.29515L19.5429 7.89478ZM21.5909 8.68501C22.7844 10.3306 24.1257 10.4652 25.8318 10.8517L25.9644 10.2666C24.1993 9.86665 23.113 9.76177 22.0766 8.33275L21.5909 8.68501ZM25.8319 10.8518C26.3683 10.9731 26.7597 10.9049 27.1128 10.8128C27.4651 10.7209 27.7305 10.6241 28.1077 10.6219L28.1042 10.0219C27.6302 10.0246 27.2639 10.1533 26.9613 10.2322C26.6594 10.3109 26.3725 10.3589 25.9643 10.2665L25.8319 10.8518ZM28.106 10.6219C28.104 10.6219 28.1156 10.6222 28.1497 10.6245C28.1795 10.6266 28.2187 10.6296 28.2648 10.6333C28.3569 10.6407 28.4735 10.6508 28.5909 10.6616C28.7083 10.6723 28.8255 10.6835 28.9187 10.6931C28.9655 10.6979 29.0054 10.7022 29.0359 10.7057C29.0704 10.7098 29.0834 10.7118 29.083 10.7117L29.194 10.1221C29.1292 10.1099 28.8711 10.0846 28.6454 10.064C28.4195 10.0434 28.1649 10.0219 28.106 10.0219V10.6219ZM29.0838 10.7119C30.0132 10.8845 31.1718 11.0598 32.2502 11.2084L32.332 10.614C31.2574 10.466 30.1093 10.2921 29.1933 10.1219L29.0838 10.7119ZM32.2502 11.2084C32.393 11.228 32.5705 11.2884 32.7821 11.374C32.9761 11.4525 33.2211 11.5622 33.4296 11.6406C33.6413 11.7201 33.8799 11.7939 34.1021 11.7935C34.3462 11.793 34.5944 11.6998 34.7437 11.4355L34.2213 11.1404C34.2031 11.1727 34.1849 11.1933 34.1009 11.1935C33.995 11.1937 33.8436 11.1551 33.6406 11.0789C33.4345 11.0014 33.24 10.912 33.0071 10.8178C32.7916 10.7306 32.5545 10.6446 32.332 10.614L32.2502 11.2084ZM34.7438 11.4355C34.9009 11.1572 35.0177 11.0505 35.1371 10.9865C35.2794 10.9102 35.4483 10.8777 35.7857 10.7999L35.6509 10.2152C35.3622 10.2818 35.0862 10.3331 34.8537 10.4576C34.5982 10.5946 34.4102 10.8058 34.2213 11.1405L34.7438 11.4355ZM35.785 10.8C36.2614 10.6913 36.4462 10.2814 36.5149 9.94021C36.5844 9.59539 36.5611 9.21484 36.5448 8.97922L35.9462 9.02055C35.9629 9.26221 35.9781 9.56655 35.9267 9.82177C35.8746 10.0806 35.7793 10.1859 35.6516 10.215L35.785 10.8ZM36.5445 8.97482C36.5117 8.5833 36.369 8.27166 36.144 8.02455C35.9245 7.78344 35.6396 7.61786 35.3424 7.49015L35.1055 8.04141C35.3631 8.15206 35.5615 8.27591 35.7003 8.42846C35.8337 8.575 35.9245 8.76123 35.9466 9.02494L36.5445 8.97482ZM35.3419 7.48993C34.978 7.33436 34.7359 7.09267 34.482 6.7996C34.2354 6.5149 33.9602 6.15636 33.5619 5.87689L33.2173 6.36807C33.5384 6.59334 33.752 6.87328 34.0285 7.19246C34.2978 7.50327 34.6131 7.83086 35.106 8.04162L35.3419 7.48993ZM33.5616 5.87671C33.5429 5.86364 33.5009 5.8227 33.4443 5.73544C33.3905 5.65271 33.3344 5.54518 33.2809 5.41971C33.1735 5.16796 33.0862 4.86618 33.0483 4.59074C33.0082 4.29962 33.0321 4.10006 33.0813 4.0074C33.0996 3.97309 33.1128 3.96859 33.12 3.96625C33.1343 3.96163 33.1852 3.95189 33.2962 3.98824L33.4829 3.41801C33.2974 3.3573 33.1097 3.33905 32.9356 3.3953C32.7544 3.45384 32.6293 3.57957 32.5516 3.72563C32.409 3.99373 32.4102 4.35552 32.4539 4.6726C32.4997 5.00536 32.6026 5.35863 32.729 5.65507C32.7924 5.80369 32.864 5.94353 32.9411 6.06224C33.0152 6.17642 33.1071 6.29098 33.2175 6.36825L33.5616 5.87671ZM33.6611 3.57549C33.5344 3.30618 33.4764 3.08229 33.4974 2.92435C33.5068 2.85423 33.5311 2.80079 33.5727 2.75586C33.6163 2.70871 33.6948 2.65395 33.8384 2.61075L33.6656 2.03617C33.4468 2.10199 33.2657 2.2041 33.1322 2.34847C32.9966 2.49504 32.9263 2.66775 32.9027 2.84521C32.8578 3.18239 32.9811 3.53932 33.1181 3.83077L33.6611 3.57549ZM33.8384 2.61075C34.0842 2.53684 34.2678 2.39522 34.392 2.20932C34.5124 2.02911 34.5671 1.82257 34.5879 1.62642C34.6289 1.23957 34.5442 0.824103 34.4707 0.542807L33.8902 0.694498C33.9595 0.959684 34.0203 1.28842 33.9912 1.56326C33.977 1.69795 33.9428 1.80162 33.8931 1.87597C33.8473 1.94462 33.7796 2.00189 33.6656 2.03617L33.8384 2.61075ZM34.1091 0.910053C34.5326 1.0137 34.9306 1.15522 35.3451 1.31435C35.755 1.47174 36.1905 1.65018 36.6632 1.81479L36.8605 1.24816C36.3995 1.08762 35.9864 0.917851 35.5601 0.754211C35.1384 0.59232 34.7125 0.440004 34.2517 0.327251L34.1091 0.910053ZM36.6631 1.81476C37.5141 2.11131 38.4499 2.55692 39.4389 2.69526L39.5221 2.10105C38.6107 1.97357 37.8 1.57556 36.8606 1.24818L36.6631 1.81476ZM39.4392 2.6953C39.9185 2.76191 40.3411 2.83842 40.7726 2.91563C41.2031 2.99267 41.6416 3.07025 42.1434 3.1366L42.222 2.54177C41.7352 2.4774 41.3086 2.40202 40.8783 2.32501C40.4488 2.24816 40.0146 2.16951 39.5218 2.10101L39.4392 2.6953ZM42.1429 3.13653C42.3368 3.1625 42.5658 3.2264 42.8263 3.31178C42.9552 3.35405 43.0879 3.40024 43.2252 3.44806C43.3615 3.49557 43.5022 3.54467 43.6429 3.59116C43.9231 3.68373 44.2149 3.7699 44.4961 3.81744C44.7756 3.86469 45.0656 3.87763 45.335 3.80643L45.1817 3.22634C45.0282 3.26691 44.8336 3.26598 44.5961 3.22583C44.3604 3.18598 44.1029 3.11122 43.8311 3.02145C43.6959 2.97676 43.5599 2.92934 43.4226 2.88148C43.2862 2.83393 43.1482 2.78591 43.0132 2.74164C42.7457 2.65395 42.4735 2.57546 42.2226 2.54184L42.1429 3.13653ZM45.335 3.80643C46.0632 3.61403 46.8037 3.81101 47.4033 4.1953C48.0108 4.58468 48.4222 5.13278 48.5254 5.57066L49.1094 5.43304C48.9599 4.79882 48.4212 4.13505 47.727 3.69015C47.0249 3.24016 46.1123 2.98045 45.1818 3.22634L45.335 3.80643ZM48.5255 5.57113C48.6292 6.00814 48.9336 6.34853 49.2132 6.62369C49.5166 6.92225 49.7824 7.14058 49.9625 7.39375L50.4514 7.04591C50.2306 6.73558 49.884 6.44203 49.634 6.19603C49.3603 5.92663 49.1703 5.68978 49.1093 5.43257L48.5255 5.57113ZM49.963 7.39439C50.2542 7.80141 50.7182 8.10632 51.1398 8.33624C51.3544 8.45326 51.5675 8.55579 51.7542 8.64447C51.9453 8.73531 52.1003 8.80782 52.2152 8.8711L52.5046 8.34549C52.3696 8.27118 52.1929 8.18867 52.0117 8.10254C51.8259 8.01424 51.6258 7.91785 51.4271 7.80948C51.0221 7.58861 50.6595 7.33687 50.4509 7.04528L49.963 7.39439ZM52.2146 8.87074C52.4022 8.97466 52.6037 9.02589 52.7937 9.05937C52.9694 9.09033 53.193 9.11382 53.3606 9.13878C53.7278 9.19347 54.0724 9.28286 54.3931 9.56141L54.7865 9.10843C54.3383 8.71912 53.859 8.60639 53.449 8.54533C53.228 8.51242 53.0747 8.49963 52.8978 8.46847C52.7353 8.43984 52.6087 8.40313 52.5052 8.34585L52.2146 8.87074ZM54.393 9.56132C54.5102 9.66328 54.6802 9.73168 54.8388 9.77922C55.0076 9.82982 55.2045 9.86844 55.4067 9.89224C55.8008 9.93861 56.2675 9.93467 56.6109 9.81479L56.4132 9.2483C56.1965 9.32394 55.8366 9.33868 55.4768 9.29635C55.3022 9.2758 55.1403 9.24323 55.011 9.20448C54.8715 9.16266 54.8039 9.12354 54.7866 9.10852L54.393 9.56132ZM56.6106 9.81492C56.9435 9.69921 57.1035 9.72234 57.3559 9.73211C57.6432 9.74324 57.9711 9.72956 58.5531 9.50561L58.3377 8.94563C57.8377 9.138 57.5917 9.1408 57.3791 9.13256C57.1318 9.12298 56.8661 9.09091 56.4136 9.24817L56.6106 9.81492ZM58.5534 9.50549C59.3776 9.18727 60.1827 8.90668 60.9945 8.70562L60.8503 8.12322C60.0034 8.33297 59.1718 8.62357 58.3373 8.94576L58.5534 9.50549ZM60.9946 8.70561C61.7612 8.51561 62.6983 8.54794 63.6788 8.65637C64.1662 8.71025 64.6553 8.78173 65.1329 8.85059C65.608 8.91909 66.073 8.98522 66.5015 9.02611L66.5585 8.42882C66.1467 8.38952 65.6959 8.32555 65.2186 8.25673C64.7438 8.18827 64.244 8.1152 63.7448 8.06C62.7522 7.95025 61.7258 7.90624 60.8503 8.12322L60.9946 8.70561ZM66.5015 9.02611C66.8532 9.05966 67.1753 9.2105 67.5097 9.42255C67.6771 9.5287 67.841 9.64572 68.013 9.76789C68.1824 9.88821 68.3596 10.0134 68.5421 10.1259L68.8568 9.61498C68.6933 9.51432 68.5314 9.40014 68.3604 9.27872C68.1921 9.15916 68.0144 9.03212 67.831 8.91583C67.4638 8.68299 67.0472 8.47545 66.5585 8.42882L66.5015 9.02611ZM68.5423 10.126C69.1447 10.4964 69.6864 10.6141 70.2193 10.6719C70.7658 10.7312 71.231 10.7267 71.8134 10.8469L71.9347 10.2593C71.3197 10.1323 70.7496 10.1259 70.2841 10.0754C69.805 10.0234 69.3582 9.92332 68.8566 9.61487L68.5423 10.126ZM71.8132 10.8469C72.0394 10.8937 72.225 11.0224 72.4102 11.2113C72.5033 11.3063 72.592 11.412 72.6851 11.5261C72.7755 11.6369 72.8734 11.7596 72.9739 11.8722L73.4215 11.4727C73.3325 11.3729 73.247 11.2656 73.1498 11.1466C73.0554 11.0309 72.9522 10.9072 72.8386 10.7913C72.6105 10.5586 72.3237 10.3399 71.9349 10.2593L71.8132 10.8469ZM72.9744 11.8729C73.2443 12.1734 73.5405 12.3805 73.8404 12.5561C73.9891 12.6431 74.1414 12.724 74.2902 12.8031C74.4407 12.8831 74.5887 12.962 74.738 13.0492L75.0406 12.5311C74.8795 12.437 74.7213 12.3528 74.572 12.2734C74.4209 12.193 74.2798 12.118 74.1436 12.0383C73.8736 11.8802 73.6343 11.7097 73.4209 11.472L72.9744 11.8729ZM74.7375 13.0489C75.6928 13.6093 76.5988 13.7632 77.4022 13.7112L77.3634 13.1125C76.6728 13.1572 75.8872 13.0277 75.0411 12.5313L74.7375 13.0489ZM77.4022 13.7112C78.6118 13.6329 79.3575 13.9362 80.5189 14.1748L80.6396 13.587C79.5711 13.3675 78.6802 13.0272 77.3634 13.1125L77.4022 13.7112ZM80.519 14.1748C81.4399 14.3635 82.277 14.3189 83.1366 14.3563L83.1627 13.7569C82.2319 13.7164 81.4982 13.763 80.6395 13.587L80.519 14.1748ZM83.1371 14.3564C83.2825 14.3625 83.4448 14.3847 83.6247 14.4117C83.799 14.4378 83.9921 14.4688 84.1766 14.4859C84.5224 14.5178 84.972 14.518 85.2742 14.2128L84.8478 13.7906C84.7601 13.8792 84.5808 13.9206 84.2318 13.8884C84.0689 13.8734 83.8981 13.846 83.7137 13.8183C83.535 13.7915 83.3436 13.7645 83.1623 13.7569L83.1371 14.3564ZM85.2741 14.2128C85.572 13.9122 85.8061 13.7441 86.0965 13.6337C86.3973 13.5193 86.779 13.4586 87.3904 13.4122L87.345 12.8139C86.7261 12.8609 86.2703 12.9257 85.8832 13.0729C85.4857 13.224 85.1816 13.4536 84.8479 13.7906L85.2741 14.2128ZM87.39 13.4122C87.5487 13.4004 87.7639 13.3513 87.9871 13.2959C88.2242 13.237 88.4754 13.1695 88.7533 13.1027C89.3105 12.9687 89.866 12.8661 90.2639 12.9078L90.3264 12.3111C89.8126 12.2572 89.1625 12.3872 88.613 12.5193C88.3376 12.5855 88.0601 12.6595 87.8424 12.7136C87.6107 12.7711 87.4449 12.8065 87.3455 12.8139L87.39 13.4122ZM90.2637 12.9078C90.6857 12.9522 91.0842 12.9399 91.4133 12.7666C91.7599 12.5841 91.9703 12.2565 92.0852 11.8078L91.5039 11.659C91.4156 12.0039 91.2828 12.1572 91.1337 12.2357C90.967 12.3235 90.7175 12.3523 90.3266 12.3111L90.2637 12.9078ZM92.0847 11.8096C92.2787 11.071 92.7682 10.6979 93.4855 10.2063L93.1463 9.71138C92.4356 10.1985 91.7608 10.6811 91.5044 11.6572L92.0847 11.8096ZM93.4849 10.2067C93.8237 9.97584 94.0429 9.84088 94.2774 9.74554C94.5102 9.65092 94.7731 9.58948 95.2029 9.52931L95.1197 8.93511C94.6707 8.99796 94.3514 9.06779 94.0515 9.1897C93.7533 9.3109 93.4892 9.47774 93.147 9.71093L93.4849 10.2067ZM95.2031 9.52928C95.9562 9.42321 96.6656 9.37493 97.5508 9.9836L97.8907 9.4892C96.8206 8.75336 95.9262 8.82152 95.1194 8.93514L95.2031 9.52928ZM97.551 9.98377C98.2288 10.4488 99.2102 11.0325 100.1 11.1781L100.197 10.586C99.4497 10.4637 98.5638 9.95106 97.8905 9.48904L97.551 9.98377ZM100.1 11.1782C100.931 11.3129 101.451 11.0196 102.052 10.7473L101.804 10.2008C101.164 10.4909 100.816 10.6864 100.196 10.586L100.1 11.1782ZM102.051 10.7474C102.407 10.5867 102.908 10.6291 103.406 10.7935C103.903 10.9577 104.305 11.2128 104.447 11.368L104.89 10.9641C104.653 10.703 104.143 10.405 103.594 10.2237C103.046 10.0427 102.366 9.94718 101.804 10.2006L102.051 10.7474ZM104.369 11.1871L104.847 17.9745L105.446 17.9323L104.968 11.145L104.369 11.1871ZM104.955 18.1846C105.031 18.2475 105.064 18.2926 105.078 18.3181C105.09 18.3394 105.088 18.3471 105.088 18.3487C105.086 18.3709 105.067 18.419 104.971 18.5369C104.9 18.6244 104.757 18.7811 104.684 18.9494C104.643 19.0443 104.615 19.1579 104.629 19.2855C104.642 19.4136 104.694 19.532 104.774 19.64L105.255 19.281C105.227 19.2437 105.226 19.2258 105.225 19.2241C105.225 19.2219 105.224 19.2123 105.235 19.188C105.265 19.1179 105.325 19.0526 105.437 18.9149C105.524 18.8076 105.667 18.6274 105.686 18.3986C105.708 18.1359 105.567 17.9125 105.338 17.7223L104.955 18.1846ZM104.774 19.6399C105.012 19.9585 105.372 20.2684 105.718 20.5228C106.067 20.7797 106.422 20.9952 106.667 21.1221L106.943 20.589C106.727 20.4775 106.398 20.2789 106.073 20.0396C105.745 19.7978 105.44 19.5293 105.255 19.2811L104.774 19.6399ZM106.667 21.1222C106.901 21.2429 107.124 21.2545 107.332 21.1857C107.518 21.1239 107.673 21.0017 107.79 20.907C108.056 20.6909 108.206 20.5635 108.434 20.5822L108.483 19.9843C107.969 19.942 107.622 20.2708 107.412 20.441C107.29 20.5396 107.212 20.5931 107.143 20.6162C107.094 20.6324 107.038 20.6382 106.943 20.5889L106.667 21.1222ZM108.434 20.5823C108.929 20.6226 109.439 20.5644 109.854 20.5533C110.29 20.5416 110.685 20.5739 111.082 20.7606L111.338 20.2178C110.817 19.9728 110.312 19.9408 109.838 19.9535C109.345 19.9667 108.938 20.0213 108.483 19.9842L108.434 20.5823ZM111.083 20.761C111.253 20.8406 111.444 20.9378 111.606 21.0084C111.774 21.082 111.955 21.1481 112.144 21.1698C112.34 21.1923 112.54 21.1662 112.739 21.0647C112.933 20.966 113.108 20.8052 113.276 20.5872L112.801 20.221C112.667 20.3951 112.556 20.4847 112.467 20.5301C112.383 20.5726 112.304 20.5842 112.212 20.5737C112.112 20.5623 111.996 20.5244 111.846 20.4587C111.689 20.39 111.54 20.3125 111.337 20.2175L111.083 20.761ZM113.278 20.5853C113.539 20.2407 113.722 20.0241 113.933 19.8903C114.127 19.7665 114.371 19.6989 114.781 19.7269L114.822 19.1282C114.321 19.0941 113.941 19.1742 113.611 19.384C113.297 19.5837 113.055 19.8864 112.8 20.2228L113.278 20.5853ZM114.781 19.7269C115.504 19.7762 116.334 20.0736 117.162 20.4755C117.985 20.8753 118.781 21.3656 119.43 21.7796L119.752 21.2738C119.1 20.8574 118.28 20.3514 117.424 19.9358C116.573 19.5224 115.66 19.1855 114.822 19.1283L114.781 19.7269ZM119.43 21.7797C120.964 22.7565 122.526 23.5775 123.739 24.8607L124.175 24.4485C122.895 23.0943 121.228 22.2137 119.752 21.2737L119.43 21.7797ZM123.739 24.8604C123.91 25.0416 124.011 25.1851 124.065 25.2944C124.119 25.4033 124.117 25.46 124.114 25.4806C124.11 25.5023 124.078 25.5835 123.826 25.6526C123.596 25.716 123.283 25.7377 122.953 25.7303C122.628 25.723 122.309 25.6879 122.079 25.6494L121.98 26.2411C122.236 26.2841 122.584 26.3221 122.94 26.3301C123.291 26.338 123.673 26.3173 123.986 26.2311C124.277 26.1509 124.636 25.9756 124.705 25.5846C124.737 25.3989 124.693 25.2101 124.603 25.0284C124.513 24.8471 124.37 24.6547 124.176 24.4487L123.739 24.8604ZM122.079 25.6494C121.953 25.6281 121.816 25.5796 121.662 25.5149C121.521 25.4557 121.34 25.3715 121.182 25.3127C121.017 25.2518 120.827 25.1974 120.629 25.2038C120.419 25.2105 120.216 25.2852 120.038 25.4533L120.451 25.8891C120.518 25.8259 120.579 25.8057 120.648 25.8035C120.73 25.8008 120.833 25.8235 120.973 25.8753C121.119 25.9293 121.252 25.9935 121.43 26.0682C121.595 26.1372 121.783 26.208 121.98 26.2411L122.079 25.6494ZM120.039 25.4524C120.081 25.4137 120.116 25.4113 120.101 25.4141C120.091 25.4158 120.068 25.4181 120.026 25.4167C119.942 25.414 119.831 25.3987 119.702 25.3763C119.555 25.3508 119.466 25.3317 119.324 25.3066C119.219 25.2879 119.085 25.2659 118.984 25.2724L119.023 25.8712C119.021 25.8713 119.025 25.8709 119.037 25.8716C119.047 25.8722 119.062 25.8735 119.081 25.8758C119.118 25.8803 119.165 25.8877 119.22 25.8975C119.308 25.913 119.485 25.9476 119.599 25.9675C119.732 25.9906 119.878 26.0122 120.006 26.0164C120.07 26.0185 120.141 26.0168 120.209 26.0043C120.272 25.9928 120.369 25.966 120.45 25.89L120.039 25.4524ZM118.985 25.2724C118.199 25.3214 117.639 25.7322 117.092 26.0122L117.366 26.5461C118.018 26.2121 118.401 25.91 119.022 25.8712L118.985 25.2724ZM117.094 26.0117C117.069 26.0241 117.008 26.0371 116.876 26.0224C116.746 26.0077 116.617 25.9765 116.451 25.9453C116.309 25.9186 116.12 25.8879 115.949 25.9197C115.857 25.9369 115.755 25.9747 115.667 26.0528C115.577 26.1324 115.522 26.2355 115.494 26.3478L116.076 26.4929C116.08 26.4785 116.08 26.4888 116.065 26.5023C116.051 26.5142 116.043 26.5125 116.059 26.5095C116.106 26.5009 116.191 26.5069 116.341 26.535C116.467 26.5588 116.65 26.6007 116.81 26.6187C116.969 26.6365 117.178 26.6416 117.365 26.5467L117.094 26.0117ZM115.494 26.348C115.476 26.4208 115.46 26.4887 115.447 26.5482C115.433 26.6093 115.422 26.6598 115.41 26.7051C115.385 26.7995 115.366 26.8392 115.352 26.8584C115.346 26.8662 115.34 26.8761 115.304 26.8867C115.256 26.9005 115.17 26.9112 115.013 26.9014L114.975 27.5002C115.34 27.523 115.648 27.4739 115.839 27.2093C115.92 27.097 115.961 26.9682 115.99 26.8577C116.005 26.8005 116.019 26.7396 116.032 26.6803C116.046 26.6194 116.06 26.558 116.076 26.4927L115.494 26.348ZM115.012 26.9014C114.635 26.8781 114.182 26.833 113.786 26.9212C113.354 27.0173 112.981 27.27 112.757 27.8014L113.31 28.0348C113.453 27.6945 113.66 27.5638 113.916 27.5069C114.208 27.442 114.551 27.4741 114.976 27.5002L115.012 26.9014ZM112.757 27.801C112.604 28.1627 112.526 28.5573 112.514 28.9407L113.113 28.9595C113.123 28.6421 113.188 28.3215 113.309 28.0351L112.757 27.801ZM112.514 28.9501C112.514 29.1045 112.56 29.2429 112.611 29.3551C112.661 29.4659 112.726 29.5729 112.776 29.6562C112.83 29.7479 112.867 29.8126 112.888 29.8678C112.908 29.9214 112.9 29.9307 112.903 29.9195L113.482 30.0776C113.526 29.9156 113.491 29.7658 113.448 29.6537C113.406 29.5431 113.343 29.4355 113.292 29.3501C113.236 29.2563 113.191 29.1813 113.158 29.1072C113.125 29.0344 113.114 28.9849 113.114 28.9501H112.514ZM112.902 29.9244C112.905 29.911 112.905 29.9226 112.875 29.9644C112.848 30.0018 112.808 30.0487 112.755 30.1043C112.649 30.2154 112.507 30.3431 112.352 30.4738C112.198 30.6036 112.037 30.7318 111.895 30.8439C111.756 30.9534 111.628 31.0527 111.55 31.1171L111.935 31.5779C112.003 31.5208 112.119 31.4312 112.266 31.3155C112.41 31.2024 112.577 31.069 112.739 30.9323C112.9 30.7965 113.061 30.6527 113.189 30.5186C113.253 30.4515 113.313 30.3824 113.362 30.3142C113.408 30.2504 113.459 30.1668 113.483 30.0727L112.902 29.9244ZM111.55 31.1176C111.343 31.2911 111.034 31.3954 110.667 31.4495C110.304 31.503 109.921 31.5028 109.591 31.4952L109.577 32.095C109.912 32.1027 110.338 32.1045 110.754 32.0431C111.166 31.9825 111.604 31.8553 111.935 31.5773L111.55 31.1176ZM109.591 31.4952C109.501 31.4932 109.384 31.4708 109.228 31.4364C109.082 31.4045 108.905 31.3629 108.733 31.3419C108.562 31.3211 108.364 31.3158 108.176 31.3767C107.974 31.442 107.802 31.5774 107.691 31.7977L108.226 32.0682C108.263 31.9949 108.307 31.965 108.36 31.9476C108.427 31.926 108.524 31.9208 108.661 31.9375C108.797 31.9541 108.939 31.9874 109.099 32.0224C109.247 32.055 109.42 32.0915 109.577 32.095L109.591 31.4952ZM107.691 31.7966C107.542 32.0893 107.438 32.435 107.339 32.6932C107.233 32.9709 107.117 33.2007 106.931 33.3822L107.349 33.812C107.63 33.5388 107.783 33.2111 107.899 32.9077C108.023 32.5848 108.095 32.3258 108.226 32.0692L107.691 31.7966ZM106.93 33.3825C106.827 33.4836 106.723 33.5177 106.54 33.5954C106.359 33.6721 106.137 33.7827 105.967 34.0583L106.478 34.3728C106.55 34.2557 106.634 34.2073 106.774 34.148C106.911 34.0898 107.146 34.011 107.35 33.8117L106.93 33.3825ZM105.967 34.0593C105.865 34.2264 105.808 34.3251 105.737 34.3931C105.688 34.4394 105.639 34.4666 105.534 34.4576L105.483 35.0554C105.769 35.08 105.986 34.9852 106.151 34.827C106.294 34.6903 106.4 34.5018 106.479 34.3718L105.967 34.0593ZM105.534 34.4576C104.712 34.3872 103.836 34.2307 103.023 34.0583L102.898 34.6452C103.722 34.8199 104.625 34.982 105.483 35.0554L105.534 34.4576ZM103.022 34.0582C102.716 33.9934 102.386 33.8493 102.021 33.67C101.668 33.4965 101.275 33.2856 100.888 33.1235C100.104 32.7953 99.2071 32.6071 98.3514 33.2616L98.7158 33.7382C99.3101 33.2838 99.935 33.3752 100.656 33.6769C101.021 33.8298 101.376 34.0215 101.756 34.2084C102.125 34.3896 102.513 34.5637 102.898 34.6452L103.022 34.0582ZM98.3521 33.261C97.6251 33.8134 97.7119 34.7202 97.9701 35.3546L98.5259 35.1284C98.3007 34.5753 98.3217 34.0377 98.7151 33.7388L98.3521 33.261ZM97.9693 35.3526C98.0082 35.4501 98 35.55 97.9672 35.7317C97.9383 35.8916 97.8812 36.1457 97.9605 36.4115L98.5355 36.2399C98.5049 36.1377 98.522 36.0356 98.5576 35.8384C98.5893 35.6629 98.636 35.4047 98.5266 35.1304L97.9693 35.3526ZM97.9605 36.4113C98.0451 36.6956 98.2178 36.8512 98.3806 36.9613C98.4453 37.0052 98.5434 37.0633 98.5913 37.0941C98.6531 37.1337 98.7035 37.1704 98.7474 37.213L99.1656 36.7828C99.0805 36.7 98.9922 36.6383 98.915 36.5889C98.8239 36.5305 98.7825 36.5089 98.7169 36.4644C98.6187 36.398 98.5662 36.343 98.5355 36.24L97.9605 36.4113ZM98.746 37.2117C98.8264 37.2908 98.9493 37.3851 99.0828 37.4823C99.2203 37.5825 99.387 37.6985 99.5633 37.8221C99.9198 38.072 100.323 38.3578 100.667 38.6444C101.022 38.9406 101.268 39.2022 101.359 39.3975C101.401 39.4881 101.389 39.5218 101.388 39.5262C101.386 39.5305 101.367 39.5771 101.237 39.6337L101.476 40.184C101.689 40.0914 101.868 39.9504 101.949 39.7389C102.029 39.5275 101.983 39.317 101.903 39.1452C101.751 38.8156 101.405 38.4791 101.051 38.1837C100.685 37.8787 100.263 37.5795 99.9077 37.3308C99.7283 37.205 99.5679 37.0933 99.4361 36.9973C99.3003 36.8984 99.2116 36.828 99.167 36.7842L98.746 37.2117ZM101.236 39.6342C101.008 39.7344 100.76 39.9515 100.559 40.1449C100.362 40.3337 100.132 40.578 100.015 40.693L100.436 41.1206C100.599 40.9599 100.762 40.7813 100.974 40.5781C101.181 40.3794 101.359 40.2355 101.477 40.1835L101.236 39.6342ZM100.013 40.6944C99.948 40.7596 99.8604 40.8184 99.7466 40.8806C99.6156 40.9523 99.5236 40.9919 99.3684 41.0733C99.1053 41.2114 98.7828 41.4114 98.6369 41.8027L99.1991 42.0123C99.2619 41.8439 99.4036 41.7325 99.6472 41.6046C99.7453 41.5531 99.9174 41.4711 100.034 41.4071C100.169 41.3338 100.313 41.2429 100.437 41.1192L100.013 40.6944ZM98.6361 41.8049C98.4838 42.2234 98.3452 42.6404 98.1594 43.0329C97.9754 43.4217 97.7555 43.7619 97.4584 44.0193L97.8512 44.4729C98.2351 44.1404 98.4985 43.7189 98.7017 43.2896C98.9032 42.864 99.0556 42.4067 99.1999 42.0101L98.6361 41.8049ZM97.4589 44.0189C97.2227 44.2225 96.884 44.38 96.4864 44.5443C96.1074 44.7009 95.6686 44.8657 95.3137 45.0801L95.624 45.5936C95.9282 45.4098 96.305 45.2685 96.7155 45.0988C97.1074 44.9369 97.5321 44.7481 97.8507 44.4733L97.4589 44.0189ZM95.3135 45.0802C95.0083 45.2649 94.5479 45.3442 94.0144 45.373C93.7536 45.3871 93.4878 45.3888 93.2292 45.3894C92.974 45.3899 92.7212 45.3893 92.5 45.3997L92.5282 45.999C92.7326 45.9894 92.9686 45.9899 93.2305 45.9894C93.489 45.9888 93.7687 45.9872 94.0468 45.9721C94.5911 45.9427 95.1825 45.8608 95.6242 45.5935L95.3135 45.0802ZM92.4991 45.3997C91.9718 45.4261 91.4856 45.3806 90.966 45.3473C90.4528 45.3143 89.9173 45.2944 89.3364 45.3866L89.4305 45.9792C89.9426 45.8979 90.4232 45.9136 90.9275 45.946C91.4252 45.978 91.9579 46.0275 92.5291 45.999L92.4991 45.3997ZM89.3363 45.3866C87.0702 45.7476 85.0798 45.9928 82.9256 47.0902L83.198 47.6248C85.2509 46.5791 87.1382 46.3443 89.4307 45.9792L89.3363 45.3866ZM82.9261 47.0899C82.0797 47.5191 81.1729 47.9562 80.3955 48.5884L80.774 49.0539C81.4905 48.4713 82.3303 48.0648 83.1975 47.6251L82.9261 47.0899ZM80.3953 48.5886C80.2206 48.7309 80.0949 48.8455 80.0024 48.9269C79.9047 49.013 79.8556 49.0509 79.8135 49.0733C79.7505 49.1068 79.6721 49.1264 79.2611 49.0887L79.2063 49.6862C79.5917 49.7215 79.851 49.7331 80.0956 49.6029C80.2073 49.5433 80.3044 49.4604 80.3989 49.3773C80.4986 49.2895 80.6112 49.1866 80.7742 49.0538L80.3953 48.5886ZM79.2605 49.0886C79.1319 49.0771 78.9986 49.0711 78.8796 49.0643C78.7567 49.0573 78.6432 49.049 78.5352 49.0334C78.3205 49.0024 78.148 48.9447 78.0057 48.8293L77.6277 49.2953C77.8864 49.505 78.1779 49.588 78.4493 49.6272C78.5843 49.6468 78.7193 49.6561 78.8453 49.6633C78.9751 49.6708 79.091 49.6758 79.2068 49.6862L79.2605 49.0886ZM78.006 48.8296C77.6302 48.5239 77.3682 48.3123 77.0447 48.2219C76.7263 48.133 76.371 48.1681 75.8406 48.2246L75.9042 48.8213C76.4723 48.7608 76.6991 48.7484 76.8833 48.7998C77.0624 48.8498 77.2233 48.9663 77.6274 49.295L78.006 48.8296ZM75.8409 48.2246C74.8971 48.3244 73.9454 48.1317 72.9646 47.8577C72.0029 47.5889 70.9841 47.2314 69.9941 47.0524L69.8873 47.6428C70.8416 47.8153 71.7863 48.1514 72.8032 48.4355C73.801 48.7143 74.843 48.9335 75.904 48.8213L75.8409 48.2246ZM69.9939 47.0524C69.0715 46.8862 68.1263 46.7211 67.3297 46.3394L67.0704 46.8805C67.9545 47.3041 68.9865 47.4806 69.8875 47.6428L69.9939 47.0524ZM67.3295 46.3394C66.9094 46.1384 66.5776 45.8379 66.1674 45.5179C65.7708 45.2085 65.318 44.8984 64.7163 44.7891L64.609 45.3794C65.0618 45.4617 65.4191 45.6951 65.7983 45.991C66.1639 46.2762 66.5735 46.6428 67.0706 46.8806L67.3295 46.3394ZM64.7162 44.7891C64.2237 44.6996 63.7298 44.6944 63.2669 44.6859C62.7955 44.6773 62.3526 44.6654 61.9169 44.5752L61.7952 45.1627C62.2933 45.2658 62.7895 45.2773 63.2559 45.2858C63.7308 45.2945 64.1733 45.3003 64.609 45.3794L64.7162 44.7891ZM61.9161 44.575C61.0956 44.4076 60.2656 44.2748 59.4472 44.1474L59.3549 44.7402C60.1732 44.8677 60.9908 44.9986 61.7961 45.1629L61.9161 44.575ZM59.4474 44.1474C58.9003 44.0619 58.4374 44.175 58.0179 44.3065C57.5866 44.4416 57.2269 44.5844 56.7989 44.6299L56.8624 45.2266C57.368 45.1727 57.8157 44.9986 58.1973 44.879C58.5906 44.7558 58.9462 44.6764 59.3547 44.7402L59.4474 44.1474ZM56.7992 44.6299C56.2276 44.6902 55.6255 44.6409 54.9975 44.5673C54.3803 44.495 53.7265 44.3972 53.1001 44.3769L53.0807 44.9765C53.6735 44.9958 54.283 45.0877 54.9277 45.1633C55.5614 45.2375 56.2198 45.2943 56.8621 45.2266L56.7992 44.6299ZM53.1001 44.3769C52.1019 44.3446 51.1137 44.1276 50.08 43.9375C49.0588 43.7496 48.0027 43.5904 46.9287 43.7067L46.9933 44.3033C47.9734 44.1971 48.9549 44.3406 49.9714 44.5276C50.9753 44.7122 52.0247 44.9424 53.0807 44.9765L53.1001 44.3769ZM46.9289 43.7067C46.7707 43.7237 46.5869 43.7566 46.4037 43.7896C46.2162 43.8232 46.0238 43.858 45.8328 43.8833C45.4348 43.9359 45.1138 43.9355 44.9118 43.8471L44.6713 44.3968C45.0406 44.5584 45.5131 44.5308 45.9115 44.4781C46.1187 44.4507 46.3252 44.4133 46.5098 44.3801C46.6987 44.3462 46.8602 44.3176 46.9931 44.3033L46.9289 43.7067ZM44.9142 43.8482C44.8512 43.82 44.7834 43.7597 44.7107 43.6574C44.6384 43.5556 44.5779 43.4366 44.5165 43.313L43.9791 43.5799C44.0385 43.6995 44.1181 43.8593 44.2216 44.0049C44.3246 44.15 44.4683 44.3059 44.6689 44.3958L44.9142 43.8482ZM44.5166 43.3133C44.3816 43.0407 44.1385 42.8436 43.9167 42.6981C43.6992 42.5554 43.4391 42.4251 43.2817 42.3352L42.9841 42.8562C43.1891 42.9733 43.3877 43.0687 43.5876 43.1998C43.7831 43.3281 43.9162 43.4529 43.9789 43.5796L44.5166 43.3133ZM43.281 42.3348C42.5379 41.913 41.9869 41.2948 41.4447 40.608C40.9122 39.9335 40.376 39.1739 39.6917 38.5606L39.2913 39.0074C39.9251 39.5755 40.4132 40.2697 40.9737 40.9797C41.5244 41.6773 42.1351 42.3743 42.9848 42.8566L43.281 42.3348ZM39.6919 38.5608C39.5412 38.4254 39.3738 38.3224 39.2213 38.2355C39.0593 38.1431 38.9285 38.0761 38.8003 37.9932C38.5645 37.8409 38.4247 37.6887 38.3946 37.416L37.7982 37.4817C37.856 38.0059 38.1611 38.2945 38.4746 38.4971C38.621 38.5917 38.7909 38.6807 38.9241 38.7567C39.0668 38.8381 39.1892 38.9158 39.2911 39.0072L39.6919 38.5608ZM38.3948 37.4175C38.3599 37.0855 38.1458 36.885 37.902 36.7728C37.6737 36.6677 37.3912 36.6244 37.1291 36.5979C36.9943 36.5843 36.8552 36.5744 36.7215 36.5648C36.5861 36.555 36.456 36.5456 36.3315 36.5328C36.0753 36.5064 35.8784 36.4684 35.7459 36.4068L35.4929 36.9508C35.7229 37.0578 36.0066 37.1025 36.27 37.1296C36.4052 37.1435 36.5446 37.1536 36.6785 37.1632C36.8142 37.173 36.9443 37.1823 37.0687 37.1949C37.3249 37.2208 37.5206 37.2577 37.6512 37.3178C37.7663 37.3708 37.7918 37.4203 37.7981 37.4802L38.3948 37.4175ZM35.7462 36.4069C34.9077 36.0158 34.0418 35.6125 33.2813 35.1294L32.9596 35.6359C33.7589 36.1436 34.6615 36.563 35.4926 36.9507L35.7462 36.4069ZM33.2816 35.1296C32.8876 34.8788 32.4642 34.7657 32.1033 34.6565C31.731 34.5439 31.4077 34.4318 31.1156 34.1998L30.7424 34.6696C31.1313 34.9785 31.5522 35.1166 31.9296 35.2308C32.3184 35.3485 32.6502 35.4389 32.9593 35.6357L33.2816 35.1296ZM31.1151 34.1994C30.2628 33.5253 29.2692 33.3421 28.2941 33.2952C27.8077 33.2718 27.3127 33.282 26.8397 33.2863C26.3617 33.2906 25.9032 33.289 25.4665 33.2453L25.4068 33.8423C25.8791 33.8896 26.3666 33.8906 26.8452 33.8862C27.3287 33.8819 27.8007 33.8721 28.2652 33.8945C29.1917 33.9391 30.0353 34.1104 30.7429 34.67L31.1151 34.1994ZM25.4666 33.2453C23.9686 33.095 22.4428 32.8349 20.9411 32.6277L20.8591 33.222C22.3342 33.4256 23.8949 33.6906 25.4067 33.8423L25.4666 33.2453ZM20.9412 32.6277C20.3306 32.5433 19.6186 32.2894 19.0446 31.8857C18.4704 31.4818 18.065 30.9517 17.9905 30.3193L17.3946 30.3896C17.4958 31.2483 18.0406 31.9131 18.6995 32.3765C19.3585 32.84 20.1625 33.1257 20.859 33.222L20.9412 32.6277ZM17.9905 30.3198C17.9779 30.2113 18.0017 30.0886 18.0598 29.9364C18.1212 29.7756 18.1984 29.6336 18.2855 29.4449C18.3645 29.2739 18.4488 29.069 18.4666 28.8526C18.4857 28.6198 18.4273 28.3845 18.2469 28.1685L17.7864 28.553C17.8587 28.6397 17.8758 28.7164 17.8686 28.8035C17.8601 28.9071 17.8163 29.03 17.7409 29.1932C17.6736 29.3389 17.5698 29.5375 17.4992 29.7224C17.4254 29.9158 17.366 30.1436 17.3946 30.3891L17.9905 30.3198ZM18.2466 28.1681C17.9846 27.8553 17.9153 27.4967 17.8475 27.0644C17.7831 26.6536 17.7192 26.146 17.3773 25.7201L16.9094 26.0957C17.1332 26.3745 17.1846 26.7097 17.2548 27.1573C17.3216 27.5834 17.4061 28.099 17.7867 28.5534L18.2466 28.1681ZM17.3763 25.7189C16.6427 24.8143 16.0259 24.0958 15.0137 23.4227L14.6815 23.9223C15.6136 24.5422 16.183 25.2 16.9103 26.0969L17.3763 25.7189ZM15.0141 23.423C14.6139 23.1559 14.3522 22.8389 14.1014 22.4803C13.8567 22.1305 13.6015 21.7055 13.2482 21.3086L12.8 21.7075C13.1223 22.0696 13.334 22.43 13.6097 22.8242C13.8793 23.2097 14.1915 23.5954 14.6811 23.9221L15.0141 23.423ZM13.2476 21.3079C12.9862 21.0159 12.6234 20.795 12.2897 20.6038C11.9392 20.4031 11.6197 20.2341 11.3654 20.0319L10.992 20.5016C11.2925 20.7405 11.6705 20.9406 11.9914 21.1244C12.3292 21.3179 12.6116 21.497 12.8006 21.7081L13.2476 21.3079ZM11.367 20.0332C11.2982 19.9778 11.2355 19.9317 11.1781 19.8973C11.1255 19.8658 11.0521 19.8283 10.9664 19.8177C10.8591 19.8045 10.7497 19.8361 10.6669 19.9172C10.6043 19.9785 10.5764 20.0514 10.5668 20.0762C10.5334 20.1621 10.5423 20.1446 10.544 20.1425C10.5697 20.1113 10.5959 20.1182 10.5573 20.119L10.5699 20.7188C10.7537 20.715 10.9041 20.649 11.0071 20.524C11.0521 20.4694 11.079 20.414 11.0958 20.3737C11.1043 20.3536 11.111 20.335 11.1158 20.3217C11.1215 20.306 11.1236 20.2999 11.1261 20.2935C11.1336 20.2741 11.1239 20.3094 11.0869 20.3457C11.0298 20.4017 10.9534 20.4206 10.893 20.4132C10.8541 20.4084 10.8414 20.395 10.8697 20.412C10.8931 20.4261 10.9315 20.4528 10.9904 20.5003L11.367 20.0332ZM10.559 20.1189C10.4605 20.1205 10.3427 20.0807 10.1951 19.9961C10.0373 19.9057 9.91778 19.811 9.74995 19.7014L9.42192 20.2038C9.5342 20.2771 9.72495 20.4183 9.89679 20.5167C10.0787 20.6209 10.3097 20.7229 10.5682 20.7189L10.559 20.1189ZM9.74989 19.7014C9.36664 19.4513 9.10824 19.3346 8.81796 19.3138C8.6819 19.304 8.54988 19.3162 8.41807 19.3305C8.28199 19.3454 8.13675 19.3638 7.94592 19.3765L7.98556 19.9751C8.19292 19.9614 8.35662 19.9408 8.48313 19.927C8.61391 19.9127 8.69815 19.9067 8.77491 19.9122C8.91026 19.9219 9.06377 19.9701 9.42198 20.2038L9.74989 19.7014ZM7.94605 19.3765C7.51606 19.4047 7.06407 19.2676 6.6121 19.0375C6.16149 18.808 5.73471 18.4986 5.35832 18.2097L4.99304 18.6857C5.37459 18.9785 5.83754 19.3163 6.33983 19.5721C6.84076 19.8272 7.40483 20.0133 7.98542 19.9752L7.94605 19.3765ZM5.3576 18.2092C4.79639 17.7812 4.13687 17.208 3.3181 17.0109L3.17766 17.5942C3.84181 17.7541 4.37962 18.2179 4.99376 18.6863L5.3576 18.2092ZM3.3185 17.011C3.22683 16.9888 3.1416 16.9701 3.06464 16.9535C2.98637 16.9366 2.91928 16.9223 2.8577 16.9078C2.73047 16.8777 2.65866 16.8531 2.61349 16.8276C2.57977 16.8086 2.56747 16.7931 2.55705 16.7681C2.5419 16.7317 2.52546 16.6574 2.5315 16.5091L1.932 16.4847C1.92431 16.6735 1.94015 16.8473 2.0031 16.9986C2.07079 17.1613 2.18242 17.2732 2.31829 17.35C2.44271 17.4203 2.58614 17.4601 2.71963 17.4917C2.78841 17.5079 2.86305 17.5238 2.93787 17.54C3.01398 17.5564 3.09318 17.5738 3.17727 17.5941L3.3185 17.011ZM2.53175 16.4969C2.53175 16.233 2.36557 16.0576 2.21787 15.9501C2.07114 15.8434 1.88427 15.7606 1.72567 15.6924C1.55364 15.6183 1.40532 15.5574 1.28254 15.4871C1.15536 15.4143 1.1118 15.3615 1.09975 15.3344L0.551778 15.5788C0.644074 15.7858 0.828444 15.9185 0.984456 16.0078C1.14486 16.0996 1.33499 16.1774 1.48837 16.2434C1.65518 16.3153 1.78068 16.3741 1.86496 16.4354C1.90488 16.4644 1.92267 16.4851 1.9296 16.4956C1.93258 16.5001 1.9328 16.5016 1.93239 16.5003C1.93221 16.4998 1.93202 16.499 1.93189 16.4981C1.93175 16.4973 1.93175 16.4968 1.93175 16.4969H2.53175ZM1.09628 15.3269C1.09973 15.3341 1.10921 15.3566 1.11062 15.391C1.11215 15.4281 1.10363 15.466 1.0865 15.4991C1.07074 15.5297 1.05223 15.5476 1.04377 15.5549C1.03565 15.562 1.03159 15.5638 1.03756 15.5603C1.04367 15.5567 1.05177 15.5524 1.06839 15.5439C1.08228 15.5368 1.10484 15.5253 1.12715 15.5125C1.1497 15.4994 1.17997 15.4805 1.21043 15.4549C1.24114 15.429 1.27804 15.3913 1.30737 15.3388L0.783566 15.0461C0.811732 14.9957 0.848106 14.9807 0.827163 14.9928C0.820286 14.9968 0.811782 15.0012 0.794688 15.01C0.78033 15.0173 0.757537 15.029 0.734805 15.0423C0.69711 15.0643 0.607482 15.1191 0.553359 15.2239C0.486736 15.3529 0.506729 15.4851 0.555247 15.5863L1.09628 15.3269ZM1.30575 15.3416C1.41191 15.1564 1.37093 14.9658 1.31903 14.8391C1.26659 14.7112 1.18102 14.5913 1.10379 14.4942C1.02544 14.3957 0.936428 14.2976 0.871712 14.2238C0.837551 14.1849 0.809942 14.1526 0.788408 14.1252C0.777828 14.1117 0.769944 14.101 0.764247 14.0927C0.758343 14.0841 0.756476 14.0805 0.756815 14.0812L0.224666 14.3583C0.27218 14.4496 0.357762 14.5478 0.4206 14.6194C0.49508 14.7044 0.567753 14.7842 0.634263 14.8678C0.701889 14.9528 0.74436 15.0191 0.76384 15.0666C0.783852 15.1155 0.758665 15.0895 0.785184 15.0433L1.30575 15.3416Z" fill="white" mask="url(#path-1-inside-1_1_6119)"/>
</svg>
