<svg width="71" height="41" viewBox="0 0 71 41" fill="none" xmlns="http://www.w3.org/2000/svg">
<mask id="path-1-inside-1_202_5763" fill="white">
<path d="M0.414863 3.62509L9.39481 0.997028C10.2077 0.707035 8.30178 3.56963 9.46615 5.10362C9.52107 5.16239 9.61995 6.04939 9.83415 6.44319C10.0429 6.83644 10.3559 6.7837 10.4493 6.78041L10.9875 6.23832C10.9051 6.21635 10.6086 5.11186 10.6086 4.97565C10.1912 3.9766 10.5481 3.66794 10.4383 3.45374C10.5866 3.1264 11.015 3.1599 10.7184 2.69744C10.4932 2.34978 10.1142 1.6951 10.3724 1.25791L13.1844 2.80125C12.6737 3.7278 12.7835 2.87924 12.1684 4.95643C11.8004 4.25451 12.7561 5.95711 12.9483 5.57045C13.3932 3.99197 14.541 4.75871 14.0907 3.0182L18.3252 5.23874C19.3962 5.35407 21 7.33129 23.0431 9.26732C23.5594 9.75779 24.1416 10.3257 24.8391 10.5509C25.6575 10.8167 26.8108 10.285 27.6292 10.1373C29.7767 9.75064 32.0669 10.8189 34.143 10.2982C34.6758 10.1637 35.1811 9.30741 35.7852 9.64024C36.5432 10.061 37.0265 10.8145 37.8338 11.2165C38.6192 11.6103 38.8719 12.1716 39.4431 12.7994C40.0363 13.4541 40.2944 13.1844 41.0688 13.1147C41.2391 14.318 41.0688 16.7615 42.1728 17.5502C42.733 17.9396 43.4799 17.4734 43.9028 18.1972C44.3971 19.0326 44.5784 20.0289 45.0068 20.8956C45.8526 22.5999 48.3461 21.4069 49.807 21.4569C50.6693 21.4844 51.2241 22.1786 51.1362 22.9574C51.0099 24.1218 52.8223 24.0158 53.5253 24.2267C53.4649 23.7823 52.7015 23.1123 53.1463 22.6707C53.5583 22.2643 53.5637 21.7815 54.1679 21.5393C54.6732 21.3372 54.1679 20.7962 54.4535 20.4776C54.816 20.0712 55.7167 19.6066 56.1891 19.2759C56.7493 18.8849 57.4413 18.8904 57.8313 18.273C58.0125 17.983 58.2761 17.3575 58.6551 17.2701C59.2373 17.135 59.2538 17.5354 59.803 16.9703C60.4071 16.3441 60.9729 16.331 61.7089 16.7127C60.8576 17.5123 58.5727 18.6454 58.386 19.9158C58.8803 19.9268 59.1219 20.3194 59.5943 20.3711C60.1435 20.4309 60.5335 19.8938 60.8355 20.6506C61.3518 21.9254 62.7688 21.0582 63.5268 21.7744C63.6311 21.5508 63.6311 21.3267 63.5268 21.1016C63.741 21.1016 63.9113 21.0197 64.0266 20.844C64.1969 20.5205 64.0266 20.0855 63.9607 19.7576C64.3067 20.392 64.8449 20.4848 65.3777 21.0983C65.9159 21.7222 66.7343 21.3613 66.7727 22.3675C67.7449 21.7837 68.1897 22.8498 69.0136 22.9343C69.5573 22.9069 70.0187 22.8904 70.4141 23.1518C70.8041 23.3885 69.8539 23.7252 69.766 23.868C69.3761 24.5183 69.1948 24.7127 68.1513 24.2651C68.0964 24.6177 68.2776 24.8753 68.4314 25.1741C68.1953 25.1576 65.8994 25.2944 67.0858 25.9254C66.7562 25.9254 66.4047 26.2852 66.0532 26.2121C65.7511 26.306 65.872 25.703 65.4985 26.1341C65.2019 26.2682 64.8889 25.8013 64.6417 25.7189C63.9497 25.4882 63.4993 25.7684 63.0435 25.9831C62.648 26.1682 62.5711 26.0754 62.2965 26.1407C61.3848 26.3577 61.5166 25.5673 60.495 25.1153C60.127 24.9522 61.2859 24.4337 61.4507 24.0592C61.544 23.8428 61.4507 23.5802 61.275 23.4737C60.7477 23.1667 60.517 22.5746 60.0447 22.2082C59.8579 22.7767 58.1663 24.3003 57.4908 23.8411C57.0349 23.5324 56.1836 22.9909 55.9859 23.9921C55.931 24.2047 56.0518 24.6946 56.3209 25.0906C56.5845 25.5734 56.3209 25.8568 56.6449 26.1221C55.8046 26.4692 54.6897 25.5899 53.9592 26.3593C54.3876 26.7048 55.0631 26.1594 55.3433 26.7548C55.1565 26.7273 54.9753 26.7163 54.7885 26.7163C54.9313 27.0876 54.9204 27.1486 55.0247 27.2502C54.9698 27.2667 55.0247 27.4133 54.9148 27.5429C54.816 27.6484 54.4535 27.6236 54.5029 27.968C54.5908 28.5738 54.7117 29.0555 53.8824 29.2581C53.2123 29.4213 51.6195 28.8501 51.0757 28.905C50.8945 28.9215 50.521 29.0346 50.4551 29.2164C50.0761 30.2259 50.2904 30.2654 50.0817 30.4527C50.2794 30.9542 50.8341 30.8949 51.1526 31.0783C51.7897 31.4402 51.29 31.6836 52.1358 31.8264C52.5752 31.9 52.8388 31.7379 53.4045 32.0032C53.8109 32.1905 53.789 33.7047 53.9867 34.3473C54.1514 34.8867 54.7666 35.0756 55.0467 35.582C55.4861 36.3773 54.849 37.2741 54.4755 37.7009C53.8384 38.4171 53.5198 39.3837 54.2833 40.7568C53.3606 40.0181 53.4759 40.1982 53.0859 40.2361C51.982 40.3449 51.8502 40.4536 51.4657 40.0428C51.2241 39.7847 50.8561 39.6183 50.5046 39.5353C50.0872 39.437 49.483 39.6375 49.0711 39.5683C48.5438 39.1113 48.7031 38.5626 48.5438 38.1161C48.3516 37.5944 49.1535 36.6568 48.2802 36.4207C47.7309 36.2718 47.308 36.201 46.8137 35.8797C45.9734 35.3315 45.3583 35.5172 44.4411 35.3491C43.4744 35.1734 42.7055 34.3775 41.9146 33.8717C41.1567 33.3889 40.3493 33.1417 39.6298 32.5821C38.9488 32.0526 38.125 32.1257 37.4494 31.655C36.6091 31.064 35.7139 30.539 34.8626 29.9513C33.5444 29.0418 30.7598 28.1042 30.0842 26.5664C29.4526 25.1214 28.3377 24.286 27.6237 22.8542C27.2392 22.0797 26.7669 21.5744 25.9595 21.2224C25.7453 21.129 25.3718 20.9258 25.1302 20.9851C24.7841 21.0702 25.0204 21.519 24.6139 21.5585C23.823 21.6349 23.2189 21.101 22.06 21.235C21.3735 21.3147 20.7638 21.0307 20.1542 20.75C20.0388 20.6951 19.8356 20.5463 19.7203 20.3359C19.6104 20.1256 19.8027 19.8076 19.7203 19.5577C19.6544 19.3078 19.3303 18.9305 19.3633 18.7596C19.3633 18.5894 19.6049 18.6245 19.7752 18.652C19.5225 17.9891 18.7317 18.1972 18.6877 17.3646C18.6328 16.5265 18.122 16.231 17.2982 16.2436C16.9082 16.2491 15.7054 16.3749 15.5516 15.8603C15.3155 15.082 14.5136 15.3226 13.9534 14.9667C13.6897 14.797 13.0252 13.9698 12.6572 14.2587C12.2068 14.6119 12.1135 14.7552 11.4544 14.6767C10.5043 14.5635 12.6901 15.9855 12.7725 16.2788C12.2453 16.1546 12.108 15.8394 11.5477 15.5637C11.361 15.4709 10.6195 15.0013 10.5811 15.8224C10.5042 17.5074 8.97184 16.3842 8.30178 17.1943C7.37359 18.3098 7.33519 18.4603 7.87344 19.7625C8.04919 20.1739 8.62583 20.604 8.30728 21.0005C8.10407 21.2625 6.97266 21.0658 6.67059 21.0554C5.44581 21.0115 4.51215 20.9533 4.16614 20.9829L0.398438 3.62895"/>
</mask>
<path d="M0.414863 3.62509L9.39481 0.997028C10.2077 0.707035 8.30178 3.56963 9.46615 5.10362C9.52107 5.16239 9.61995 6.04939 9.83415 6.44319C10.0429 6.83644 10.3559 6.7837 10.4493 6.78041L10.9875 6.23832C10.9051 6.21635 10.6086 5.11186 10.6086 4.97565C10.1912 3.9766 10.5481 3.66794 10.4383 3.45374C10.5866 3.1264 11.015 3.1599 10.7184 2.69744C10.4932 2.34978 10.1142 1.6951 10.3724 1.25791L13.1844 2.80125C12.6737 3.7278 12.7835 2.87924 12.1684 4.95643C11.8004 4.25451 12.7561 5.95711 12.9483 5.57045C13.3932 3.99197 14.541 4.75871 14.0907 3.0182L18.3252 5.23874C19.3962 5.35407 21 7.33129 23.0431 9.26732C23.5594 9.75779 24.1416 10.3257 24.8391 10.5509C25.6575 10.8167 26.8108 10.285 27.6292 10.1373C29.7767 9.75064 32.0669 10.8189 34.143 10.2982C34.6758 10.1637 35.1811 9.30741 35.7852 9.64024C36.5432 10.061 37.0265 10.8145 37.8338 11.2165C38.6192 11.6103 38.8719 12.1716 39.4431 12.7994C40.0363 13.4541 40.2944 13.1844 41.0688 13.1147C41.2391 14.318 41.0688 16.7615 42.1728 17.5502C42.733 17.9396 43.4799 17.4734 43.9028 18.1972C44.3971 19.0326 44.5784 20.0289 45.0068 20.8956C45.8526 22.5999 48.3461 21.4069 49.807 21.4569C50.6693 21.4844 51.2241 22.1786 51.1362 22.9574C51.0099 24.1218 52.8223 24.0158 53.5253 24.2267C53.4649 23.7823 52.7015 23.1123 53.1463 22.6707C53.5583 22.2643 53.5637 21.7815 54.1679 21.5393C54.6732 21.3372 54.1679 20.7962 54.4535 20.4776C54.816 20.0712 55.7167 19.6066 56.1891 19.2759C56.7493 18.8849 57.4413 18.8904 57.8313 18.273C58.0125 17.983 58.2761 17.3575 58.6551 17.2701C59.2373 17.135 59.2538 17.5354 59.803 16.9703C60.4071 16.3441 60.9729 16.331 61.7089 16.7127C60.8576 17.5123 58.5727 18.6454 58.386 19.9158C58.8803 19.9268 59.1219 20.3194 59.5943 20.3711C60.1435 20.4309 60.5335 19.8938 60.8355 20.6506C61.3518 21.9254 62.7688 21.0582 63.5268 21.7744C63.6311 21.5508 63.6311 21.3267 63.5268 21.1016C63.741 21.1016 63.9113 21.0197 64.0266 20.844C64.1969 20.5205 64.0266 20.0855 63.9607 19.7576C64.3067 20.392 64.8449 20.4848 65.3777 21.0983C65.9159 21.7222 66.7343 21.3613 66.7727 22.3675C67.7449 21.7837 68.1897 22.8498 69.0136 22.9343C69.5573 22.9069 70.0187 22.8904 70.4141 23.1518C70.8041 23.3885 69.8539 23.7252 69.766 23.868C69.3761 24.5183 69.1948 24.7127 68.1513 24.2651C68.0964 24.6177 68.2776 24.8753 68.4314 25.1741C68.1953 25.1576 65.8994 25.2944 67.0858 25.9254C66.7562 25.9254 66.4047 26.2852 66.0532 26.2121C65.7511 26.306 65.872 25.703 65.4985 26.1341C65.2019 26.2682 64.8889 25.8013 64.6417 25.7189C63.9497 25.4882 63.4993 25.7684 63.0435 25.9831C62.648 26.1682 62.5711 26.0754 62.2965 26.1407C61.3848 26.3577 61.5166 25.5673 60.495 25.1153C60.127 24.9522 61.2859 24.4337 61.4507 24.0592C61.544 23.8428 61.4507 23.5802 61.275 23.4737C60.7477 23.1667 60.517 22.5746 60.0447 22.2082C59.8579 22.7767 58.1663 24.3003 57.4908 23.8411C57.0349 23.5324 56.1836 22.9909 55.9859 23.9921C55.931 24.2047 56.0518 24.6946 56.3209 25.0906C56.5845 25.5734 56.3209 25.8568 56.6449 26.1221C55.8046 26.4692 54.6897 25.5899 53.9592 26.3593C54.3876 26.7048 55.0631 26.1594 55.3433 26.7548C55.1565 26.7273 54.9753 26.7163 54.7885 26.7163C54.9313 27.0876 54.9204 27.1486 55.0247 27.2502C54.9698 27.2667 55.0247 27.4133 54.9148 27.5429C54.816 27.6484 54.4535 27.6236 54.5029 27.968C54.5908 28.5738 54.7117 29.0555 53.8824 29.2581C53.2123 29.4213 51.6195 28.8501 51.0757 28.905C50.8945 28.9215 50.521 29.0346 50.4551 29.2164C50.0761 30.2259 50.2904 30.2654 50.0817 30.4527C50.2794 30.9542 50.8341 30.8949 51.1526 31.0783C51.7897 31.4402 51.29 31.6836 52.1358 31.8264C52.5752 31.9 52.8388 31.7379 53.4045 32.0032C53.8109 32.1905 53.789 33.7047 53.9867 34.3473C54.1514 34.8867 54.7666 35.0756 55.0467 35.582C55.4861 36.3773 54.849 37.2741 54.4755 37.7009C53.8384 38.4171 53.5198 39.3837 54.2833 40.7568C53.3606 40.0181 53.4759 40.1982 53.0859 40.2361C51.982 40.3449 51.8502 40.4536 51.4657 40.0428C51.2241 39.7847 50.8561 39.6183 50.5046 39.5353C50.0872 39.437 49.483 39.6375 49.0711 39.5683C48.5438 39.1113 48.7031 38.5626 48.5438 38.1161C48.3516 37.5944 49.1535 36.6568 48.2802 36.4207C47.7309 36.2718 47.308 36.201 46.8137 35.8797C45.9734 35.3315 45.3583 35.5172 44.4411 35.3491C43.4744 35.1734 42.7055 34.3775 41.9146 33.8717C41.1567 33.3889 40.3493 33.1417 39.6298 32.5821C38.9488 32.0526 38.125 32.1257 37.4494 31.655C36.6091 31.064 35.7139 30.539 34.8626 29.9513C33.5444 29.0418 30.7598 28.1042 30.0842 26.5664C29.4526 25.1214 28.3377 24.286 27.6237 22.8542C27.2392 22.0797 26.7669 21.5744 25.9595 21.2224C25.7453 21.129 25.3718 20.9258 25.1302 20.9851C24.7841 21.0702 25.0204 21.519 24.6139 21.5585C23.823 21.6349 23.2189 21.101 22.06 21.235C21.3735 21.3147 20.7638 21.0307 20.1542 20.75C20.0388 20.6951 19.8356 20.5463 19.7203 20.3359C19.6104 20.1256 19.8027 19.8076 19.7203 19.5577C19.6544 19.3078 19.3303 18.9305 19.3633 18.7596C19.3633 18.5894 19.6049 18.6245 19.7752 18.652C19.5225 17.9891 18.7317 18.1972 18.6877 17.3646C18.6328 16.5265 18.122 16.231 17.2982 16.2436C16.9082 16.2491 15.7054 16.3749 15.5516 15.8603C15.3155 15.082 14.5136 15.3226 13.9534 14.9667C13.6897 14.797 13.0252 13.9698 12.6572 14.2587C12.2068 14.6119 12.1135 14.7552 11.4544 14.6767C10.5043 14.5635 12.6901 15.9855 12.7725 16.2788C12.2453 16.1546 12.108 15.8394 11.5477 15.5637C11.361 15.4709 10.6195 15.0013 10.5811 15.8224C10.5042 17.5074 8.97184 16.3842 8.30178 17.1943C7.37359 18.3098 7.33519 18.4603 7.87344 19.7625C8.04919 20.1739 8.62583 20.604 8.30728 21.0005C8.10407 21.2625 6.97266 21.0658 6.67059 21.0554C5.44581 21.0115 4.51215 20.9533 4.16614 20.9829L0.398438 3.62895" fill="#D2D2D2"/>
<path d="M9.39481 0.997028L9.47907 1.28495L9.48742 1.28251L9.49561 1.27958L9.39481 0.997028ZM9.46615 5.10362L9.22719 5.285L9.23647 5.29724L9.24696 5.30847L9.46615 5.10362ZM9.83415 6.44319L10.0992 6.30254L10.0977 6.29984L9.83415 6.44319ZM10.4493 6.78041L10.4599 7.08022L10.5785 7.07603L10.6622 6.99178L10.4493 6.78041ZM10.9875 6.23832L11.2004 6.44969L11.5655 6.08197L11.0648 5.94845L10.9875 6.23832ZM10.6086 4.97565H10.9086V4.9155L10.8854 4.86L10.6086 4.97565ZM10.4383 3.45374L10.165 3.32995L10.1053 3.46182L10.1713 3.59064L10.4383 3.45374ZM10.7184 2.69744L10.9709 2.53549L10.9702 2.53435L10.7184 2.69744ZM10.3724 1.25791L10.5167 0.99492L10.2619 0.855047L10.1141 1.10538L10.3724 1.25791ZM13.1844 2.80125L13.4472 2.94608L13.5923 2.68286L13.3288 2.53825L13.1844 2.80125ZM12.1684 4.95643L11.9027 5.09572L12.246 5.75068L12.456 5.04161L12.1684 4.95643ZM12.9483 5.57045L13.2169 5.70401L13.2294 5.67886L13.2371 5.65184L12.9483 5.57045ZM14.0907 3.0182L14.23 2.75252L13.6307 2.43827L13.8002 3.09335L14.0907 3.0182ZM18.3252 5.23874L18.1859 5.50442L18.2364 5.5309L18.2931 5.53701L18.3252 5.23874ZM23.0431 9.26732L23.2498 9.04982L23.2495 9.04956L23.0431 9.26732ZM24.8391 10.5509L24.9318 10.2656L24.9313 10.2654L24.8391 10.5509ZM27.6292 10.1373L27.576 9.84204L27.5759 9.84207L27.6292 10.1373ZM34.143 10.2982L34.216 10.5892L34.2165 10.5891L34.143 10.2982ZM35.7852 9.64024L35.9308 9.37794L35.93 9.37748L35.7852 9.64024ZM37.8338 11.2165L37.9683 10.9483L37.9676 10.948L37.8338 11.2165ZM39.4431 12.7994L39.6654 12.598L39.665 12.5975L39.4431 12.7994ZM41.0688 13.1147L41.3658 13.0726L41.3259 12.7903L41.0419 12.8159L41.0688 13.1147ZM42.1728 17.5502L41.9983 17.7944L42.0015 17.7966L42.1728 17.5502ZM43.9028 18.1972L43.6438 18.3486L43.6446 18.35L43.9028 18.1972ZM45.0068 20.8956L44.7379 21.0285L44.7381 21.029L45.0068 20.8956ZM49.807 21.4569L49.7968 21.7567L49.7975 21.7568L49.807 21.4569ZM51.1362 22.9574L50.8381 22.9238L50.838 22.925L51.1362 22.9574ZM53.5253 24.2267L53.4391 24.514L53.8854 24.6479L53.8226 24.1863L53.5253 24.2267ZM53.1463 22.6707L52.9356 22.4571L52.935 22.4578L53.1463 22.6707ZM54.1679 21.5393L54.0565 21.2607L54.0563 21.2608L54.1679 21.5393ZM54.4535 20.4776L54.6769 20.6779L54.6774 20.6773L54.4535 20.4776ZM56.1891 19.2759L56.0174 19.0299L56.017 19.0301L56.1891 19.2759ZM57.8313 18.273L58.0849 18.4332L58.0857 18.432L57.8313 18.273ZM58.6551 17.2701L58.7225 17.5625L58.7229 17.5624L58.6551 17.2701ZM59.803 16.9703L60.0181 17.1793L60.0189 17.1786L59.803 16.9703ZM61.7089 16.7127L61.9143 16.9313L62.223 16.6414L61.847 16.4464L61.7089 16.7127ZM58.386 19.9158L58.0892 19.8721L58.0398 20.2082L58.3793 20.2157L58.386 19.9158ZM59.5943 20.3711L59.5617 20.6693L59.5618 20.6693L59.5943 20.3711ZM60.8355 20.6506L60.5569 20.7618L60.5575 20.7632L60.8355 20.6506ZM63.5268 21.7744L63.3207 21.9924L63.6228 22.2779L63.7986 21.9013L63.5268 21.7744ZM63.5268 21.1016V20.8016H63.0571L63.2546 21.2277L63.5268 21.1016ZM64.0266 20.844L64.2774 21.0086L64.2853 20.9965L64.2921 20.9837L64.0266 20.844ZM63.9607 19.7576L64.2241 19.6139L63.6666 19.8167L63.9607 19.7576ZM65.3777 21.0983L65.6048 20.9023L65.6042 20.9016L65.3777 21.0983ZM66.7727 22.3675L66.473 22.379L66.4923 22.8859L66.9272 22.6247L66.7727 22.3675ZM69.0136 22.9343L68.9829 23.2328L69.0058 23.2351L69.0287 23.234L69.0136 22.9343ZM70.4141 23.1518L70.2486 23.4023L70.2585 23.4083L70.4141 23.1518ZM69.766 23.868L69.5105 23.7108L69.5087 23.7137L69.766 23.868ZM68.1513 24.2651L68.2696 23.9894L67.9144 23.8371L67.8549 24.219L68.1513 24.2651ZM68.4314 25.1741L68.4105 25.4734L68.9419 25.5104L68.6982 25.0368L68.4314 25.1741ZM67.0858 25.9254V26.2254L67.2267 25.6606L67.0858 25.9254ZM66.0532 26.2121L66.1143 25.9184L66.0383 25.9026L65.9641 25.9257L66.0532 26.2121ZM65.4985 26.1341L65.622 26.4075L65.6821 26.3804L65.7252 26.3306L65.4985 26.1341ZM64.6417 25.7189L64.7366 25.4343L64.6417 25.7189ZM63.0435 25.9831L63.1706 26.2548L63.1713 26.2545L63.0435 25.9831ZM62.2965 26.1407L62.366 26.4326L62.366 26.4326L62.2965 26.1407ZM60.495 25.1153L60.3734 25.3896L60.3736 25.3897L60.495 25.1153ZM61.4507 24.0592L61.7253 24.18L61.7261 24.178L61.4507 24.0592ZM61.275 23.4737L61.4305 23.2171L61.4259 23.2144L61.275 23.4737ZM60.0447 22.2082L60.2285 21.9712L59.8924 21.7105L59.7597 22.1146L60.0447 22.2082ZM57.4908 23.8411L57.6594 23.593L57.659 23.5927L57.4908 23.8411ZM55.9859 23.9921L56.2763 24.0672L56.2785 24.0588L56.2802 24.0503L55.9859 23.9921ZM56.3209 25.0906L56.5842 24.9468L56.5772 24.934L56.569 24.922L56.3209 25.0906ZM56.6449 26.1221L56.7595 26.3993L57.2232 26.2078L56.835 25.8899L56.6449 26.1221ZM53.9592 26.3593L53.7416 26.1528L53.5177 26.3887L53.7709 26.5929L53.9592 26.3593ZM55.3433 26.7548L55.2996 27.0516L55.8527 27.1329L55.6147 26.6271L55.3433 26.7548ZM54.7885 26.7163V26.4163H54.3517L54.5085 26.824L54.7885 26.7163ZM55.0247 27.2502L55.1109 27.5375L55.5994 27.391L55.234 27.0352L55.0247 27.2502ZM54.9148 27.5429L55.1337 27.7481L55.1388 27.7426L55.1437 27.7369L54.9148 27.5429ZM54.5029 27.968L54.206 28.0106L54.206 28.0111L54.5029 27.968ZM53.8824 29.2581L53.9533 29.5496L53.9536 29.5496L53.8824 29.2581ZM51.0757 28.905L51.1029 29.2038L51.1059 29.2035L51.0757 28.905ZM50.4551 29.2164L50.736 29.3219L50.7371 29.3187L50.4551 29.2164ZM50.0817 30.4527L49.8813 30.2295L49.7261 30.3687L49.8026 30.5628L50.0817 30.4527ZM51.1526 31.0783L51.0029 31.3383L51.0044 31.3392L51.1526 31.0783ZM52.1358 31.8264L52.0858 32.1222L52.0862 32.1222L52.1358 31.8264ZM53.4045 32.0032L53.2771 32.2748L53.2789 32.2757L53.4045 32.0032ZM53.9867 34.3473L54.2736 34.2597L54.2734 34.2591L53.9867 34.3473ZM55.0467 35.582L55.3093 35.4369L55.3092 35.4368L55.0467 35.582ZM54.4755 37.7009L54.6996 37.9003L54.7012 37.8985L54.4755 37.7009ZM54.2833 40.7568L54.0958 40.991L54.5455 40.611L54.2833 40.7568ZM53.0859 40.2361L53.0569 39.9375L53.0565 39.9376L53.0859 40.2361ZM51.4657 40.0428L51.6848 39.8378L51.6847 39.8378L51.4657 40.0428ZM50.5046 39.5353L50.5735 39.2433L50.5734 39.2433L50.5046 39.5353ZM49.0711 39.5683L48.8746 39.795L48.9383 39.8502L49.0214 39.8641L49.0711 39.5683ZM48.5438 38.1161L48.8264 38.0153L48.8253 38.0124L48.5438 38.1161ZM48.2802 36.4207L48.2017 36.7102L48.2019 36.7102L48.2802 36.4207ZM46.8137 35.8797L46.6498 36.1309L46.6502 36.1312L46.8137 35.8797ZM44.4411 35.3491L44.4951 35.054L44.4947 35.0539L44.4411 35.3491ZM41.9146 33.8717L42.0763 33.619L42.0758 33.6187L41.9146 33.8717ZM39.6298 32.5821L39.814 32.3453L39.8139 32.3452L39.6298 32.5821ZM37.4494 31.655L37.2768 31.9004L37.2779 31.9011L37.4494 31.655ZM34.8626 29.9513L35.033 29.7044L35.0329 29.7044L34.8626 29.9513ZM30.0842 26.5664L29.8093 26.6865L29.8096 26.687L30.0842 26.5664ZM27.6237 22.8542L27.355 22.9876L27.3552 22.988L27.6237 22.8542ZM25.9595 21.2224L26.0794 20.9474L26.0794 20.9474L25.9595 21.2224ZM25.1302 20.9851L25.0587 20.6938L25.0585 20.6938L25.1302 20.9851ZM24.6139 21.5585L24.6427 21.8571L24.643 21.8571L24.6139 21.5585ZM22.06 21.235L22.0255 20.937L22.0254 20.937L22.06 21.235ZM20.1542 20.75L20.0252 21.0209L20.0287 21.0226L20.1542 20.75ZM19.7203 20.3359L19.4543 20.4748L19.4572 20.4802L19.7203 20.3359ZM19.7203 19.5577L19.4302 19.6342L19.4325 19.643L19.4354 19.6516L19.7203 19.5577ZM19.3633 18.7596L19.6578 18.8165L19.6633 18.7883V18.7596H19.3633ZM19.7752 18.652L19.7274 18.9482L20.2407 19.031L20.0555 18.5452L19.7752 18.652ZM18.6877 17.3646L18.9873 17.3488L18.9871 17.345L18.6877 17.3646ZM17.2982 16.2436L17.3024 16.5436L17.3028 16.5436L17.2982 16.2436ZM15.5516 15.8603L15.8391 15.7744L15.8387 15.7732L15.5516 15.8603ZM13.9534 14.9667L13.791 15.2189L13.7925 15.2199L13.9534 14.9667ZM12.6572 14.2587L12.8423 14.4948L12.8425 14.4947L12.6572 14.2587ZM11.4544 14.6767L11.4899 14.3788L11.4899 14.3788L11.4544 14.6767ZM12.7725 16.2788L12.7038 16.5708L13.1989 16.6874L13.0613 16.1976L12.7725 16.2788ZM11.5477 15.5637L11.4142 15.8323L11.4153 15.8328L11.5477 15.5637ZM10.5811 15.8224L10.2814 15.8083L10.2814 15.8087L10.5811 15.8224ZM8.30178 17.1943L8.53239 17.3862L8.53295 17.3855L8.30178 17.1943ZM7.87344 19.7625L7.59616 19.8771L7.59756 19.8804L7.87344 19.7625ZM8.30728 21.0005L8.07337 20.8126L8.07023 20.8166L8.30728 21.0005ZM6.67059 21.0554L6.65983 21.3552L6.66023 21.3552L6.67059 21.0554ZM4.16614 20.9829L3.87297 21.0466L3.92894 21.3044L4.19176 21.2818L4.16614 20.9829ZM0.499127 3.91301L9.47907 1.28495L9.31055 0.709105L0.3306 3.33717L0.499127 3.91301ZM9.49561 1.27958C9.52557 1.2689 9.50817 1.28154 9.46515 1.27403C9.40183 1.26297 9.34566 1.21994 9.31758 1.1662C9.29865 1.12994 9.30357 1.10981 9.30346 1.13558C9.30337 1.1565 9.30006 1.19202 9.29007 1.24646C9.26999 1.35585 9.2311 1.4999 9.1791 1.68215C9.12851 1.85944 9.06692 2.06821 9.00855 2.28996C8.89192 2.73299 8.78051 3.25475 8.77809 3.77263C8.77567 4.29189 8.88279 4.83128 9.22719 5.285L9.7051 4.92224C9.46731 4.60897 9.37604 4.21529 9.37809 3.77543C9.38015 3.3342 9.47608 2.87082 9.58878 2.4427C9.64507 2.22887 9.70363 2.03057 9.75607 1.84679C9.80709 1.66797 9.85411 1.49696 9.88021 1.35479C9.89331 1.28345 9.90315 1.20907 9.90346 1.13815C9.90374 1.07209 9.8963 0.978189 9.84941 0.888414C9.79338 0.781151 9.69367 0.704862 9.5684 0.682979C9.46342 0.664642 9.36566 0.688907 9.29401 0.714471L9.49561 1.27958ZM9.24696 5.30847C9.22317 5.28301 9.21049 5.25983 9.20619 5.25171C9.20078 5.24146 9.19789 5.23411 9.19713 5.23212C9.19567 5.22836 9.19658 5.2301 9.19956 5.24102C9.20536 5.26222 9.21301 5.29562 9.22301 5.34357C9.2328 5.39051 9.24356 5.44518 9.25597 5.50779C9.26823 5.56966 9.28185 5.63802 9.29681 5.70934C9.3538 5.98112 9.43913 6.34481 9.57062 6.58654L10.0977 6.29984C10.015 6.14777 9.94377 5.87107 9.88403 5.5862C9.86981 5.51836 9.85674 5.45279 9.84452 5.39114C9.83244 5.33022 9.82094 5.27175 9.81038 5.22112C9.80004 5.17149 9.78928 5.12288 9.77832 5.08279C9.77293 5.06306 9.76587 5.03933 9.75682 5.01593C9.75209 5.00367 9.73161 4.9483 9.68533 4.89878L9.24696 5.30847ZM9.56916 6.58383C9.70953 6.84831 9.90237 6.98766 10.0971 7.04733C10.2742 7.10162 10.4423 7.08084 10.4599 7.08022L10.4387 6.48059C10.3629 6.48327 10.3278 6.4905 10.2729 6.47367C10.2355 6.46222 10.1675 6.43132 10.0991 6.30255L9.56916 6.58383ZM10.6622 6.99178L11.2004 6.44969L10.7746 6.02695L10.2364 6.56903L10.6622 6.99178ZM11.0648 5.94845C11.1283 5.96538 11.1677 5.99895 11.1823 6.01234C11.1995 6.02822 11.2097 6.04198 11.2134 6.04706C11.2207 6.05724 11.2217 6.06103 11.2169 6.05111C11.208 6.03314 11.194 5.99961 11.1756 5.94876C11.1396 5.84937 11.097 5.71249 11.0556 5.5675C11.0145 5.42337 10.9761 5.27631 10.9482 5.1583C10.9342 5.09909 10.9233 5.04927 10.9162 5.01181C10.9072 4.96488 10.9086 4.95992 10.9086 4.97565H10.3086C10.3086 5.02544 10.3192 5.08479 10.3268 5.12442C10.3362 5.17352 10.3492 5.2325 10.3643 5.29634C10.3945 5.42441 10.4354 5.58039 10.4787 5.73215C10.5217 5.88306 10.5687 6.03493 10.6115 6.15306C10.6325 6.21098 10.6551 6.26841 10.6783 6.31558C10.6894 6.33823 10.7053 6.36813 10.726 6.39697C10.7363 6.41138 10.7529 6.43261 10.7761 6.45396C10.7966 6.47283 10.8416 6.50989 10.9102 6.52819L11.0648 5.94845ZM10.8854 4.86C10.6947 4.40364 10.6886 4.1268 10.7066 3.95081C10.7176 3.84226 10.7325 3.79476 10.749 3.68707C10.762 3.60325 10.779 3.46067 10.7052 3.31685L10.1713 3.59064C10.1525 3.55391 10.1661 3.53024 10.156 3.59576C10.1496 3.6374 10.1219 3.76968 10.1096 3.88994C10.0809 4.1716 10.105 4.54861 10.3318 5.09131L10.8854 4.86ZM10.7116 3.57754C10.7245 3.54906 10.7453 3.52254 10.7856 3.48673C10.8077 3.46713 10.8289 3.45031 10.86 3.42491C10.8875 3.40244 10.9246 3.3718 10.9594 3.33626C11.0344 3.25978 11.1186 3.14049 11.1206 2.96814C11.1224 2.81451 11.0571 2.66984 10.9709 2.53549L10.4659 2.8594C10.528 2.95628 10.5204 2.98084 10.5206 2.96122C10.5211 2.92288 10.5445 2.90239 10.5309 2.91625C10.5215 2.92589 10.5073 2.93832 10.4806 2.96015C10.4574 2.97905 10.4213 3.00777 10.387 3.03828C10.3145 3.10271 10.2263 3.19475 10.165 3.32995L10.7116 3.57754ZM10.9702 2.53435C10.8604 2.36477 10.7259 2.13916 10.6476 1.91311C10.5661 1.67745 10.57 1.51329 10.6307 1.41045L10.1141 1.10538C9.91664 1.43973 9.98099 1.8215 10.0807 2.10939C10.1836 2.4069 10.3513 2.68246 10.4666 2.86054L10.9702 2.53435ZM10.228 1.52091L13.0401 3.06424L13.3288 2.53825L10.5167 0.99492L10.228 1.52091ZM12.9217 2.65641C12.8017 2.87405 12.724 2.97712 12.6687 3.04181C12.6374 3.07838 12.6149 3.10122 12.5794 3.14011C12.5458 3.17679 12.5082 3.21983 12.469 3.27638C12.3224 3.48776 12.1837 3.848 11.8807 4.87124L12.456 5.04161C12.7681 3.98767 12.8821 3.7336 12.9621 3.61832C12.9795 3.59321 12.9969 3.57255 13.022 3.54517C13.045 3.51999 13.0848 3.47838 13.1247 3.43174C13.2117 3.33004 13.3117 3.19172 13.4472 2.94608L12.9217 2.65641ZM12.4341 4.81713C12.4113 4.77375 12.3944 4.74102 12.3824 4.71711C12.369 4.69043 12.3655 4.68229 12.3662 4.68394C12.3666 4.68502 12.3688 4.69033 12.3713 4.69828C12.3724 4.70155 12.3807 4.72633 12.3837 4.76011C12.385 4.77491 12.3882 4.81854 12.3723 4.87147C12.3539 4.93285 12.2995 5.03127 12.1767 5.07053C12.0757 5.10282 11.9941 5.07174 11.9689 5.06104C11.9369 5.04747 11.9149 5.03138 11.9058 5.02447C11.8863 5.0097 11.8738 4.99614 11.8713 4.99349C11.8668 4.98873 11.8641 4.98535 11.8635 4.9847C11.8624 4.98336 11.8634 4.98446 11.8673 4.98977C11.8847 5.01311 11.9133 5.05433 11.9576 5.11715C11.9996 5.17669 12.0514 5.24932 12.1082 5.3251C12.2171 5.47056 12.3604 5.64942 12.4993 5.76748C12.5622 5.82102 12.6644 5.89784 12.7894 5.9212C12.8608 5.93452 12.9511 5.93238 13.0405 5.88662C13.129 5.84134 13.1842 5.7699 13.2169 5.70401L12.6797 5.4369C12.6884 5.41934 12.7136 5.37992 12.7671 5.35251C12.8216 5.32464 12.872 5.32625 12.8996 5.33139C12.937 5.33838 12.9358 5.35111 12.8879 5.31038C12.805 5.23987 12.6963 5.10946 12.5884 4.96534C12.5367 4.89633 12.4887 4.8291 12.4479 4.77126C12.4094 4.71668 12.3721 4.663 12.3486 4.63147C12.3423 4.62307 12.3347 4.61295 12.3266 4.60317C12.3252 4.60151 12.3021 4.5721 12.2687 4.54669C12.2587 4.53913 12.2359 4.52258 12.2033 4.50873C12.1775 4.49777 12.0953 4.46662 11.994 4.49904C11.8708 4.53842 11.8161 4.63717 11.7976 4.69907C11.7815 4.75254 11.7846 4.7969 11.786 4.81264C11.7892 4.8483 11.7982 4.87579 11.8004 4.88264C11.8041 4.89417 11.8079 4.90392 11.8105 4.91035C11.826 4.9484 11.8599 5.01408 11.9027 5.09572L12.4341 4.81713ZM13.2371 5.65184C13.3364 5.29919 13.4697 5.09375 13.5986 4.95364C13.7394 4.80063 13.8682 4.72532 14.0397 4.59168C14.2039 4.46365 14.3796 4.29588 14.4551 4.00461C14.5257 3.73264 14.4978 3.39419 14.3811 2.94305L13.8002 3.09335C13.9087 3.51247 13.9063 3.73086 13.8743 3.85398C13.8474 3.95779 13.7928 4.02334 13.6708 4.11849C13.5559 4.20804 13.3425 4.34579 13.1571 4.54736C12.9597 4.76183 12.7826 5.05247 12.6596 5.48907L13.2371 5.65184ZM13.9514 3.28389L18.1859 5.50442L18.4645 4.97305L14.23 2.75252L13.9514 3.28389ZM18.2931 5.53701C18.4854 5.55772 18.7362 5.66842 19.0554 5.89079C19.3696 6.10956 19.7213 6.41568 20.113 6.78777C20.5039 7.15915 20.9255 7.58744 21.3813 8.04828C21.8357 8.50768 22.3221 8.99738 22.8368 9.48509L23.2495 9.04956C22.7426 8.56925 22.2623 8.08579 21.8079 7.62635C21.3549 7.16834 20.9256 6.73212 20.5262 6.35277C20.1277 5.97413 19.75 5.64332 19.3983 5.39842C19.0519 5.15712 18.7005 4.97741 18.3573 4.94046L18.2931 5.53701ZM22.8365 9.48482C23.3379 9.96111 23.9713 10.586 24.747 10.8364L24.9313 10.2654C24.3119 10.0654 23.781 9.55446 23.2498 9.04982L22.8365 9.48482ZM24.7464 10.8362C25.2411 10.9969 25.806 10.9103 26.3041 10.7909C26.5579 10.7301 26.8124 10.6557 27.0444 10.5904C27.281 10.5238 27.4938 10.4666 27.6825 10.4325L27.5759 9.84207C27.3554 9.88187 27.1172 9.94656 26.8817 10.0129C26.6417 10.0805 26.4033 10.1501 26.1642 10.2074C25.6765 10.3243 25.2555 10.3707 24.9318 10.2656L24.7464 10.8362ZM27.6823 10.4325C28.6994 10.2494 29.7573 10.4096 30.8714 10.5651C31.9642 10.7177 33.1128 10.8659 34.216 10.5892L34.0701 10.0072C33.0972 10.2512 32.0626 10.1256 30.9544 9.97089C29.8675 9.81915 28.7064 9.63851 27.576 9.84204L27.6823 10.4325ZM34.2165 10.5891C34.4062 10.5412 34.5753 10.4348 34.7137 10.336C34.7847 10.2853 34.8551 10.231 34.9202 10.181C34.987 10.1297 35.0489 10.0824 35.1102 10.0391C35.37 9.85599 35.5057 9.82878 35.6405 9.90301L35.93 9.37748C35.4606 9.11887 35.0416 9.35337 34.7645 9.54878C34.6916 9.60016 34.6204 9.65476 34.5547 9.70524C34.4873 9.75703 34.4258 9.80433 34.3652 9.84763C34.2401 9.93689 34.1462 9.98799 34.0696 10.0074L34.2165 10.5891ZM35.6396 9.90254C35.9811 10.0921 36.2639 10.3581 36.5878 10.6561C36.9028 10.9459 37.2537 11.2628 37.7001 11.4851L37.9676 10.948C37.6066 10.7682 37.3122 10.5073 36.9941 10.2146C36.6851 9.93023 36.3473 9.60912 35.9308 9.37794L35.6396 9.90254ZM37.6994 11.4847C38.0473 11.6592 38.277 11.8691 38.4923 12.1169C38.6029 12.2443 38.7069 12.3784 38.8258 12.5287C38.9429 12.6768 39.0711 12.8363 39.2212 13.0013L39.665 12.5975C39.5295 12.4486 39.4119 12.3026 39.2964 12.1565C39.1827 12.0128 39.0674 11.8642 38.9453 11.7235C38.6951 11.4354 38.4057 11.1677 37.9683 10.9483L37.6994 11.4847ZM39.2208 13.0008C39.5496 13.3638 39.8343 13.5202 40.1807 13.5286C40.3325 13.5323 40.4841 13.5067 40.6231 13.4824C40.7686 13.457 40.9169 13.4296 41.0957 13.4135L41.0419 12.8159C40.8335 12.8347 40.6591 12.8671 40.5199 12.8914C40.3742 12.9168 40.279 12.9308 40.1952 12.9288C40.0708 12.9258 39.9298 12.8898 39.6654 12.598L39.2208 13.0008ZM40.7718 13.1567C40.8122 13.4428 40.8329 13.8064 40.8584 14.2229C40.8836 14.633 40.9133 15.0861 40.9734 15.5283C41.0333 15.9695 41.1249 16.4133 41.2795 16.804C41.4339 17.1944 41.6591 17.552 41.9984 17.7943L42.3471 17.3061C42.1344 17.1541 41.9669 16.9106 41.8374 16.5833C41.7081 16.2565 41.6247 15.8663 41.5679 15.4476C41.5112 15.0299 41.4826 14.5972 41.4573 14.1861C41.4324 13.7813 41.4105 13.3882 41.3658 13.0726L40.7718 13.1567ZM42.0015 17.7966C42.1927 17.9295 42.3941 17.9844 42.5772 18.0108C42.7449 18.0349 42.9415 18.0383 43.0675 18.0475C43.2123 18.0581 43.3187 18.0769 43.4066 18.1176C43.4864 18.1547 43.5673 18.2176 43.6438 18.3486L44.1619 18.0459C44.0269 17.8149 43.8558 17.6647 43.6592 17.5734C43.4705 17.4858 43.2759 17.4611 43.1111 17.4491C42.9275 17.4357 42.8058 17.4375 42.6627 17.4169C42.535 17.3985 42.4329 17.3657 42.344 17.3039L42.0015 17.7966ZM43.6446 18.35C43.875 18.7393 44.0356 19.1716 44.1962 19.6332C44.3538 20.0864 44.5133 20.5742 44.7379 21.0285L45.2757 20.7627C45.0719 20.3503 44.9266 19.9066 44.7629 19.4361C44.6022 18.9741 44.425 18.4906 44.161 18.0445L43.6446 18.35ZM44.7381 21.029C44.9866 21.5297 45.365 21.8263 45.811 21.9791C46.2446 22.1276 46.7301 22.1364 47.2021 22.0955C47.6743 22.0546 48.1668 21.9601 48.6107 21.8834C49.0663 21.8047 49.4669 21.7454 49.7968 21.7567L49.8173 21.1571C49.4168 21.1434 48.9578 21.2145 48.5085 21.2922C48.0476 21.3718 47.5899 21.4597 47.1504 21.4977C46.7107 21.5358 46.3228 21.5201 46.0054 21.4114C45.7004 21.307 45.4499 21.1136 45.2755 20.7622L44.7381 21.029ZM49.7975 21.7568C50.4823 21.7786 50.9066 22.3167 50.8381 22.9238L51.4343 22.991C51.5416 22.0405 50.8563 21.1902 49.8166 21.1571L49.7975 21.7568ZM50.838 22.925C50.7966 23.3059 50.9174 23.6102 51.1493 23.8334C51.3658 24.0419 51.6596 24.1612 51.9397 24.2387C52.2236 24.3173 52.5305 24.3625 52.7955 24.4001C53.0739 24.4397 53.2906 24.4695 53.4391 24.514L53.6115 23.9393C53.4086 23.8784 53.1351 23.8424 52.8799 23.8061C52.6112 23.7679 52.3411 23.7273 52.0998 23.6605C51.8547 23.5926 51.6752 23.5069 51.5654 23.4012C51.471 23.3102 51.4126 23.191 51.4345 22.9898L50.838 22.925ZM53.8226 24.1863C53.7992 24.0141 53.7138 23.8453 53.6406 23.713C53.5539 23.5563 53.4843 23.4491 53.4133 23.3107C53.3467 23.1809 53.3138 23.0855 53.3085 23.015C53.3045 22.9622 53.3146 22.9263 53.3577 22.8836L52.935 22.4578C52.7556 22.6359 52.6943 22.8494 52.7102 23.0602C52.7248 23.2535 52.8032 23.4361 52.8795 23.5846C52.9512 23.7245 53.056 23.8957 53.1156 24.0034C53.1886 24.1355 53.2213 24.2171 53.2281 24.2671L53.8226 24.1863ZM53.357 22.8843C53.5952 22.6492 53.7332 22.3694 53.8381 22.2045C53.9469 22.0334 54.0562 21.9073 54.2795 21.8177L54.0563 21.2608C53.6755 21.4135 53.4799 21.6498 53.3319 21.8824C53.1801 22.121 53.1094 22.2857 52.9356 22.4572L53.357 22.8843ZM54.2793 21.8178C54.4732 21.7403 54.6094 21.6094 54.67 21.4281C54.7224 21.2717 54.7042 21.1128 54.6903 21.0114C54.6731 20.8856 54.659 20.8216 54.6594 20.7516C54.6598 20.6977 54.6705 20.6851 54.6769 20.6779L54.2301 20.2774C54.0938 20.4295 54.0605 20.6039 54.0595 20.7474C54.0586 20.8747 54.0856 21.0183 54.0959 21.0929C54.1094 21.1918 54.105 21.226 54.101 21.2377C54.1007 21.2387 54.1008 21.2381 54.1016 21.2368C54.1025 21.2354 54.103 21.2349 54.1024 21.2355C54.1014 21.2366 54.0903 21.2472 54.0565 21.2607L54.2793 21.8178ZM54.6774 20.6773C54.8266 20.51 55.1071 20.3126 55.4404 20.1019C55.7531 19.9043 56.1182 19.6917 56.3611 19.5217L56.017 19.0301C55.7876 19.1907 55.4662 19.3758 55.1198 19.5948C54.794 19.8007 54.4429 20.0388 54.2296 20.2779L54.6774 20.6773ZM56.3608 19.5219C56.6071 19.35 56.8627 19.2759 57.1919 19.1352C57.5039 19.0019 57.8415 18.8185 58.0849 18.4332L57.5776 18.1128C57.4311 18.3449 57.2277 18.4674 56.9562 18.5835C56.7018 18.6922 56.3313 18.8108 56.0174 19.0299L56.3608 19.5219ZM58.0857 18.432C58.1363 18.3511 58.1927 18.2467 58.2453 18.1522C58.3008 18.0526 58.3577 17.9533 58.4185 17.8622C58.5534 17.6602 58.6575 17.5774 58.7225 17.5625L58.5878 16.9778C58.2738 17.0501 58.0565 17.3238 57.9196 17.529C57.8445 17.6414 57.7778 17.7584 57.7211 17.8603C57.6614 17.9674 57.6169 18.05 57.5769 18.114L58.0857 18.432ZM58.7229 17.5624C58.9528 17.509 58.9914 17.561 59.2156 17.5803C59.3352 17.5907 59.4638 17.5772 59.6082 17.5047C59.7399 17.4387 59.8713 17.3304 60.0181 17.1793L59.5878 16.7612C59.4601 16.8927 59.3835 16.9462 59.3394 16.9683C59.3081 16.984 59.2932 16.9848 59.2672 16.9826C59.2004 16.9768 58.9396 16.8961 58.5873 16.9779L58.7229 17.5624ZM60.0189 17.1786C60.2888 16.8988 60.5204 16.7857 60.7392 16.7617C60.9646 16.737 61.2277 16.8011 61.5707 16.979L61.847 16.4464C61.454 16.2425 61.0663 16.1223 60.6738 16.1653C60.2747 16.209 59.9213 16.4156 59.5871 16.7619L60.0189 17.1786ZM61.5035 16.494C61.3082 16.6775 61.0228 16.8867 60.6834 17.127C60.3507 17.3627 59.9717 17.6244 59.6147 17.9004C59.2578 18.1764 58.9094 18.4767 58.6361 18.7971C58.3645 19.1153 58.1475 19.4757 58.0892 19.8721L58.6828 19.9594C58.7179 19.7207 58.8565 19.463 59.0925 19.1866C59.3266 18.9121 59.6377 18.6411 59.9817 18.375C60.3257 18.1091 60.6892 17.8581 61.0302 17.6167C61.3644 17.38 61.6839 17.1477 61.9143 16.9313L61.5035 16.494ZM58.3793 20.2157C58.5425 20.2193 58.6676 20.2823 58.8469 20.3871C59.016 20.486 59.2505 20.6353 59.5617 20.6693L59.6269 20.0729C59.4657 20.0552 59.3433 19.9823 59.1498 19.8692C58.9667 19.7621 58.7238 19.6232 58.3927 19.6158L58.3793 20.2157ZM59.5618 20.6693C59.7511 20.6899 59.9188 20.658 60.0513 20.6243C60.2065 20.5849 60.2686 20.5594 60.3544 20.5458C60.4167 20.536 60.426 20.5464 60.4278 20.5475C60.4404 20.5558 60.4914 20.5977 60.5569 20.7618L61.1142 20.5394C61.0286 20.3251 60.9176 20.1504 60.755 20.0446C60.5816 19.9318 60.4024 19.9308 60.2608 19.9532C60.1426 19.9718 59.9854 20.022 59.9036 20.0428C59.7991 20.0694 59.7121 20.0821 59.6268 20.0728L59.5618 20.6693ZM60.5575 20.7632C60.7118 21.1443 60.9455 21.3871 61.2326 21.5314C61.5069 21.6692 61.8075 21.7049 62.0718 21.7214C62.3574 21.7392 62.5828 21.7358 62.812 21.7722C63.0264 21.8062 63.1913 21.8701 63.3207 21.9924L63.7328 21.5563C63.4833 21.3206 63.1869 21.2242 62.9062 21.1796C62.6404 21.1374 62.3372 21.1368 62.1092 21.1225C61.8601 21.107 61.6622 21.0757 61.5019 20.9952C61.3545 20.9211 61.2174 20.7943 61.1136 20.538L60.5575 20.7632ZM63.7986 21.9013C63.9407 21.597 63.9403 21.2803 63.799 20.9754L63.2546 21.2277C63.322 21.3732 63.3216 21.5047 63.2549 21.6475L63.7986 21.9013ZM63.5268 21.4016C63.8299 21.4016 64.1002 21.2785 64.2774 21.0086L63.7758 20.6794C63.7223 20.7609 63.6521 20.8016 63.5268 20.8016V21.4016ZM64.2921 20.9837C64.4223 20.7362 64.4115 20.4681 64.3787 20.2564C64.3618 20.1477 64.337 20.0419 64.3141 19.9487C64.2901 19.8509 64.2696 19.7722 64.2548 19.6985L63.6666 19.8167C63.6847 19.9069 63.7103 20.0056 63.7314 20.0917C63.7536 20.1824 63.7731 20.267 63.7858 20.3485C63.8119 20.5171 63.8011 20.6282 63.7611 20.7042L64.2921 20.9837ZM63.6973 19.9013C63.9025 20.2774 64.167 20.4909 64.4218 20.6777C64.677 20.8648 64.9119 21.0195 65.1512 21.295L65.6042 20.9016C65.3107 20.5635 65.0101 20.365 64.7765 20.1938C64.5425 20.0222 64.3649 19.8721 64.2241 19.6139L63.6973 19.9013ZM65.1505 21.2942C65.4813 21.6777 65.9338 21.7789 66.1487 21.8671C66.2688 21.9163 66.3338 21.9601 66.3767 22.0156C66.4178 22.069 66.4649 22.1683 66.473 22.379L67.0725 22.3561C67.0613 22.0636 66.9917 21.8307 66.8518 21.6493C66.7136 21.47 66.5332 21.3763 66.3765 21.312C66.0381 21.1731 65.8123 21.1428 65.6048 20.9023L65.1505 21.2942ZM66.9272 22.6247C67.1235 22.5068 67.2696 22.4846 67.3872 22.4964C67.5127 22.509 67.6397 22.5634 67.7929 22.6566C67.8694 22.7031 67.9457 22.7549 68.0309 22.8125C68.1137 22.8684 68.2044 22.9295 68.2993 22.9859C68.4893 23.0989 68.7152 23.2053 68.9829 23.2328L69.0442 22.6359C68.9001 22.6211 68.7613 22.5625 68.6059 22.4701C68.528 22.4238 68.4507 22.372 68.3668 22.3153C68.2852 22.2602 68.196 22.1995 68.1046 22.1439C67.9221 22.033 67.7041 21.9251 67.447 21.8994C67.1821 21.8728 66.908 21.9363 66.6183 22.1103L66.9272 22.6247ZM69.0287 23.234C69.5914 23.2055 69.9488 23.2038 70.2487 23.4021L70.5796 22.9016C70.0886 22.577 69.5232 22.6082 68.9984 22.6347L69.0287 23.234ZM70.2585 23.4083C70.2755 23.4186 70.239 23.4023 70.2185 23.3432C70.1948 23.275 70.2156 23.2202 70.2248 23.2028C70.231 23.1911 70.2307 23.1972 70.2048 23.2202C70.1813 23.2409 70.1479 23.2658 70.1042 23.2946C70.0138 23.3542 69.9134 23.4089 69.8086 23.4697C69.7602 23.4978 69.7084 23.5287 69.6641 23.5595C69.6318 23.5818 69.558 23.6336 69.5105 23.7108L70.0215 24.0252C69.996 24.0667 69.9711 24.0767 70.0061 24.0524C70.0291 24.0365 70.0629 24.0159 70.1098 23.9886C70.1957 23.9388 70.3249 23.8677 70.4343 23.7957C70.4905 23.7587 70.5495 23.7163 70.6024 23.6694C70.6529 23.6248 70.7128 23.563 70.7547 23.4842C70.7995 23.3998 70.8312 23.2787 70.7852 23.1463C70.7423 23.0228 70.6503 22.9442 70.5698 22.8954L70.2585 23.4083ZM69.5087 23.7137C69.4103 23.8779 69.3377 23.9911 69.2683 24.072C69.203 24.1481 69.1543 24.1787 69.1099 24.1933C69.0052 24.2278 68.7985 24.2163 68.2696 23.9894L68.033 24.5408C68.5477 24.7616 68.9533 24.8766 69.2976 24.7632C69.4777 24.7039 69.6127 24.592 69.7236 24.4627C69.8305 24.3382 69.9268 24.1833 70.0233 24.0223L69.5087 23.7137ZM67.8549 24.219C67.7809 24.6938 68.0369 25.0631 68.1647 25.3114L68.6982 25.0368C68.5184 24.6875 68.4118 24.5417 68.4477 24.3113L67.8549 24.219ZM68.4523 24.8748C68.3674 24.8689 68.1588 24.8765 67.9282 24.897C67.6917 24.9179 67.4027 24.9548 67.1541 25.0155C67.0305 25.0456 66.9057 25.0842 66.7987 25.1353C66.7028 25.1811 66.5681 25.2612 66.4955 25.4023C66.4549 25.4813 66.4374 25.5731 66.4532 25.6691C66.4682 25.7606 66.5103 25.8367 66.5573 25.8965C66.6466 26.0103 66.7849 26.1052 66.9449 26.1903L67.2267 25.6606C67.09 25.5879 67.0406 25.5405 67.0293 25.5261C67.026 25.5218 67.0396 25.5373 67.0452 25.5716C67.0516 25.6104 67.0437 25.6483 67.0291 25.6767C67.0086 25.7165 66.9916 25.7081 67.0571 25.6768C67.1117 25.6508 67.1922 25.6238 67.2962 25.5984C67.5028 25.548 67.7579 25.5144 67.9812 25.4946C68.0916 25.4848 68.1912 25.4787 68.2694 25.4755C68.3085 25.4739 68.3414 25.4731 68.3669 25.4729C68.3797 25.4728 68.39 25.4728 68.3979 25.473C68.4019 25.473 68.405 25.4731 68.4072 25.4732C68.4096 25.4733 68.4106 25.4734 68.4105 25.4734L68.4523 24.8748ZM67.0858 25.6254C66.9507 25.6254 66.8276 25.6619 66.7272 25.7005C66.6294 25.738 66.5276 25.7885 66.4508 25.8244C66.2688 25.9094 66.1798 25.932 66.1143 25.9184L65.9922 26.5059C66.2781 26.5653 66.5407 26.4446 66.7047 26.368C66.8008 26.3231 66.8707 26.2881 66.9425 26.2605C67.0117 26.2339 67.056 26.2254 67.0858 26.2254V25.6254ZM65.9641 25.9257C65.9681 25.9244 65.994 25.9177 66.0315 25.9272C66.069 25.9367 66.0928 25.956 66.1026 25.9657C66.1098 25.9728 66.1092 25.9746 66.099 25.958C66.0942 25.9501 66.0895 25.942 66.0819 25.9291C66.0753 25.9177 66.066 25.9017 66.0556 25.8855C66.0293 25.8441 65.907 25.6504 65.6642 25.6798C65.5674 25.6915 65.4904 25.7373 65.4363 25.7782C65.38 25.8207 65.3255 25.8756 65.2717 25.9377L65.7252 26.3306C65.7648 26.2849 65.7883 26.2643 65.798 26.2569C65.81 26.2479 65.7872 26.2693 65.7363 26.2755C65.6713 26.2833 65.6132 26.2607 65.5759 26.2321C65.5494 26.2118 65.5407 26.1938 65.5496 26.2079C65.5528 26.2129 65.5568 26.2196 65.5636 26.2312C65.5695 26.2414 65.5784 26.2568 65.5878 26.2721C65.6061 26.3018 65.6364 26.3485 65.6806 26.3922C65.7274 26.4385 65.7943 26.4861 65.8844 26.5089C65.9746 26.5317 66.0629 26.5233 66.1423 26.4986L65.9641 25.9257ZM65.375 25.8608C65.3882 25.8548 65.3956 25.862 65.3733 25.8542C65.3433 25.8437 65.2986 25.8182 65.2322 25.7681C65.2006 25.7443 65.1683 25.7182 65.1327 25.6892C65.0986 25.6614 65.0599 25.6297 65.0219 25.6003C64.9516 25.5458 64.8509 25.4724 64.7366 25.4343L64.5469 26.0035C64.5469 26.0035 64.5496 26.0045 64.5555 26.0074C64.5612 26.0102 64.569 26.0145 64.5789 26.0207C64.5994 26.0334 64.6239 26.0509 64.6544 26.0745C64.6851 26.0983 64.7166 26.1242 64.7537 26.1544C64.7894 26.1835 64.8294 26.2159 64.8709 26.2472C64.9508 26.3074 65.0554 26.3786 65.1752 26.4206C65.3027 26.4652 65.4604 26.4805 65.622 26.4075L65.375 25.8608ZM64.7366 25.4343C63.9104 25.1589 63.3441 25.5098 62.9156 25.7117L63.1713 26.2545C63.6545 26.0269 63.989 25.8176 64.5469 26.0035L64.7366 25.4343ZM62.9163 25.7114C62.7479 25.7902 62.6648 25.8027 62.6011 25.8077C62.5405 25.8125 62.3941 25.8091 62.227 25.8489L62.366 26.4326C62.4735 26.407 62.5029 26.4173 62.6482 26.4059C62.7905 26.3947 62.9436 26.3611 63.1706 26.2548L62.9163 25.7114ZM62.2271 25.8489C62.0377 25.8939 61.9402 25.8781 61.8817 25.8556C61.8174 25.8309 61.7554 25.782 61.6578 25.6758C61.4652 25.4664 61.1972 25.098 60.6164 24.841L60.3736 25.3897C60.8144 25.5847 60.9913 25.8374 61.2161 26.0819C61.3272 26.2027 61.467 26.339 61.6665 26.4156C61.8715 26.4944 62.0995 26.496 62.366 26.4326L62.2271 25.8489ZM60.6166 24.8411C60.6185 24.8419 60.7093 24.8856 60.722 25.0071C60.7314 25.0963 60.6852 25.1412 60.7038 25.1169C60.7332 25.0786 60.8123 25.0113 60.9522 24.9071C61.0753 24.8155 61.2372 24.7009 61.3708 24.5908C61.4947 24.4888 61.6521 24.3463 61.7253 24.18L61.1761 23.9384C61.1761 23.9382 61.1754 23.9398 61.1735 23.943C61.1716 23.9463 61.1688 23.9508 61.1647 23.9565C61.1563 23.9683 61.1442 23.9832 61.1274 24.0013C61.0932 24.038 61.047 24.0802 60.9894 24.1277C60.8708 24.2253 60.7351 24.3207 60.5939 24.4259C60.4695 24.5185 60.3176 24.6349 60.228 24.7514C60.1872 24.8045 60.1095 24.9196 60.1253 25.0698C60.1445 25.2523 60.2795 25.3479 60.3734 25.3896L60.6166 24.8411ZM61.7261 24.178C61.8784 23.8251 61.7352 23.4019 61.4305 23.2171L61.1194 23.7302C61.1359 23.7402 61.1626 23.7681 61.1778 23.816C61.1924 23.862 61.1898 23.9065 61.1752 23.9403L61.7261 24.178ZM61.4259 23.2144C61.2163 23.0924 61.0571 22.9092 60.875 22.6777C60.7028 22.4588 60.501 22.1825 60.2285 21.9712L59.8608 22.4453C60.0607 22.6003 60.2104 22.8033 60.4034 23.0487C60.5866 23.2816 60.8064 23.548 61.124 23.7329L61.4259 23.2144ZM59.7597 22.1146C59.734 22.1927 59.6312 22.3549 59.4396 22.5663C59.2573 22.7674 59.0218 22.9836 58.772 23.1693C58.52 23.3567 58.2677 23.5023 58.052 23.5756C57.8257 23.6525 57.7104 23.6276 57.6594 23.593L57.3221 24.0892C57.6089 24.2842 57.9584 24.2411 58.2451 24.1437C58.5424 24.0427 58.8514 23.8579 59.13 23.6508C59.411 23.4419 59.6756 23.1994 59.8841 22.9692C60.0834 22.7494 60.262 22.508 60.3297 22.3019L59.7597 22.1146ZM57.659 23.5927C57.4423 23.446 57.0611 23.1909 56.6906 23.1295C56.4931 23.0967 56.2626 23.1126 56.0615 23.2619C55.8645 23.4081 55.7489 23.6434 55.6916 23.934L56.2802 24.0503C56.3217 23.8402 56.3866 23.7678 56.4192 23.7436C56.4476 23.7225 56.4954 23.7053 56.5925 23.7214C56.8109 23.7576 57.0834 23.9276 57.3226 24.0895L57.659 23.5927ZM55.6954 23.9171C55.6474 24.103 55.6825 24.3427 55.7435 24.5553C55.8085 24.7818 55.9188 25.0327 56.0728 25.2592L56.569 24.922C56.4538 24.7525 56.3692 24.5605 56.3202 24.3898C56.2673 24.2054 56.2695 24.0938 56.2763 24.0672L55.6954 23.9171ZM56.0576 25.2344C56.1524 25.408 56.1529 25.5342 56.1606 25.7017C56.1643 25.7836 56.1705 25.8988 56.2115 26.0159C56.2559 26.1429 56.3342 26.2554 56.4549 26.3542L56.835 25.8899C56.7936 25.8561 56.7834 25.8336 56.7778 25.8179C56.7689 25.7921 56.7637 25.7566 56.7599 25.6741C56.7525 25.5129 56.753 25.256 56.5842 24.9468L56.0576 25.2344ZM56.5304 25.8448C56.3839 25.9053 56.2119 25.9181 56.001 25.8986C55.7817 25.8784 55.5694 25.8302 55.3108 25.7865C54.8317 25.7056 54.2223 25.6464 53.7416 26.1528L54.1768 26.5659C54.4266 26.3027 54.7399 26.2986 55.2109 26.3781C55.4274 26.4147 55.6971 26.4731 55.9459 26.4961C56.2033 26.5198 56.4858 26.5124 56.7595 26.3993L56.5304 25.8448ZM53.7709 26.5929C53.9434 26.732 54.1347 26.7739 54.301 26.7827C54.454 26.7908 54.6232 26.7702 54.7286 26.7625C54.8546 26.7534 54.9243 26.7577 54.9707 26.7738C54.9978 26.7832 55.0334 26.8008 55.0718 26.8825L55.6147 26.6271C55.5131 26.4111 55.3591 26.2735 55.1675 26.207C54.995 26.1471 54.8165 26.1546 54.685 26.1641C54.533 26.1752 54.4355 26.189 54.3326 26.1835C54.2429 26.1788 54.1892 26.1594 54.1475 26.1258L53.7709 26.5929ZM55.3869 26.458C55.1835 26.428 54.9874 26.4163 54.7885 26.4163V27.0163C54.9631 27.0163 55.1296 27.0266 55.2996 27.0516L55.3869 26.458ZM54.5085 26.824C54.5427 26.9128 54.5676 26.983 54.5876 27.0406C54.6065 27.0949 54.6245 27.1483 54.6405 27.1906C54.6797 27.2942 54.724 27.376 54.8154 27.4651L55.234 27.0352C55.2216 27.0232 55.2197 27.0193 55.2194 27.0189C55.2178 27.0163 55.2127 27.0076 55.2016 26.9781C55.1895 26.9461 55.1768 26.9082 55.1544 26.8436C55.133 26.7821 55.1058 26.7054 55.0685 26.6086L54.5085 26.824ZM54.9385 26.9628C54.7618 27.0158 54.7177 27.1741 54.7079 27.2153C54.7016 27.242 54.6985 27.2668 54.6969 27.2802C54.694 27.3042 54.6949 27.2995 54.6927 27.3169C54.6903 27.3358 54.6884 27.3431 54.6871 27.3467C54.6865 27.3486 54.6864 27.3484 54.686 27.349L55.1437 27.7369C55.255 27.6055 55.2787 27.4663 55.2881 27.3914C55.2892 27.3824 55.2901 27.3741 55.2909 27.3675C55.2917 27.3602 55.2921 27.3558 55.2927 27.3515C55.2938 27.3416 55.2938 27.3454 55.2917 27.3539C55.29 27.361 55.2822 27.3935 55.2568 27.4308C55.2265 27.4755 55.1772 27.5177 55.1109 27.5375L54.9385 26.9628ZM54.696 27.3377C54.7257 27.306 54.7508 27.3038 54.6953 27.3249C54.6649 27.3365 54.5841 27.3639 54.5155 27.3994C54.4408 27.438 54.3433 27.5031 54.2751 27.6171C54.204 27.7358 54.186 27.8715 54.206 28.0106L54.7999 27.9254C54.7951 27.8923 54.8039 27.9019 54.79 27.9252C54.7789 27.9437 54.7689 27.9438 54.791 27.9324C54.8193 27.9178 54.8445 27.9101 54.9083 27.8859C54.9346 27.8759 54.9702 27.8618 55.0058 27.8431C55.0408 27.8248 55.0895 27.7952 55.1337 27.7481L54.696 27.3377ZM54.206 28.0111C54.2294 28.1722 54.2509 28.2998 54.2606 28.4207C54.2701 28.5393 54.2651 28.6218 54.2478 28.6828C54.2328 28.736 54.207 28.7797 54.1542 28.822C54.0956 28.8688 53.9928 28.9223 53.8111 28.9667L53.9536 29.5496C54.1866 29.4926 54.3796 29.41 54.5289 29.2905C54.6839 29.1665 54.7779 29.014 54.8253 28.8457C54.8706 28.6852 54.8706 28.521 54.8587 28.3726C54.8469 28.2265 54.8204 28.0667 54.7998 27.9249L54.206 28.0111ZM53.8114 28.9667C53.6982 28.9942 53.5174 28.995 53.2728 28.9661C53.035 28.9381 52.7673 28.8861 52.4934 28.8286C52.225 28.7722 51.9448 28.7091 51.7035 28.6649C51.47 28.6221 51.2293 28.588 51.0456 28.6065L51.1059 29.2035C51.194 29.1946 51.3563 29.2113 51.5954 29.255C51.8266 29.2974 52.0884 29.3566 52.37 29.4157C52.646 29.4737 52.9361 29.5306 53.2024 29.562C53.4619 29.5926 53.7314 29.6037 53.9533 29.5496L53.8114 28.9667ZM51.0486 28.6062C50.9253 28.6174 50.7561 28.658 50.6043 28.7228C50.5275 28.7556 50.4445 28.7991 50.3709 28.856C50.2998 28.911 50.2163 28.9949 50.1731 29.1142L50.7371 29.3187C50.7268 29.3471 50.7148 29.3486 50.7379 29.3307C50.7585 29.3148 50.7926 29.2948 50.84 29.2746C50.9368 29.2333 51.045 29.209 51.1029 29.2038L51.0486 28.6062ZM50.1742 29.111C49.9764 29.6381 49.9296 29.9233 49.9068 30.1057C49.901 30.1525 49.8985 30.1767 49.8948 30.2017C49.8916 30.2239 49.8896 30.2292 49.89 30.2281C49.8957 30.211 49.9066 30.2067 49.8813 30.2295L50.282 30.676C50.3611 30.6051 50.4235 30.5256 50.4595 30.4169C50.4868 30.3347 50.4951 30.2373 50.5022 30.18C50.5193 30.0435 50.5549 29.8042 50.736 29.3218L50.1742 29.111ZM49.8026 30.5628C49.9466 30.9281 50.2287 31.0829 50.4732 31.1681C50.5863 31.2075 50.7121 31.2385 50.7975 31.2625C50.8947 31.2898 50.958 31.3124 51.0029 31.3383L51.3023 30.8183C51.188 30.7525 51.0625 30.7137 50.9599 30.6849C50.8456 30.6527 50.7606 30.6329 50.6705 30.6015C50.5085 30.545 50.4144 30.4788 50.3608 30.3427L49.8026 30.5628ZM51.0044 31.3392C51.1355 31.4136 51.1887 31.4706 51.2146 31.5058C51.249 31.5524 51.2493 31.5696 51.2963 31.666C51.3432 31.7623 51.4145 31.8709 51.5621 31.9583C51.6918 32.035 51.8624 32.0844 52.0858 32.1222L52.1857 31.5305C51.9862 31.4969 51.9021 31.4623 51.8677 31.4419C51.8513 31.4322 51.8491 31.4306 51.8356 31.403C51.8221 31.3755 51.7751 31.2551 51.6976 31.1498C51.6116 31.0331 51.4884 30.924 51.3008 30.8175L51.0044 31.3392ZM52.0862 32.1222C52.3361 32.1641 52.5739 32.1415 52.7198 32.1429C52.8759 32.1444 53.0395 32.1634 53.2771 32.2748L53.5318 31.7316C53.2037 31.5777 52.9527 31.5451 52.7256 31.5429C52.4885 31.5406 52.3749 31.5622 52.1853 31.5305L52.0862 32.1222ZM53.2789 32.2757C53.2594 32.2667 53.2646 32.2605 53.2852 32.2928C53.3053 32.3242 53.3291 32.3753 53.3539 32.4512C53.4036 32.6036 53.4423 32.8091 53.4769 33.0476C53.5125 33.2922 53.538 33.5264 53.5722 33.7768C53.6043 34.0119 53.6425 34.249 53.6999 34.4355L54.2734 34.2591C54.2319 34.1243 54.1988 33.9312 54.1667 33.6957C54.1367 33.4757 54.1052 33.1991 54.0707 32.9614C54.0353 32.7176 53.9909 32.4693 53.9243 32.2651C53.8909 32.1626 53.8482 32.0596 53.7909 31.9699C53.7342 31.8811 53.6512 31.7866 53.53 31.7307L53.2789 32.2757ZM53.6998 34.435C53.8103 34.7968 54.0706 35.0284 54.2792 35.2056C54.5058 35.3982 54.6769 35.5331 54.7842 35.7272L55.3092 35.4368C55.1365 35.1244 54.8599 34.9117 54.6677 34.7484C54.4575 34.5698 54.3278 34.4372 54.2736 34.2597L53.6998 34.435ZM54.7841 35.7271C54.9445 36.0174 54.9194 36.3388 54.7874 36.6681C54.6546 36.9996 54.427 37.3008 54.2497 37.5033L54.7012 37.8985C54.8975 37.6742 55.1751 37.3137 55.3444 36.8912C55.5146 36.4665 55.5883 35.9419 55.3093 35.4369L54.7841 35.7271ZM54.2513 37.5015C53.9048 37.8911 53.6301 38.3659 53.5566 38.9447C53.4829 39.5246 53.6158 40.1736 54.0211 40.9026L54.5455 40.611C54.1874 39.967 54.0977 39.4461 54.1518 39.0203C54.206 38.5935 54.4091 38.2269 54.6996 37.9003L54.2513 37.5015ZM54.4708 40.5226C54.2394 40.3374 54.0666 40.2045 53.9323 40.1117C53.8012 40.0211 53.6868 39.9543 53.5749 39.9191C53.4457 39.8784 53.3419 39.8864 53.2539 39.9025C53.1665 39.9185 53.1387 39.9296 53.0569 39.9375L53.1149 40.5347C53.2281 40.5237 53.3321 40.4981 53.3617 40.4927C53.3905 40.4875 53.3887 40.4895 53.3948 40.4914C53.4181 40.4987 53.4722 40.5231 53.5912 40.6053C53.707 40.6853 53.8658 40.8069 54.0958 40.991L54.4708 40.5226ZM53.0565 39.9376C52.779 39.9649 52.5555 39.993 52.3884 40.0114C52.2136 40.0306 52.1034 40.0387 52.0205 40.0347C51.9462 40.0311 51.9057 40.0181 51.8701 39.9986C51.8277 39.9753 51.773 39.9321 51.6848 39.8378L51.2467 40.2478C51.3507 40.3589 51.4566 40.4562 51.5816 40.5247C51.7133 40.5969 51.8468 40.627 51.9916 40.634C52.1276 40.6405 52.2814 40.6267 52.4539 40.6078C52.6339 40.588 52.8409 40.5617 53.1153 40.5347L53.0565 39.9376ZM51.6847 39.8378C51.3882 39.5211 50.9577 39.334 50.5735 39.2433L50.4357 39.8273C50.7544 39.9025 51.0599 40.0483 51.2467 40.2478L51.6847 39.8378ZM50.5734 39.2433C50.3045 39.18 49.9948 39.215 49.7516 39.2428C49.4784 39.2741 49.2749 39.2983 49.1208 39.2724L49.0214 39.8641C49.2792 39.9074 49.5838 39.866 49.8199 39.8389C50.0862 39.8084 50.2873 39.7923 50.4358 39.8273L50.5734 39.2433ZM49.2676 39.3416C49.0712 39.1714 49.0026 38.991 48.9645 38.784C48.9434 38.6693 48.9344 38.5646 48.9168 38.4286C48.9004 38.3023 48.8773 38.1583 48.8264 38.0153L48.2612 38.2169C48.2899 38.2972 48.3066 38.3892 48.3217 38.5056C48.3355 38.6124 48.3495 38.7572 48.3744 38.8926C48.4283 39.1858 48.5438 39.5082 48.8746 39.795L49.2676 39.3416ZM48.8253 38.0124C48.8083 37.9663 48.8053 37.8819 48.838 37.7257C48.8533 37.6522 48.8736 37.5753 48.8963 37.489C48.9182 37.4057 48.9425 37.3132 48.9613 37.2214C48.9969 37.047 49.0263 36.8174 48.9421 36.6024C48.8476 36.3613 48.6413 36.2075 48.3585 36.1311L48.2019 36.7102C48.3557 36.7519 48.3766 36.8039 48.3834 36.8212C48.4004 36.8647 48.4051 36.9464 48.3735 37.1012C48.3586 37.174 48.3386 37.2505 48.316 37.3363C48.2943 37.4191 48.2698 37.5115 48.2507 37.6029C48.2143 37.7766 48.1832 38.0051 48.2623 38.2198L48.8253 38.0124ZM48.3586 36.1311C47.7834 35.9752 47.4214 35.9168 46.9772 35.6281L46.6502 36.1312C47.1946 36.4851 47.6785 36.5684 48.2017 36.7102L48.3586 36.1311ZM46.9776 35.6284C46.5089 35.3226 46.0973 35.2208 45.6906 35.1738C45.4958 35.1513 45.2934 35.1408 45.1027 35.1266C44.9071 35.1122 44.709 35.0932 44.4951 35.054L44.387 35.6442C44.6318 35.689 44.8544 35.7099 45.0584 35.725C45.2674 35.7405 45.4432 35.7493 45.6218 35.7699C45.962 35.8092 46.2782 35.8885 46.6498 36.1309L46.9776 35.6284ZM44.4947 35.0539C44.0743 34.9775 43.6826 34.7634 43.2823 34.4872C43.0824 34.3493 42.888 34.2016 42.6869 34.051C42.4884 33.9025 42.2842 33.752 42.0763 33.619L41.753 34.1244C41.9405 34.2443 42.129 34.383 42.3274 34.5314C42.5231 34.6779 42.7296 34.8349 42.9416 34.9811C43.3651 35.2733 43.8412 35.545 44.3874 35.6443L44.4947 35.0539ZM42.0758 33.6187C41.6797 33.3663 41.2688 33.1747 40.8913 32.9871C40.5076 32.7963 40.1487 32.6056 39.814 32.3453L39.4456 32.8189C39.8305 33.1182 40.235 33.3309 40.6243 33.5244C41.0199 33.721 41.3917 33.8943 41.7535 34.1247L42.0758 33.6187ZM39.8139 32.3452C39.4224 32.0408 38.9937 31.9143 38.6196 31.8079C38.2323 31.6978 37.9098 31.6101 37.6209 31.4088L37.2779 31.9011C37.6646 32.1706 38.0917 32.2816 38.4555 32.3851C38.8324 32.4922 39.1562 32.5939 39.4457 32.8189L39.8139 32.3452ZM37.622 31.4096C37.1958 31.1098 36.7567 30.8276 36.3218 30.5492C35.8853 30.2698 35.4535 29.9947 35.033 29.7044L34.6921 30.1982C35.123 30.4956 35.5644 30.7768 35.9984 31.0546C36.434 31.3334 36.8627 31.6092 37.2768 31.9004L37.622 31.4096ZM35.0329 29.7044C34.6865 29.4654 34.2502 29.2286 33.7943 28.9893C33.3326 28.747 32.8478 28.5006 32.3813 28.234C31.9154 27.9677 31.4806 27.6884 31.1241 27.387C30.7665 27.0848 30.5025 26.7728 30.3589 26.4457L29.8096 26.687C30.0037 27.1289 30.3411 27.5108 30.7368 27.8453C31.1336 28.1807 31.6041 28.4809 32.0836 28.7549C32.5624 29.0286 33.0632 29.2832 33.5154 29.5206C33.9734 29.7609 34.3795 29.9825 34.6922 30.1982L35.0329 29.7044ZM30.3591 26.4462C30.0263 25.6849 29.5674 25.088 29.1207 24.5199C28.6696 23.9462 28.233 23.4038 27.8922 22.7203L27.3552 22.988C27.7284 23.7364 28.2062 24.3276 28.649 24.8908C29.0962 25.4595 29.5105 26.0029 29.8093 26.6865L30.3591 26.4462ZM27.8924 22.7208C27.4814 21.8929 26.9609 21.3318 26.0794 20.9474L25.8396 21.4974C26.5729 21.8171 26.997 22.2665 27.355 22.9876L27.8924 22.7208ZM26.0794 20.9474C25.9954 20.9108 25.8186 20.8235 25.6583 20.7648C25.5036 20.7082 25.2743 20.6408 25.0587 20.6938L25.2017 21.2765C25.2277 21.2701 25.3059 21.2747 25.452 21.3282C25.5924 21.3796 25.7094 21.4406 25.8396 21.4974L26.0794 20.9474ZM25.0585 20.6938C24.8919 20.7348 24.7762 20.8296 24.7036 20.9505C24.6441 21.0493 24.6178 21.1644 24.6054 21.2096C24.5869 21.2769 24.5806 21.2798 24.586 21.2732C24.605 21.2503 24.6224 21.2563 24.5849 21.2599L24.643 21.8571C24.8087 21.841 24.949 21.7761 25.0487 21.6552C25.135 21.5507 25.1675 21.4287 25.184 21.3682C25.2066 21.2857 25.2115 21.2701 25.2178 21.2597C25.2178 21.2596 25.2175 21.2601 25.2169 21.2609C25.2163 21.2618 25.2154 21.2629 25.2142 21.2643C25.2117 21.2672 25.2085 21.2702 25.2048 21.273C25.1965 21.2791 25.193 21.2786 25.2018 21.2764L25.0585 20.6938ZM24.5851 21.2599C24.2572 21.2916 23.9714 21.199 23.5535 21.0856C23.146 20.975 22.6615 20.8635 22.0255 20.937L22.0945 21.533C22.6173 21.4726 23.0144 21.561 23.3964 21.6647C23.7681 21.7656 24.1797 21.9018 24.6427 21.8571L24.5851 21.2599ZM22.0254 20.937C21.4365 21.0053 20.9044 20.7651 20.2796 20.4775L20.0287 21.0226C20.6233 21.2963 21.3104 21.624 22.0946 21.533L22.0254 20.937ZM20.2832 20.4792C20.2538 20.4652 20.1972 20.4307 20.1359 20.3765C20.0753 20.3229 20.0204 20.2593 19.9833 20.1917L19.4572 20.4802C19.6092 20.7574 19.8662 20.9452 20.0252 21.0209L20.2832 20.4792ZM19.9862 20.1971C19.9903 20.205 19.9848 20.2012 19.9855 20.1668C19.9862 20.1299 19.993 20.0844 20.0055 20.0134C20.0252 19.9011 20.0749 19.6753 20.0052 19.4637L19.4354 19.6516C19.448 19.6899 19.4429 19.748 19.4145 19.9098C19.4029 19.9759 19.3874 20.065 19.3856 20.1546C19.3837 20.2468 19.3953 20.3617 19.4543 20.4748L19.9862 20.1971ZM20.0104 19.4812C19.9847 19.3839 19.9385 19.2884 19.8966 19.2101C19.8542 19.1309 19.8034 19.0461 19.7643 18.9786C19.7216 18.9049 19.6908 18.8485 19.6722 18.8044C19.6481 18.7476 19.6678 18.7646 19.6578 18.8165L19.0687 18.7028C19.0422 18.8401 19.0901 18.9683 19.1196 19.0381C19.1545 19.1206 19.2027 19.2062 19.2451 19.2794C19.2912 19.3588 19.3316 19.4259 19.3675 19.493C19.4039 19.5611 19.4229 19.6065 19.4302 19.6342L20.0104 19.4812ZM19.6633 18.7596C19.6633 18.7742 19.6606 18.7995 19.6471 18.8291C19.6333 18.8595 19.6128 18.8841 19.5909 18.9016C19.5525 18.9322 19.5227 18.9316 19.5384 18.9298C19.5499 18.9286 19.5728 18.9283 19.6102 18.9319C19.6463 18.9354 19.6848 18.9413 19.7274 18.9482L19.823 18.3558C19.747 18.3436 19.602 18.3191 19.4723 18.3335C19.4063 18.3408 19.3055 18.3616 19.2165 18.4327C19.1124 18.5158 19.0633 18.6359 19.0633 18.7596H19.6633ZM20.0555 18.5452C19.8831 18.0927 19.5048 17.928 19.3026 17.8118C19.1915 17.748 19.1237 17.6989 19.0771 17.6392C19.036 17.5866 18.9955 17.5048 18.9873 17.3488L18.3881 17.3804C18.4019 17.6407 18.4767 17.8452 18.6042 18.0084C18.7261 18.1646 18.88 18.261 19.0037 18.3321C19.2712 18.4857 19.4146 18.5484 19.4949 18.7588L20.0555 18.5452ZM18.9871 17.345C18.9556 16.8651 18.7876 16.4883 18.4606 16.2445C18.1461 16.0102 17.734 15.9369 17.2936 15.9437L17.3028 16.5436C17.6861 16.5377 17.9414 16.6059 18.102 16.7256C18.25 16.836 18.3649 17.0259 18.3884 17.3842L18.9871 17.345ZM17.2939 15.9437C17.0681 15.9468 16.7115 15.9786 16.3624 15.9481C16.191 15.9332 16.0508 15.9045 15.9532 15.8625C15.8566 15.8209 15.8423 15.7852 15.8391 15.7744L15.2642 15.9462C15.3379 16.1927 15.5316 16.3342 15.7159 16.4136C15.8993 16.4925 16.113 16.5286 16.3102 16.5459C16.6985 16.5798 17.1383 16.5459 17.3024 16.5436L17.2939 15.9437ZM15.8387 15.7732C15.7633 15.5248 15.636 15.3403 15.4669 15.2069C15.3037 15.078 15.119 15.0108 14.9528 14.9656C14.8693 14.9429 14.7847 14.9243 14.7064 14.9074C14.6258 14.89 14.5522 14.8744 14.4794 14.8561C14.3343 14.8196 14.2149 14.7774 14.1142 14.7134L13.7925 15.2199C13.972 15.3339 14.1628 15.3951 14.333 15.4379C14.4179 15.4593 14.5032 15.4773 14.5796 15.4938C14.6583 15.5108 14.7288 15.5265 14.7953 15.5446C14.9291 15.581 15.0241 15.6218 15.0952 15.6779C15.1605 15.7294 15.2219 15.8067 15.2646 15.9474L15.8387 15.7732ZM14.1158 14.7144C14.0772 14.6896 14.0092 14.6288 13.8947 14.5232C13.7914 14.428 13.6631 14.3092 13.5294 14.2045C13.3989 14.1023 13.2407 13.9952 13.0732 13.9391C12.8984 13.8806 12.6711 13.8664 12.4719 14.0227L12.8425 14.4947C12.8428 14.4944 12.8412 14.4956 12.8381 14.4968C12.8351 14.498 12.8333 14.4981 12.8338 14.4981C12.8358 14.4979 12.8506 14.4973 12.8826 14.5081C12.9515 14.5311 13.0449 14.5872 13.1595 14.6769C13.2708 14.7641 13.3811 14.8658 13.488 14.9644C13.5838 15.0526 13.6977 15.1589 13.791 15.2189L14.1158 14.7144ZM12.4721 14.0226C12.2189 14.2212 12.1302 14.3043 12.0148 14.3543C11.9253 14.3931 11.8004 14.4158 11.4899 14.3788L11.4189 14.9746C11.7675 15.0161 12.0189 15.0064 12.2533 14.9049C12.462 14.8145 12.6451 14.6494 12.8423 14.4948L12.4721 14.0226ZM11.4899 14.3788C11.4184 14.3703 11.3453 14.3668 11.2765 14.3749C11.2133 14.3823 11.1143 14.4041 11.0314 14.4806C10.9324 14.5719 10.9069 14.6925 10.9181 14.791C10.9276 14.8754 10.9627 14.9454 10.9901 14.9915C11.0465 15.0862 11.1338 15.1826 11.2203 15.2689C11.3109 15.3593 11.4186 15.456 11.5303 15.5524C11.6423 15.6492 11.7621 15.7486 11.8773 15.8441C11.9934 15.9404 12.1045 16.0322 12.203 16.1166C12.3024 16.2018 12.383 16.2743 12.4396 16.3317C12.4681 16.3606 12.4858 16.3809 12.4956 16.3937C12.5099 16.4124 12.4944 16.3982 12.4837 16.3599L13.0613 16.1976C13.0403 16.1227 12.9981 16.063 12.9718 16.0287C12.941 15.9885 12.9042 15.9483 12.8669 15.9105C12.7919 15.8344 12.6957 15.7486 12.5934 15.661C12.4902 15.5726 12.3748 15.4772 12.2602 15.3822C12.1446 15.2864 12.0292 15.1905 11.9223 15.0982C11.815 15.0056 11.7198 14.9197 11.6441 14.8442C11.5644 14.7646 11.5219 14.7118 11.5057 14.6846C11.4968 14.6697 11.51 14.6855 11.5143 14.7237C11.5202 14.7761 11.5063 14.8587 11.4384 14.9214C11.3865 14.9693 11.3379 14.9718 11.3469 14.9707C11.3505 14.9703 11.3717 14.9689 11.4189 14.9746L11.4899 14.3788ZM12.8413 15.9868C12.6366 15.9386 12.5096 15.8569 12.3535 15.7388C12.1936 15.6179 11.9923 15.4481 11.6802 15.2945L11.4153 15.8328C11.6634 15.955 11.8109 16.0807 11.9915 16.2173C12.1759 16.3568 12.3812 16.4948 12.7038 16.5708L12.8413 15.9868ZM11.6813 15.295C11.6631 15.286 11.5441 15.2207 11.4485 15.1768C11.3421 15.128 11.1978 15.0714 11.0456 15.0526C10.8922 15.0336 10.6886 15.0491 10.5215 15.1994C10.3588 15.3457 10.2928 15.5647 10.2814 15.8083L10.8808 15.8364C10.8886 15.6695 10.9297 15.6393 10.9227 15.6456C10.9112 15.6559 10.9119 15.6406 10.972 15.648C11.0334 15.6556 11.1118 15.6825 11.1982 15.7221C11.2953 15.7667 11.3391 15.795 11.4142 15.8323L11.6813 15.295ZM10.2814 15.8087C10.2641 16.188 10.168 16.3389 10.0892 16.4079C10.0028 16.4835 9.8696 16.5224 9.64434 16.5371C9.53281 16.5444 9.42097 16.5451 9.28901 16.5486C9.16287 16.5521 9.02428 16.5582 8.8864 16.5783C8.60691 16.6192 8.30318 16.722 8.07061 17.0031L8.53295 17.3855C8.63542 17.2617 8.7745 17.201 8.97319 17.172C9.0744 17.1572 9.18373 17.1517 9.3053 17.1484C9.42105 17.1453 9.55672 17.1441 9.68342 17.1358C9.93461 17.1194 10.2408 17.0725 10.4843 16.8595C10.7353 16.6398 10.8596 16.2993 10.8808 15.836L10.2814 15.8087ZM8.07118 17.0024C7.8404 17.2798 7.65326 17.5108 7.51686 17.7183C7.3785 17.9289 7.28071 18.1323 7.24202 18.3577C7.16628 18.7988 7.33568 19.2469 7.59618 19.8771L8.15069 19.6479C7.87295 18.976 7.79242 18.6977 7.83337 18.4592C7.85302 18.3447 7.90523 18.2199 8.0183 18.0478C8.13334 17.8728 8.29907 17.6666 8.53239 17.3862L8.07118 17.0024ZM7.59756 19.8804C7.65518 20.0153 7.74099 20.142 7.81522 20.247C7.89615 20.3614 7.9633 20.4504 8.01913 20.5425C8.07447 20.6339 8.09608 20.6937 8.10063 20.7325C8.10343 20.7564 8.10193 20.7771 8.0734 20.8126L8.54116 21.1884C8.67191 21.0256 8.71778 20.8439 8.69656 20.6627C8.67709 20.4966 8.60328 20.3488 8.53231 20.2316C8.46183 20.1153 8.37178 19.9948 8.30511 19.9005C8.23175 19.7968 8.17956 19.7155 8.14931 19.6447L7.59756 19.8804ZM8.07023 20.8166C8.09072 20.7902 8.10598 20.7898 8.08297 20.7986C8.06207 20.8067 8.02548 20.8163 7.96936 20.8236C7.8569 20.8383 7.70824 20.8391 7.54135 20.8305C7.37685 20.8221 7.20752 20.8055 7.05627 20.7897C6.9132 20.7748 6.77005 20.7587 6.68095 20.7556L6.66023 21.3552C6.72216 21.3574 6.83372 21.3698 6.99409 21.3865C7.14629 21.4023 7.32915 21.4204 7.51067 21.4297C7.68979 21.4389 7.88096 21.4403 8.04723 21.4185C8.13048 21.4076 8.21798 21.3897 8.29903 21.3584C8.37796 21.3279 8.47304 21.2763 8.54433 21.1844L8.07023 20.8166ZM6.68134 20.7556C6.06622 20.7335 5.53686 20.7084 5.10022 20.6918C4.67702 20.6757 4.3361 20.6673 4.14052 20.684L4.19176 21.2818C4.3422 21.2689 4.64111 21.2748 5.07743 21.2914C5.50032 21.3074 6.05017 21.3334 6.65983 21.3552L6.68134 20.7556ZM4.45931 20.9193L0.691608 3.5653L0.105267 3.6926L3.87297 21.0466L4.45931 20.9193Z" fill="white" mask="url(#path-1-inside-1_202_5763)"/>
</svg>
