<svg width="16" height="16" viewBox="0 0 16 16" fill="none" xmlns="http://www.w3.org/2000/svg">
<path d="M10.3157 11.0193L11.0183 10.3166L8.50033 7.79864V4.66797H7.50033V8.2038L10.3157 11.0193ZM8.00149 14.3346C7.12549 14.3346 6.3021 14.1684 5.53133 13.836C4.76055 13.5035 4.0901 13.0524 3.51999 12.4825C2.94988 11.9126 2.49849 11.2424 2.16583 10.472C1.83327 9.70152 1.66699 8.87836 1.66699 8.00247C1.66699 7.12647 1.83321 6.30308 2.16566 5.5323C2.4981 4.76152 2.94927 4.09108 3.51916 3.52097C4.08905 2.95086 4.75921 2.49947 5.52966 2.1668C6.3001 1.83425 7.12327 1.66797 7.99916 1.66797C8.87516 1.66797 9.69855 1.83419 10.4693 2.16664C11.2401 2.49908 11.9105 2.95025 12.4807 3.52014C13.0508 4.09002 13.5022 4.76019 13.8348 5.53064C14.1674 6.30108 14.3337 7.12425 14.3337 8.00013C14.3337 8.87613 14.1674 9.69952 13.835 10.4703C13.5025 11.2411 13.0514 11.9115 12.4815 12.4816C11.9116 13.0517 11.2414 13.5031 10.471 13.8358C9.70055 14.1684 8.87738 14.3346 8.00149 14.3346ZM8.00033 13.3346C9.4781 13.3346 10.7364 12.8152 11.7753 11.7763C12.8142 10.7374 13.3337 9.47908 13.3337 8.0013C13.3337 6.52352 12.8142 5.26519 11.7753 4.2263C10.7364 3.18741 9.4781 2.66797 8.00033 2.66797C6.52255 2.66797 5.26421 3.18741 4.22533 4.2263C3.18644 5.26519 2.66699 6.52352 2.66699 8.0013C2.66699 9.47908 3.18644 10.7374 4.22533 11.7763C5.26421 12.8152 6.52255 13.3346 8.00033 13.3346Z" fill="#25CEC1"/>
</svg>
