<svg viewBox="0 0 22 22" fill="none" xmlns="http://www.w3.org/2000/svg">
<path fill-rule="evenodd" clip-rule="evenodd" d="M12.9272 3.99711V3.99711C12.9272 4.14905 13.0462 4.27843 13.1981 4.27843H16.5844C17.2059 4.27843 17.7098 4.78225 17.7098 5.40375V8.79007C17.7098 8.94201 17.8391 9.06101 17.9911 9.06101V9.06101C20.0109 9.06101 21.6483 10.6984 21.6483 12.7183C21.6483 14.7381 20.0109 16.3755 17.9911 16.3755V16.3755C17.8391 16.3755 17.7098 16.4945 17.7098 16.6465V20.0328C17.7098 20.6543 17.2059 21.1581 16.5844 21.1581H12.6427C12.2178 21.1581 11.9144 20.739 11.9144 20.3141V20.3141C11.9144 18.7604 10.6549 17.5008 9.10112 17.5008C7.54739 17.5008 6.28784 18.7604 6.28784 20.3141V20.3141C6.28784 20.739 5.9844 21.1581 5.55957 21.1581H1.95539C1.3339 21.1581 0.830078 20.6543 0.830078 20.0328L0.830078 16.2598C0.830078 15.835 1.24923 15.5316 1.67406 15.5316V15.5316C3.22779 15.5316 4.48734 14.272 4.48734 12.7183C4.48734 11.1645 3.22779 9.90499 1.67406 9.90499V9.90499C1.24923 9.90499 0.830078 9.60156 0.830078 9.17672L0.830078 5.40375C0.830078 4.78225 1.3339 4.27843 1.95539 4.27843H5.34171C5.49366 4.27843 5.61265 4.14905 5.61265 3.99711V3.99711C5.61265 1.97726 7.25007 0.339844 9.26992 0.339844C11.2898 0.339844 12.9272 1.97726 12.9272 3.99711Z" fill="#FAAEC4"/>
</svg>
